solid OpenSCAD_Model
  facet normal 0.659327 -0.751856 0
    outer loop
      vertex 9.76569 0.234314 0
      vertex 9.76569 0.234314 0.4
      vertex 9.68701 0.165317 0
    endloop
  endfacet
  facet normal 0.896973 0.442086 -0
    outer loop
      vertex 9.89282 39.6 0
      vertex 9.89282 39.6 0.4
      vertex 9.9391 39.5061 0
    endloop
  endfacet
  facet normal -0 -1 -0
    outer loop
      vertex 9.2 0 0.4
      vertex 0.799999 0 0.4
      vertex 9.2 0 0
    endloop
  endfacet
  facet normal 0 -1 0
    outer loop
      vertex 9.2 0 0
      vertex 0.799999 0 0.4
      vertex 0.799999 0 0
    endloop
  endfacet
  facet normal 0.896885 -0.442264 0
    outer loop
      vertex 9.89282 0.4 0.4
      vertex 9.89282 0.4 0
      vertex 9.9391 0.493853 0.4
    endloop
  endfacet
  facet normal 0.442429 0.896803 0
    outer loop
      vertex 9.6 39.8928 0.4
      vertex 9.6 39.8928 0
      vertex 9.50615 39.9391 0.4
    endloop
  endfacet
  facet normal 0.195877 0.980628 0
    outer loop
      vertex 9.30442 39.9932 0
      vertex 9.40705 39.9727 0.4
      vertex 9.40705 39.9727 0
    endloop
  endfacet
  facet normal -0.94693 -0.321441 0
    outer loop
      vertex 0.0608959 0.493853 0
      vertex 0.0272589 0.592944 0.4
      vertex 0.0272589 0.592944 0
    endloop
  endfacet
  facet normal 0.831462 -0.555582 0
    outer loop
      vertex 9.83468 0.31299 0
      vertex 9.89282 0.4 0
      vertex 9.83468 0.31299 0.4
    endloop
  endfacet
  facet normal -0.980785 -0.19509 0
    outer loop
      vertex 0.00684357 0.695579 0
      vertex 0.0272589 0.592944 0.4
      vertex 0.00684357 0.695579 0.4
    endloop
  endfacet
  facet normal 0 0 -1
    outer loop
      vertex 0.592944 0.0272589 0
      vertex 9.6 39.8928 0
      vertex 0.695579 0.00684357 0
    endloop
  endfacet
  facet normal -0.997858 0.0654111 0
    outer loop
      vertex 0 39.2 0.4
      vertex 0.00684357 39.3044 0.4
      vertex 0 39.2 0
    endloop
  endfacet
  facet normal 0 0 1
    outer loop
      vertex 9.30442 39.9932 0.4
      vertex 9.89282 39.6 0.4
      vertex 9.40705 39.9727 0.4
    endloop
  endfacet
  facet normal 0.896973 0.442086 -0
    outer loop
      vertex 9.9391 39.5061 0
      vertex 9.89282 39.6 0.4
      vertex 9.9391 39.5061 0.4
    endloop
  endfacet
  facet normal 0 0 -1
    outer loop
      vertex 0.234314 0.234314 0
      vertex 9.6 39.8928 0
      vertex 0.31299 0.165317 0
    endloop
  endfacet
  facet normal -0.442418 0.896809 0
    outer loop
      vertex 0.493853 39.9391 0.4
      vertex 0.4 39.8928 0
      vertex 0.4 39.8928 0.4
    endloop
  endfacet
  facet normal -0.321441 -0.94693 0
    outer loop
      vertex 0.493853 0.0608959 0
      vertex 0.592944 0.0272589 0.4
      vertex 0.493853 0.0608959 0.4
    endloop
  endfacet
  facet normal 0.659343 0.751842 0
    outer loop
      vertex 9.76569 39.7657 0.4
      vertex 9.68701 39.8347 0
      vertex 9.68701 39.8347 0.4
    endloop
  endfacet
  facet normal 0 -0 1
    outer loop
      vertex 9.2 0 0.4
      vertex 9.89282 39.6 0.4
      vertex 0.799999 0 0.4
    endloop
  endfacet
  facet normal 0 0 1
    outer loop
      vertex 0 0.799999 0.4
      vertex 9.89282 39.6 0.4
      vertex 0 39.2 0.4
    endloop
  endfacet
  facet normal 0.195099 -0.980784 0
    outer loop
      vertex 9.40705 0.0272589 0
      vertex 9.30442 0.00684357 0.4
      vertex 9.30442 0.00684357 0
    endloop
  endfacet
  facet normal 1 0 0
    outer loop
      vertex 10 39.2 0
      vertex 10 0.799999 0.4
      vertex 10 0.799999 0
    endloop
  endfacet
  facet normal -0 0 1
    outer loop
      vertex 0.31299 39.8347 0.4
      vertex 9.89282 39.6 0.4
      vertex 0.4 39.8928 0.4
    endloop
  endfacet
  facet normal 0 -0 1
    outer loop
      vertex 0.592944 0.0272589 0.4
      vertex 9.89282 39.6 0.4
      vertex 0.493853 0.0608959 0.4
    endloop
  endfacet
  facet normal 0 0 1
    outer loop
      vertex 0.0272589 39.4071 0.4
      vertex 9.89282 39.6 0.4
      vertex 0.0608959 39.5061 0.4
    endloop
  endfacet
  facet normal 0.946921 -0.321466 0
    outer loop
      vertex 9.9391 0.493853 0
      vertex 9.97274 0.592944 0.4
      vertex 9.9391 0.493853 0.4
    endloop
  endfacet
  facet normal 0.751873 -0.659308 0
    outer loop
      vertex 9.83468 0.31299 0.4
      vertex 9.76569 0.234314 0.4
      vertex 9.83468 0.31299 0
    endloop
  endfacet
  facet normal 0 -0 -1
    outer loop
      vertex 0.4 39.8928 0
      vertex 9.6 39.8928 0
      vertex 0.31299 39.8347 0
    endloop
  endfacet
  facet normal -0.19509 -0.980785 0
    outer loop
      vertex 0.695579 0.00684357 0
      vertex 0.592944 0.0272589 0.4
      vertex 0.592944 0.0272589 0
    endloop
  endfacet
  facet normal -0.75184 -0.659346 0
    outer loop
      vertex 0.165317 0.31299 0
      vertex 0.234314 0.234314 0.4
      vertex 0.165317 0.31299 0.4
    endloop
  endfacet
  facet normal -1 0 0
    outer loop
      vertex 0 0.799999 0
      vertex 0 0.799999 0.4
      vertex 0 39.2 0
    endloop
  endfacet
  facet normal 0 0 -1
    outer loop
      vertex 9.9391 39.5061 0
      vertex 9.6 39.8928 0
      vertex 9.89282 39.6 0
    endloop
  endfacet
  facet normal 0.195099 -0.980784 0
    outer loop
      vertex 9.40705 0.0272589 0.4
      vertex 9.30442 0.00684357 0.4
      vertex 9.40705 0.0272589 0
    endloop
  endfacet
  facet normal 0.0653986 -0.997859 0
    outer loop
      vertex 9.30442 0.00684357 0
      vertex 9.30442 0.00684357 0.4
      vertex 9.2 0 0
    endloop
  endfacet
  facet normal 0 0 1
    outer loop
      vertex 9.9391 39.5061 0.4
      vertex 9.89282 39.6 0.4
      vertex 9.97274 39.4071 0.4
    endloop
  endfacet
  facet normal -0.831446 0.555606 0
    outer loop
      vertex 0.10718 39.6 0
      vertex 0.10718 39.6 0.4
      vertex 0.165317 39.687 0
    endloop
  endfacet
  facet normal 0.946831 0.321731 0
    outer loop
      vertex 9.97274 39.4071 0.4
      vertex 9.97274 39.4071 0
      vertex 9.9391 39.5061 0.4
    endloop
  endfacet
  facet normal -0.0653986 -0.997859 -0
    outer loop
      vertex 0.799999 0 0.4
      vertex 0.695579 0.00684357 0
      vertex 0.799999 0 0
    endloop
  endfacet
  facet normal -0.831475 -0.555562 -0
    outer loop
      vertex 0.10718 0.4 0.4
      vertex 0.10718 0.4 0
      vertex 0.165317 0.31299 0.4
    endloop
  endfacet
  facet normal -0 0 1
    outer loop
      vertex 0.695579 39.9932 0.4
      vertex 9.89282 39.6 0.4
      vertex 0.799999 40 0.4
    endloop
  endfacet
  facet normal 0 0 1
    outer loop
      vertex 9.76569 39.7657 0.4
      vertex 9.89282 39.6 0.4
      vertex 9.83468 39.687 0.4
    endloop
  endfacet
  facet normal -0.0653986 -0.997859 -0
    outer loop
      vertex 0.695579 0.00684357 0.4
      vertex 0.695579 0.00684357 0
      vertex 0.799999 0 0.4
    endloop
  endfacet
  facet normal -0.659346 -0.75184 -0
    outer loop
      vertex 0.31299 0.165317 0.4
      vertex 0.234314 0.234314 0.4
      vertex 0.31299 0.165317 0
    endloop
  endfacet
  facet normal 0.0653986 -0.997859 0
    outer loop
      vertex 9.2 0 0
      vertex 9.30442 0.00684357 0.4
      vertex 9.2 0 0.4
    endloop
  endfacet
  facet normal 0 0 -1
    outer loop
      vertex 9.50615 0.0608959 0
      vertex 9.6 39.8928 0
      vertex 9.6 0.10718 0
    endloop
  endfacet
  facet normal 0 -0 1
    outer loop
      vertex 9.30442 0.00684357 0.4
      vertex 9.89282 39.6 0.4
      vertex 9.2 0 0.4
    endloop
  endfacet
  facet normal 0 0 -1
    outer loop
      vertex 9.99316 0.695579 0
      vertex 9.6 39.8928 0
      vertex 10 0.799999 0
    endloop
  endfacet
  facet normal 0 -0 -1
    outer loop
      vertex 0.493853 39.9391 0
      vertex 9.6 39.8928 0
      vertex 0.4 39.8928 0
    endloop
  endfacet
  facet normal 1 0 0
    outer loop
      vertex 10 39.2 0.4
      vertex 10 0.799999 0.4
      vertex 10 39.2 0
    endloop
  endfacet
  facet normal 0 -0 1
    outer loop
      vertex 9.76569 0.234314 0.4
      vertex 9.89282 39.6 0.4
      vertex 9.68701 0.165317 0.4
    endloop
  endfacet
  facet normal -0.195868 0.98063 0
    outer loop
      vertex 0.695579 39.9932 0.4
      vertex 0.695579 39.9932 0
      vertex 0.592944 39.9727 0.4
    endloop
  endfacet
  facet normal 0 -0 1
    outer loop
      vertex 0.0272589 0.592944 0.4
      vertex 9.89282 39.6 0.4
      vertex 0.00684357 0.695579 0.4
    endloop
  endfacet
  facet normal 0 1 -0
    outer loop
      vertex 9.2 40 0
      vertex 0.799999 40 0
      vertex 9.2 40 0.4
    endloop
  endfacet
  facet normal 0 0 -1
    outer loop
      vertex 9.99316 39.3044 0
      vertex 9.6 39.8928 0
      vertex 9.97274 39.4071 0
    endloop
  endfacet
  facet normal 0.321414 -0.946939 0
    outer loop
      vertex 9.40705 0.0272589 0.4
      vertex 9.40705 0.0272589 0
      vertex 9.50615 0.0608959 0.4
    endloop
  endfacet
  facet normal 0 1 0
    outer loop
      vertex 9.2 40 0.4
      vertex 0.799999 40 0
      vertex 0.799999 40 0.4
    endloop
  endfacet
  facet normal 0 0 -1
    outer loop
      vertex 10 39.2 0
      vertex 9.6 39.8928 0
      vertex 9.99316 39.3044 0
    endloop
  endfacet
  facet normal -0.321441 -0.94693 0
    outer loop
      vertex 0.592944 0.0272589 0
      vertex 0.592944 0.0272589 0.4
      vertex 0.493853 0.0608959 0
    endloop
  endfacet
  facet normal 0.442307 -0.896864 0
    outer loop
      vertex 9.50615 0.0608959 0.4
      vertex 9.6 0.10718 0
      vertex 9.6 0.10718 0.4
    endloop
  endfacet
  facet normal -0.94684 0.321706 0
    outer loop
      vertex 0.0608959 39.5061 0
      vertex 0.0272589 39.4071 0.4
      vertex 0.0608959 39.5061 0.4
    endloop
  endfacet
  facet normal 0.321097 0.947046 0
    outer loop
      vertex 9.40705 39.9727 0.4
      vertex 9.50615 39.9391 0.4
      vertex 9.40705 39.9727 0
    endloop
  endfacet
  facet normal 0 -0 1
    outer loop
      vertex 9.89282 0.4 0.4
      vertex 9.89282 39.6 0.4
      vertex 9.83468 0.31299 0.4
    endloop
  endfacet
  facet normal 0.321414 -0.946939 0
    outer loop
      vertex 9.50615 0.0608959 0.4
      vertex 9.40705 0.0272589 0
      vertex 9.50615 0.0608959 0
    endloop
  endfacet
  facet normal -0.19509 -0.980785 -0
    outer loop
      vertex 0.695579 0.00684357 0.4
      vertex 0.592944 0.0272589 0.4
      vertex 0.695579 0.00684357 0
    endloop
  endfacet
  facet normal 0.442307 -0.896864 0
    outer loop
      vertex 9.50615 0.0608959 0
      vertex 9.6 0.10718 0
      vertex 9.50615 0.0608959 0.4
    endloop
  endfacet
  facet normal -0.980785 -0.19509 0
    outer loop
      vertex 0.0272589 0.592944 0
      vertex 0.0272589 0.592944 0.4
      vertex 0.00684357 0.695579 0
    endloop
  endfacet
  facet normal 0 -0 1
    outer loop
      vertex 0.00684357 0.695579 0.4
      vertex 9.89282 39.6 0.4
      vertex 0 0.799999 0.4
    endloop
  endfacet
  facet normal 0.659327 -0.751856 0
    outer loop
      vertex 9.68701 0.165317 0
      vertex 9.76569 0.234314 0.4
      vertex 9.68701 0.165317 0.4
    endloop
  endfacet
  facet normal 0.064984 0.997886 0
    outer loop
      vertex 9.30442 39.9932 0.4
      vertex 9.30442 39.9932 0
      vertex 9.2 40 0.4
    endloop
  endfacet
  facet normal 0.751973 0.659194 0
    outer loop
      vertex 9.83468 39.687 0.4
      vertex 9.83468 39.687 0
      vertex 9.76569 39.7657 0.4
    endloop
  endfacet
  facet normal -0.555318 0.831638 0
    outer loop
      vertex 0.4 39.8928 0.4
      vertex 0.4 39.8928 0
      vertex 0.31299 39.8347 0.4
    endloop
  endfacet
  facet normal 0 -0 -1
    outer loop
      vertex 0.799999 40 0
      vertex 9.6 39.8928 0
      vertex 0.695579 39.9932 0
    endloop
  endfacet
  facet normal -0.997859 -0.0653986 0
    outer loop
      vertex 0 0.799999 0
      vertex 0.00684357 0.695579 0.4
      vertex 0 0.799999 0.4
    endloop
  endfacet
  facet normal 0 0 -1
    outer loop
      vertex 9.40705 0.0272589 0
      vertex 9.6 39.8928 0
      vertex 9.50615 0.0608959 0
    endloop
  endfacet
  facet normal 0 -0 1
    outer loop
      vertex 9.68701 0.165317 0.4
      vertex 9.89282 39.6 0.4
      vertex 9.6 0.10718 0.4
    endloop
  endfacet
  facet normal 0.751873 -0.659308 0
    outer loop
      vertex 9.83468 0.31299 0
      vertex 9.76569 0.234314 0.4
      vertex 9.76569 0.234314 0
    endloop
  endfacet
  facet normal 0 -0 -1
    outer loop
      vertex 0.31299 39.8347 0
      vertex 9.6 39.8928 0
      vertex 0.234314 39.7657 0
    endloop
  endfacet
  facet normal 0 0 1
    outer loop
      vertex 9.99316 39.3044 0.4
      vertex 9.89282 39.6 0.4
      vertex 10 39.2 0.4
    endloop
  endfacet
  facet normal 0 0 -1
    outer loop
      vertex 0.0608959 0.493853 0
      vertex 9.6 39.8928 0
      vertex 0.10718 0.4 0
    endloop
  endfacet
  facet normal -0 -0 -1
    outer loop
      vertex 9.50615 39.9391 0
      vertex 9.6 39.8928 0
      vertex 9.40705 39.9727 0
    endloop
  endfacet
  facet normal 0 0 1
    outer loop
      vertex 0.0608959 39.5061 0.4
      vertex 9.89282 39.6 0.4
      vertex 0.10718 39.6 0.4
    endloop
  endfacet
  facet normal -0.831446 0.555606 0
    outer loop
      vertex 0.165317 39.687 0
      vertex 0.10718 39.6 0.4
      vertex 0.165317 39.687 0.4
    endloop
  endfacet
  facet normal 0 -0 1
    outer loop
      vertex 0.799999 0 0.4
      vertex 9.89282 39.6 0.4
      vertex 0.695579 0.00684357 0.4
    endloop
  endfacet
  facet normal 0 0 1
    outer loop
      vertex 9.2 40 0.4
      vertex 9.89282 39.6 0.4
      vertex 9.30442 39.9932 0.4
    endloop
  endfacet
  facet normal 0 -0 -1
    outer loop
      vertex 0.0608959 39.5061 0
      vertex 9.6 39.8928 0
      vertex 0.0272589 39.4071 0
    endloop
  endfacet
  facet normal 0 0 -1
    outer loop
      vertex 9.68701 0.165317 0
      vertex 9.6 39.8928 0
      vertex 9.76569 0.234314 0
    endloop
  endfacet
  facet normal -0.195868 0.98063 0
    outer loop
      vertex 0.592944 39.9727 0.4
      vertex 0.695579 39.9932 0
      vertex 0.592944 39.9727 0
    endloop
  endfacet
  facet normal 0 0 -1
    outer loop
      vertex 9.89282 39.6 0
      vertex 9.6 39.8928 0
      vertex 9.83468 39.687 0
    endloop
  endfacet
  facet normal 0 0 1
    outer loop
      vertex 0 39.2 0.4
      vertex 9.89282 39.6 0.4
      vertex 0.00684357 39.3044 0.4
    endloop
  endfacet
  facet normal 0 -0 1
    outer loop
      vertex 0.493853 0.0608959 0.4
      vertex 9.89282 39.6 0.4
      vertex 0.4 0.10718 0.4
    endloop
  endfacet
  facet normal -0.997858 0.0654111 0
    outer loop
      vertex 0 39.2 0
      vertex 0.00684357 39.3044 0.4
      vertex 0.00684357 39.3044 0
    endloop
  endfacet
  facet normal -0.896957 0.442118 0
    outer loop
      vertex 0.0608959 39.5061 0
      vertex 0.10718 39.6 0.4
      vertex 0.10718 39.6 0
    endloop
  endfacet
  facet normal -0.896869 -0.442296 0
    outer loop
      vertex 0.0608959 0.493853 0
      vertex 0.10718 0.4 0
      vertex 0.0608959 0.493853 0.4
    endloop
  endfacet
  facet normal -0.442296 -0.896869 -0
    outer loop
      vertex 0.493853 0.0608959 0.4
      vertex 0.4 0.10718 0.4
      vertex 0.493853 0.0608959 0
    endloop
  endfacet
  facet normal 0 -0 -1
    outer loop
      vertex 0.0272589 39.4071 0
      vertex 9.6 39.8928 0
      vertex 0.00684357 39.3044 0
    endloop
  endfacet
  facet normal -1 0 0
    outer loop
      vertex 0 39.2 0
      vertex 0 0.799999 0.4
      vertex 0 39.2 0.4
    endloop
  endfacet
  facet normal 0.980777 -0.195133 0
    outer loop
      vertex 9.97274 0.592944 0
      vertex 9.99316 0.695579 0.4
      vertex 9.97274 0.592944 0.4
    endloop
  endfacet
  facet normal -0.321124 0.947037 0
    outer loop
      vertex 0.493853 39.9391 0.4
      vertex 0.592944 39.9727 0
      vertex 0.493853 39.9391 0
    endloop
  endfacet
  facet normal 0.195877 0.980628 0
    outer loop
      vertex 9.30442 39.9932 0.4
      vertex 9.40705 39.9727 0.4
      vertex 9.30442 39.9932 0
    endloop
  endfacet
  facet normal -0.442418 0.896809 0
    outer loop
      vertex 0.493853 39.9391 0
      vertex 0.4 39.8928 0
      vertex 0.493853 39.9391 0.4
    endloop
  endfacet
  facet normal -0.831475 -0.555562 -0
    outer loop
      vertex 0.165317 0.31299 0.4
      vertex 0.10718 0.4 0
      vertex 0.165317 0.31299 0
    endloop
  endfacet
  facet normal 0.555318 0.831638 0
    outer loop
      vertex 9.68701 39.8347 0.4
      vertex 9.6 39.8928 0
      vertex 9.6 39.8928 0.4
    endloop
  endfacet
  facet normal 0.9808 0.195014 0
    outer loop
      vertex 9.97274 39.4071 0.4
      vertex 9.99316 39.3044 0
      vertex 9.97274 39.4071 0
    endloop
  endfacet
  facet normal -0.064984 0.997886 0
    outer loop
      vertex 0.799999 40 0.4
      vertex 0.695579 39.9932 0
      vertex 0.695579 39.9932 0.4
    endloop
  endfacet
  facet normal 0 0 1
    outer loop
      vertex 9.99316 0.695579 0.4
      vertex 9.89282 39.6 0.4
      vertex 9.97274 0.592944 0.4
    endloop
  endfacet
  facet normal 0 0 1
    outer loop
      vertex 9.97274 39.4071 0.4
      vertex 9.89282 39.6 0.4
      vertex 9.99316 39.3044 0.4
    endloop
  endfacet
  facet normal 0 -0 -1
    outer loop
      vertex 0.00684357 39.3044 0
      vertex 9.6 39.8928 0
      vertex 0 39.2 0
    endloop
  endfacet
  facet normal 0 0 -1
    outer loop
      vertex 9.9391 0.493853 0
      vertex 9.6 39.8928 0
      vertex 9.97274 0.592944 0
    endloop
  endfacet
  facet normal -0.555562 -0.831475 0
    outer loop
      vertex 0.4 0.10718 0
      vertex 0.4 0.10718 0.4
      vertex 0.31299 0.165317 0
    endloop
  endfacet
  facet normal -0.442296 -0.896869 0
    outer loop
      vertex 0.493853 0.0608959 0
      vertex 0.4 0.10718 0.4
      vertex 0.4 0.10718 0
    endloop
  endfacet
  facet normal 0 0 1
    outer loop
      vertex 9.68701 39.8347 0.4
      vertex 9.89282 39.6 0.4
      vertex 9.76569 39.7657 0.4
    endloop
  endfacet
  facet normal 0.659343 0.751842 -0
    outer loop
      vertex 9.76569 39.7657 0
      vertex 9.68701 39.8347 0
      vertex 9.76569 39.7657 0.4
    endloop
  endfacet
  facet normal -0.75184 -0.659346 0
    outer loop
      vertex 0.234314 0.234314 0
      vertex 0.234314 0.234314 0.4
      vertex 0.165317 0.31299 0
    endloop
  endfacet
  facet normal -0.659346 -0.75184 0
    outer loop
      vertex 0.31299 0.165317 0
      vertex 0.234314 0.234314 0.4
      vertex 0.234314 0.234314 0
    endloop
  endfacet
  facet normal -0.321124 0.947037 0
    outer loop
      vertex 0.592944 39.9727 0.4
      vertex 0.592944 39.9727 0
      vertex 0.493853 39.9391 0.4
    endloop
  endfacet
  facet normal 0.064984 0.997886 0
    outer loop
      vertex 9.2 40 0.4
      vertex 9.30442 39.9932 0
      vertex 9.2 40 0
    endloop
  endfacet
  facet normal -0.997859 -0.0653986 0
    outer loop
      vertex 0.00684357 0.695579 0
      vertex 0.00684357 0.695579 0.4
      vertex 0 0.799999 0
    endloop
  endfacet
  facet normal -0.980809 0.194971 0
    outer loop
      vertex 0.00684357 39.3044 0
      vertex 0.0272589 39.4071 0.4
      vertex 0.0272589 39.4071 0
    endloop
  endfacet
  facet normal 0 0 -1
    outer loop
      vertex 10 0.799999 0
      vertex 9.6 39.8928 0
      vertex 10 39.2 0
    endloop
  endfacet
  facet normal 0 0 -1
    outer loop
      vertex 9.97274 0.592944 0
      vertex 9.6 39.8928 0
      vertex 9.99316 0.695579 0
    endloop
  endfacet
  facet normal 0.555562 -0.831475 0
    outer loop
      vertex 9.68701 0.165317 0.4
      vertex 9.6 0.10718 0
      vertex 9.68701 0.165317 0
    endloop
  endfacet
  facet normal 0.555562 -0.831475 0
    outer loop
      vertex 9.6 0.10718 0.4
      vertex 9.6 0.10718 0
      vertex 9.68701 0.165317 0.4
    endloop
  endfacet
  facet normal 0.946921 -0.321466 0
    outer loop
      vertex 9.97274 0.592944 0
      vertex 9.97274 0.592944 0.4
      vertex 9.9391 0.493853 0
    endloop
  endfacet
  facet normal 0 0 1
    outer loop
      vertex 9.40705 39.9727 0.4
      vertex 9.89282 39.6 0.4
      vertex 9.50615 39.9391 0.4
    endloop
  endfacet
  facet normal 0 -0 -1
    outer loop
      vertex 0.165317 39.687 0
      vertex 9.6 39.8928 0
      vertex 0.10718 39.6 0
    endloop
  endfacet
  facet normal 0.997861 0.0653771 -0
    outer loop
      vertex 10 39.2 0
      vertex 9.99316 39.3044 0
      vertex 10 39.2 0.4
    endloop
  endfacet
  facet normal -0.896869 -0.442296 0
    outer loop
      vertex 0.0608959 0.493853 0.4
      vertex 0.10718 0.4 0
      vertex 0.10718 0.4 0.4
    endloop
  endfacet
  facet normal 0 0 -1
    outer loop
      vertex 0.493853 0.0608959 0
      vertex 9.6 39.8928 0
      vertex 0.592944 0.0272589 0
    endloop
  endfacet
  facet normal -0.980809 0.194971 0
    outer loop
      vertex 0.00684357 39.3044 0.4
      vertex 0.0272589 39.4071 0.4
      vertex 0.00684357 39.3044 0
    endloop
  endfacet
  facet normal -0.896957 0.442118 0
    outer loop
      vertex 0.0608959 39.5061 0.4
      vertex 0.10718 39.6 0.4
      vertex 0.0608959 39.5061 0
    endloop
  endfacet
  facet normal 0 0 -1
    outer loop
      vertex 9.83468 39.687 0
      vertex 9.6 39.8928 0
      vertex 9.76569 39.7657 0
    endloop
  endfacet
  facet normal 0 0 -1
    outer loop
      vertex 9.76569 0.234314 0
      vertex 9.6 39.8928 0
      vertex 9.83468 0.31299 0
    endloop
  endfacet
  facet normal -0 -0 -1
    outer loop
      vertex 9.30442 39.9932 0
      vertex 9.6 39.8928 0
      vertex 9.2 40 0
    endloop
  endfacet
  facet normal -0 0 1
    outer loop
      vertex 0.4 39.8928 0.4
      vertex 9.89282 39.6 0.4
      vertex 0.493853 39.9391 0.4
    endloop
  endfacet
  facet normal 0 0 -1
    outer loop
      vertex 9.6 0.10718 0
      vertex 9.6 39.8928 0
      vertex 9.68701 0.165317 0
    endloop
  endfacet
  facet normal 0 -0 1
    outer loop
      vertex 0.31299 0.165317 0.4
      vertex 9.89282 39.6 0.4
      vertex 0.234314 0.234314 0.4
    endloop
  endfacet
  facet normal 0.896885 -0.442264 0
    outer loop
      vertex 9.9391 0.493853 0.4
      vertex 9.89282 0.4 0
      vertex 9.9391 0.493853 0
    endloop
  endfacet
  facet normal 0.831462 -0.555582 0
    outer loop
      vertex 9.83468 0.31299 0.4
      vertex 9.89282 0.4 0
      vertex 9.89282 0.4 0.4
    endloop
  endfacet
  facet normal 0 -0 1
    outer loop
      vertex 0.4 0.10718 0.4
      vertex 9.89282 39.6 0.4
      vertex 0.31299 0.165317 0.4
    endloop
  endfacet
  facet normal 0 -0 1
    outer loop
      vertex 9.6 0.10718 0.4
      vertex 9.89282 39.6 0.4
      vertex 9.50615 0.0608959 0.4
    endloop
  endfacet
  facet normal 0 0 -1
    outer loop
      vertex 0.0272589 0.592944 0
      vertex 9.6 39.8928 0
      vertex 0.0608959 0.493853 0
    endloop
  endfacet
  facet normal 0 0 -1
    outer loop
      vertex 9.30442 0.00684357 0
      vertex 9.6 39.8928 0
      vertex 9.40705 0.0272589 0
    endloop
  endfacet
  facet normal 0.946831 0.321731 0
    outer loop
      vertex 9.9391 39.5061 0.4
      vertex 9.97274 39.4071 0
      vertex 9.9391 39.5061 0
    endloop
  endfacet
  facet normal 0 0 -1
    outer loop
      vertex 0.00684357 0.695579 0
      vertex 9.6 39.8928 0
      vertex 0.0272589 0.592944 0
    endloop
  endfacet
  facet normal -0 0 1
    outer loop
      vertex 0.799999 40 0.4
      vertex 9.89282 39.6 0.4
      vertex 9.2 40 0.4
    endloop
  endfacet
  facet normal -0.555562 -0.831475 0
    outer loop
      vertex 0.31299 0.165317 0
      vertex 0.4 0.10718 0.4
      vertex 0.31299 0.165317 0.4
    endloop
  endfacet
  facet normal 0 -0 1
    outer loop
      vertex 0.695579 0.00684357 0.4
      vertex 9.89282 39.6 0.4
      vertex 0.592944 0.0272589 0.4
    endloop
  endfacet
  facet normal -0.064984 0.997886 0
    outer loop
      vertex 0.799999 40 0
      vertex 0.695579 39.9932 0
      vertex 0.799999 40 0.4
    endloop
  endfacet
  facet normal 0 0 -1
    outer loop
      vertex 9.76569 39.7657 0
      vertex 9.6 39.8928 0
      vertex 9.68701 39.8347 0
    endloop
  endfacet
  facet normal 0 0 -1
    outer loop
      vertex 9.97274 39.4071 0
      vertex 9.6 39.8928 0
      vertex 9.9391 39.5061 0
    endloop
  endfacet
  facet normal 0 -0 1
    outer loop
      vertex 0.165317 0.31299 0.4
      vertex 9.89282 39.6 0.4
      vertex 0.10718 0.4 0.4
    endloop
  endfacet
  facet normal -0.94684 0.321706 0
    outer loop
      vertex 0.0272589 39.4071 0
      vertex 0.0272589 39.4071 0.4
      vertex 0.0608959 39.5061 0
    endloop
  endfacet
  facet normal 0 -0 1
    outer loop
      vertex 0.10718 0.4 0.4
      vertex 9.89282 39.6 0.4
      vertex 0.0608959 0.493853 0.4
    endloop
  endfacet
  facet normal 0 0 1
    outer loop
      vertex 0.00684357 39.3044 0.4
      vertex 9.89282 39.6 0.4
      vertex 0.0272589 39.4071 0.4
    endloop
  endfacet
  facet normal 0.751973 0.659194 0
    outer loop
      vertex 9.76569 39.7657 0.4
      vertex 9.83468 39.687 0
      vertex 9.76569 39.7657 0
    endloop
  endfacet
  facet normal 0 0 -1
    outer loop
      vertex 9.2 0 0
      vertex 9.6 39.8928 0
      vertex 9.30442 0.00684357 0
    endloop
  endfacet
  facet normal 0 -0 1
    outer loop
      vertex 0.0608959 0.493853 0.4
      vertex 9.89282 39.6 0.4
      vertex 0.0272589 0.592944 0.4
    endloop
  endfacet
  facet normal -0.94693 -0.321441 -0
    outer loop
      vertex 0.0608959 0.493853 0.4
      vertex 0.0272589 0.592944 0.4
      vertex 0.0608959 0.493853 0
    endloop
  endfacet
  facet normal -0.555318 0.831638 0
    outer loop
      vertex 0.31299 39.8347 0.4
      vertex 0.4 39.8928 0
      vertex 0.31299 39.8347 0
    endloop
  endfacet
  facet normal 0.555318 0.831638 -0
    outer loop
      vertex 9.68701 39.8347 0
      vertex 9.6 39.8928 0
      vertex 9.68701 39.8347 0.4
    endloop
  endfacet
  facet normal 0.442429 0.896803 0
    outer loop
      vertex 9.50615 39.9391 0.4
      vertex 9.6 39.8928 0
      vertex 9.50615 39.9391 0
    endloop
  endfacet
  facet normal -0 -0 -1
    outer loop
      vertex 9.2 40 0
      vertex 9.6 39.8928 0
      vertex 0.799999 40 0
    endloop
  endfacet
  facet normal 0 0 -1
    outer loop
      vertex 0.10718 0.4 0
      vertex 9.6 39.8928 0
      vertex 0.165317 0.31299 0
    endloop
  endfacet
  facet normal 0 0 -1
    outer loop
      vertex 0.165317 0.31299 0
      vertex 9.6 39.8928 0
      vertex 0.234314 0.234314 0
    endloop
  endfacet
  facet normal 0 0 1
    outer loop
      vertex 10 39.2 0.4
      vertex 9.89282 39.6 0.4
      vertex 10 0.799999 0.4
    endloop
  endfacet
  facet normal 0 -0 1
    outer loop
      vertex 0.234314 0.234314 0.4
      vertex 9.89282 39.6 0.4
      vertex 0.165317 0.31299 0.4
    endloop
  endfacet
  facet normal -0 -0 -1
    outer loop
      vertex 9.40705 39.9727 0
      vertex 9.6 39.8928 0
      vertex 9.30442 39.9932 0
    endloop
  endfacet
  facet normal 0 -0 -1
    outer loop
      vertex 0.695579 39.9932 0
      vertex 9.6 39.8928 0
      vertex 0.592944 39.9727 0
    endloop
  endfacet
  facet normal 0 0 1
    outer loop
      vertex 0.10718 39.6 0.4
      vertex 9.89282 39.6 0.4
      vertex 0.165317 39.687 0.4
    endloop
  endfacet
  facet normal 0 -0 -1
    outer loop
      vertex 0.592944 39.9727 0
      vertex 9.6 39.8928 0
      vertex 0.493853 39.9391 0
    endloop
  endfacet
  facet normal 0.321097 0.947046 0
    outer loop
      vertex 9.40705 39.9727 0
      vertex 9.50615 39.9391 0.4
      vertex 9.50615 39.9391 0
    endloop
  endfacet
  facet normal 0.997861 -0.0653646 0
    outer loop
      vertex 10 0.799999 0.4
      vertex 9.99316 0.695579 0.4
      vertex 10 0.799999 0
    endloop
  endfacet
  facet normal -0.659362 0.751826 0
    outer loop
      vertex 0.31299 39.8347 0
      vertex 0.234314 39.7657 0.4
      vertex 0.31299 39.8347 0.4
    endloop
  endfacet
  facet normal -0.659362 0.751826 0
    outer loop
      vertex 0.234314 39.7657 0
      vertex 0.234314 39.7657 0.4
      vertex 0.31299 39.8347 0
    endloop
  endfacet
  facet normal 0 0 1
    outer loop
      vertex 9.97274 0.592944 0.4
      vertex 9.89282 39.6 0.4
      vertex 9.9391 0.493853 0.4
    endloop
  endfacet
  facet normal 0 0 1
    outer loop
      vertex 10 0.799999 0.4
      vertex 9.89282 39.6 0.4
      vertex 9.99316 0.695579 0.4
    endloop
  endfacet
  facet normal -0.751939 0.659232 0
    outer loop
      vertex 0.165317 39.687 0
      vertex 0.234314 39.7657 0.4
      vertex 0.234314 39.7657 0
    endloop
  endfacet
  facet normal -0.751939 0.659232 0
    outer loop
      vertex 0.165317 39.687 0.4
      vertex 0.234314 39.7657 0.4
      vertex 0.165317 39.687 0
    endloop
  endfacet
  facet normal 0.831432 0.555626 0
    outer loop
      vertex 9.83468 39.687 0.4
      vertex 9.89282 39.6 0.4
      vertex 9.83468 39.687 0
    endloop
  endfacet
  facet normal 0.831432 0.555626 0
    outer loop
      vertex 9.83468 39.687 0
      vertex 9.89282 39.6 0.4
      vertex 9.89282 39.6 0
    endloop
  endfacet
  facet normal 0.997861 -0.0653646 0
    outer loop
      vertex 10 0.799999 0
      vertex 9.99316 0.695579 0.4
      vertex 9.99316 0.695579 0
    endloop
  endfacet
  facet normal 0.980777 -0.195133 0
    outer loop
      vertex 9.99316 0.695579 0
      vertex 9.99316 0.695579 0.4
      vertex 9.97274 0.592944 0
    endloop
  endfacet
  facet normal 0.997861 0.0653771 0
    outer loop
      vertex 10 39.2 0.4
      vertex 9.99316 39.3044 0
      vertex 9.99316 39.3044 0.4
    endloop
  endfacet
  facet normal 0.9808 0.195014 0
    outer loop
      vertex 9.99316 39.3044 0.4
      vertex 9.99316 39.3044 0
      vertex 9.97274 39.4071 0.4
    endloop
  endfacet
  facet normal 0 0 -1
    outer loop
      vertex 0 39.2 0
      vertex 9.6 39.8928 0
      vertex 0 0.799999 0
    endloop
  endfacet
  facet normal 0 0 -1
    outer loop
      vertex 0 0.799999 0
      vertex 9.6 39.8928 0
      vertex 0.00684357 0.695579 0
    endloop
  endfacet
  facet normal 0 0 1
    outer loop
      vertex 9.9391 0.493853 0.4
      vertex 9.89282 39.6 0.4
      vertex 9.89282 0.4 0.4
    endloop
  endfacet
  facet normal 0 -0 1
    outer loop
      vertex 9.83468 0.31299 0.4
      vertex 9.89282 39.6 0.4
      vertex 9.76569 0.234314 0.4
    endloop
  endfacet
  facet normal -0 0 1
    outer loop
      vertex 0.493853 39.9391 0.4
      vertex 9.89282 39.6 0.4
      vertex 0.592944 39.9727 0.4
    endloop
  endfacet
  facet normal -0 0 1
    outer loop
      vertex 0.592944 39.9727 0.4
      vertex 9.89282 39.6 0.4
      vertex 0.695579 39.9932 0.4
    endloop
  endfacet
  facet normal 0 -0 1
    outer loop
      vertex 9.50615 0.0608959 0.4
      vertex 9.89282 39.6 0.4
      vertex 9.40705 0.0272589 0.4
    endloop
  endfacet
  facet normal 0 -0 1
    outer loop
      vertex 9.40705 0.0272589 0.4
      vertex 9.89282 39.6 0.4
      vertex 9.30442 0.00684357 0.4
    endloop
  endfacet
  facet normal 0 0 1
    outer loop
      vertex 9.50615 39.9391 0.4
      vertex 9.89282 39.6 0.4
      vertex 9.6 39.8928 0.4
    endloop
  endfacet
  facet normal 0 0 1
    outer loop
      vertex 9.6 39.8928 0.4
      vertex 9.89282 39.6 0.4
      vertex 9.68701 39.8347 0.4
    endloop
  endfacet
  facet normal 0 0 -1
    outer loop
      vertex 0.695579 0.00684357 0
      vertex 9.6 39.8928 0
      vertex 0.799999 0 0
    endloop
  endfacet
  facet normal 0 0 -1
    outer loop
      vertex 0.799999 0 0
      vertex 9.6 39.8928 0
      vertex 9.2 0 0
    endloop
  endfacet
  facet normal 0 -0 -1
    outer loop
      vertex 0.234314 39.7657 0
      vertex 9.6 39.8928 0
      vertex 0.165317 39.687 0
    endloop
  endfacet
  facet normal 0 -0 -1
    outer loop
      vertex 0.10718 39.6 0
      vertex 9.6 39.8928 0
      vertex 0.0608959 39.5061 0
    endloop
  endfacet
  facet normal 0 0 -1
    outer loop
      vertex 9.83468 0.31299 0
      vertex 9.6 39.8928 0
      vertex 9.89282 0.4 0
    endloop
  endfacet
  facet normal 0 0 -1
    outer loop
      vertex 9.89282 0.4 0
      vertex 9.6 39.8928 0
      vertex 9.9391 0.493853 0
    endloop
  endfacet
  facet normal 0 0 -1
    outer loop
      vertex 0.4 0.10718 0
      vertex 9.6 39.8928 0
      vertex 0.493853 0.0608959 0
    endloop
  endfacet
  facet normal 0 0 -1
    outer loop
      vertex 0.31299 0.165317 0
      vertex 9.6 39.8928 0
      vertex 0.4 0.10718 0
    endloop
  endfacet
  facet normal -0 0 1
    outer loop
      vertex 0.234314 39.7657 0.4
      vertex 9.89282 39.6 0.4
      vertex 0.31299 39.8347 0.4
    endloop
  endfacet
  facet normal -0 0 1
    outer loop
      vertex 0.165317 39.687 0.4
      vertex 9.89282 39.6 0.4
      vertex 0.234314 39.7657 0.4
    endloop
  endfacet
endsolid OpenSCAD_Model
