solid OpenSCAD_Model
  facet normal -0.946929 -0.321442 0
    outer loop
      vertex 0.0761204 0.617316 0
      vertex 0.0340738 0.74118 2
      vertex 0.0340738 0.74118 0
    endloop
  endfacet
  facet normal -0.946929 -0.321442 0
    outer loop
      vertex 0.0340738 0.74118 2
      vertex 0.0761204 0.617316 0
      vertex 0.0761204 0.617316 2
    endloop
  endfacet
  facet normal -0.896873 -0.442287 0
    outer loop
      vertex 0.133974 0.5 0
      vertex 0.0761204 0.617316 2
      vertex 0.0761204 0.617316 0
    endloop
  endfacet
  facet normal -0.896873 -0.442287 0
    outer loop
      vertex 0.0761204 0.617316 2
      vertex 0.133974 0.5 0
      vertex 0.133974 0.5 2
    endloop
  endfacet
  facet normal -0.980785 -0.195092 0
    outer loop
      vertex 0.0340738 0.74118 0
      vertex 0.00855446 0.869473 2
      vertex 0.00855446 0.869473 0
    endloop
  endfacet
  facet normal -0.980785 -0.195092 0
    outer loop
      vertex 0.00855446 0.869473 2
      vertex 0.0340738 0.74118 0
      vertex 0.0340738 0.74118 2
    endloop
  endfacet
  facet normal -0.0657442 0.997837 0
    outer loop
      vertex 1 30 0
      vertex 0.869473 29.9914 2
      vertex 1 30 2
    endloop
  endfacet
  facet normal -0.0657442 0.997837 0
    outer loop
      vertex 0.869473 29.9914 2
      vertex 1 30 0
      vertex 0.869473 29.9914 0
    endloop
  endfacet
  facet normal 0.065411 -0.997858 0
    outer loop
      vertex 11 0 0
      vertex 11.1305 0.00855446 2
      vertex 11 0 2
    endloop
  endfacet
  facet normal 0.065411 -0.997858 0
    outer loop
      vertex 11.1305 0.00855446 2
      vertex 11 0 0
      vertex 11.1305 0.00855446 0
    endloop
  endfacet
  facet normal 0.19494 0.980815 -0
    outer loop
      vertex 11.2588 29.9659 0
      vertex 11.1305 29.9914 2
      vertex 11.2588 29.9659 2
    endloop
  endfacet
  facet normal 0.19494 0.980815 0
    outer loop
      vertex 11.1305 29.9914 2
      vertex 11.2588 29.9659 0
      vertex 11.1305 29.9914 0
    endloop
  endfacet
  facet normal 1 -0 0
    outer loop
      vertex 12 1 2
      vertex 12 29 0
      vertex 12 29 2
    endloop
  endfacet
  facet normal 1 0 0
    outer loop
      vertex 12 29 0
      vertex 12 1 2
      vertex 12 1 0
    endloop
  endfacet
  facet normal -1 0 0
    outer loop
      vertex 0 1 0
      vertex 0 29 2
      vertex 0 29 0
    endloop
  endfacet
  facet normal -1 -0 0
    outer loop
      vertex 0 29 2
      vertex 0 1 0
      vertex 0 1 2
    endloop
  endfacet
  facet normal -0.321123 0.947038 0
    outer loop
      vertex 0.74118 29.9659 0
      vertex 0.617316 29.9239 2
      vertex 0.74118 29.9659 2
    endloop
  endfacet
  facet normal -0.321123 0.947038 0
    outer loop
      vertex 0.617316 29.9239 2
      vertex 0.74118 29.9659 0
      vertex 0.617316 29.9239 0
    endloop
  endfacet
  facet normal 0.442336 -0.89685 0
    outer loop
      vertex 11.3827 0.0761204 0
      vertex 11.5 0.133974 2
      vertex 11.3827 0.0761204 2
    endloop
  endfacet
  facet normal 0.442336 -0.89685 0
    outer loop
      vertex 11.5 0.133974 2
      vertex 11.3827 0.0761204 0
      vertex 11.5 0.133974 0
    endloop
  endfacet
  facet normal 0.0657577 0.997836 -0
    outer loop
      vertex 11.1305 29.9914 0
      vertex 11 30 2
      vertex 11.1305 29.9914 2
    endloop
  endfacet
  facet normal 0.0657577 0.997836 0
    outer loop
      vertex 11 30 2
      vertex 11.1305 29.9914 0
      vertex 11 30 0
    endloop
  endfacet
  facet normal 0.659515 -0.751691 0
    outer loop
      vertex 11.6088 0.206646 0
      vertex 11.7071 0.292892 2
      vertex 11.6088 0.206646 2
    endloop
  endfacet
  facet normal 0.659515 -0.751691 0
    outer loop
      vertex 11.7071 0.292892 2
      vertex 11.6088 0.206646 0
      vertex 11.7071 0.292892 0
    endloop
  endfacet
  facet normal -0.0653976 -0.997859 0
    outer loop
      vertex 0.869473 0.00855446 0
      vertex 1 0 2
      vertex 0.869473 0.00855446 2
    endloop
  endfacet
  facet normal -0.0653976 -0.997859 -0
    outer loop
      vertex 1 0 2
      vertex 0.869473 0.00855446 0
      vertex 1 0 0
    endloop
  endfacet
  facet normal 0.980815 0.19494 0
    outer loop
      vertex 11.9914 29.1305 2
      vertex 11.9659 29.2588 0
      vertex 11.9659 29.2588 2
    endloop
  endfacet
  facet normal 0.980815 0.19494 0
    outer loop
      vertex 11.9659 29.2588 0
      vertex 11.9914 29.1305 2
      vertex 11.9914 29.1305 0
    endloop
  endfacet
  facet normal 0 1 -0
    outer loop
      vertex 11 30 0
      vertex 1 30 2
      vertex 11 30 2
    endloop
  endfacet
  facet normal 0 1 0
    outer loop
      vertex 1 30 2
      vertex 11 30 0
      vertex 1 30 0
    endloop
  endfacet
  facet normal 0.947066 0.321039 0
    outer loop
      vertex 11.9659 29.2588 2
      vertex 11.9239 29.3827 0
      vertex 11.9239 29.3827 2
    endloop
  endfacet
  facet normal 0.947066 0.321039 0
    outer loop
      vertex 11.9239 29.3827 0
      vertex 11.9659 29.2588 2
      vertex 11.9659 29.2588 0
    endloop
  endfacet
  facet normal 0.997836 0.0657577 0
    outer loop
      vertex 12 29 2
      vertex 11.9914 29.1305 0
      vertex 11.9914 29.1305 2
    endloop
  endfacet
  facet normal 0.997836 0.0657577 0
    outer loop
      vertex 11.9914 29.1305 0
      vertex 12 29 2
      vertex 12 29 0
    endloop
  endfacet
  facet normal -0.997859 -0.0653976 0
    outer loop
      vertex 0.00855446 0.869473 0
      vertex 0 1 2
      vertex 0 1 0
    endloop
  endfacet
  facet normal -0.997859 -0.0653976 0
    outer loop
      vertex 0 1 2
      vertex 0.00855446 0.869473 0
      vertex 0.00855446 0.869473 2
    endloop
  endfacet
  facet normal -0.751691 0.659515 0
    outer loop
      vertex 0.206646 29.6088 0
      vertex 0.292892 29.7071 2
      vertex 0.292892 29.7071 0
    endloop
  endfacet
  facet normal -0.751691 0.659515 0
    outer loop
      vertex 0.292892 29.7071 2
      vertex 0.206646 29.6088 0
      vertex 0.206646 29.6088 2
    endloop
  endfacet
  facet normal 0 -1 0
    outer loop
      vertex 1 0 0
      vertex 11 0 2
      vertex 1 0 2
    endloop
  endfacet
  facet normal 0 -1 -0
    outer loop
      vertex 11 0 2
      vertex 1 0 0
      vertex 11 0 0
    endloop
  endfacet
  facet normal 0.321039 0.947066 -0
    outer loop
      vertex 11.3827 29.9239 0
      vertex 11.2588 29.9659 2
      vertex 11.3827 29.9239 2
    endloop
  endfacet
  facet normal 0.321039 0.947066 0
    outer loop
      vertex 11.2588 29.9659 2
      vertex 11.3827 29.9239 0
      vertex 11.2588 29.9659 0
    endloop
  endfacet
  facet normal 0.831815 0.555053 0
    outer loop
      vertex 11.866 29.5 2
      vertex 11.7934 29.6088 0
      vertex 11.7934 29.6088 2
    endloop
  endfacet
  facet normal 0.831815 0.555053 0
    outer loop
      vertex 11.7934 29.6088 0
      vertex 11.866 29.5 2
      vertex 11.866 29.5 0
    endloop
  endfacet
  facet normal 0.751486 0.659749 0
    outer loop
      vertex 11.7934 29.6088 2
      vertex 11.7071 29.7071 0
      vertex 11.7071 29.7071 2
    endloop
  endfacet
  facet normal 0.751486 0.659749 0
    outer loop
      vertex 11.7071 29.7071 0
      vertex 11.7934 29.6088 2
      vertex 11.7934 29.6088 0
    endloop
  endfacet
  facet normal 0.980813 -0.19495 0
    outer loop
      vertex 11.9659 0.74118 2
      vertex 11.9914 0.869473 0
      vertex 11.9914 0.869473 2
    endloop
  endfacet
  facet normal 0.980813 -0.19495 0
    outer loop
      vertex 11.9914 0.869473 0
      vertex 11.9659 0.74118 2
      vertex 11.9659 0.74118 0
    endloop
  endfacet
  facet normal 0.947038 -0.321123 0
    outer loop
      vertex 11.9239 0.617316 2
      vertex 11.9659 0.74118 0
      vertex 11.9659 0.74118 2
    endloop
  endfacet
  facet normal 0.947038 -0.321123 0
    outer loop
      vertex 11.9659 0.74118 0
      vertex 11.9239 0.617316 2
      vertex 11.9239 0.617316 0
    endloop
  endfacet
  facet normal 0.555053 0.831815 -0
    outer loop
      vertex 11.6088 29.7934 0
      vertex 11.5 29.866 2
      vertex 11.6088 29.7934 2
    endloop
  endfacet
  facet normal 0.555053 0.831815 0
    outer loop
      vertex 11.5 29.866 2
      vertex 11.6088 29.7934 0
      vertex 11.5 29.866 0
    endloop
  endfacet
  facet normal -0.555187 0.831725 0
    outer loop
      vertex 0.5 29.866 0
      vertex 0.391238 29.7934 2
      vertex 0.5 29.866 2
    endloop
  endfacet
  facet normal -0.555187 0.831725 0
    outer loop
      vertex 0.391238 29.7934 2
      vertex 0.5 29.866 0
      vertex 0.391238 29.7934 0
    endloop
  endfacet
  facet normal -0.831471 -0.555568 0
    outer loop
      vertex 0.206646 0.391238 0
      vertex 0.133974 0.5 2
      vertex 0.133974 0.5 0
    endloop
  endfacet
  facet normal -0.831471 -0.555568 0
    outer loop
      vertex 0.133974 0.5 2
      vertex 0.206646 0.391238 0
      vertex 0.206646 0.391238 2
    endloop
  endfacet
  facet normal -0.751844 -0.659341 0
    outer loop
      vertex 0.292892 0.292892 0
      vertex 0.206646 0.391238 2
      vertex 0.206646 0.391238 0
    endloop
  endfacet
  facet normal -0.751844 -0.659341 0
    outer loop
      vertex 0.206646 0.391238 2
      vertex 0.292892 0.292892 0
      vertex 0.292892 0.292892 2
    endloop
  endfacet
  facet normal 0.659749 0.751486 -0
    outer loop
      vertex 11.7071 29.7071 0
      vertex 11.6088 29.7934 2
      vertex 11.7071 29.7071 2
    endloop
  endfacet
  facet normal 0.659749 0.751486 0
    outer loop
      vertex 11.6088 29.7934 2
      vertex 11.7071 29.7071 0
      vertex 11.6088 29.7934 0
    endloop
  endfacet
  facet normal -0.659574 0.751639 0
    outer loop
      vertex 0.391238 29.7934 0
      vertex 0.292892 29.7071 2
      vertex 0.391238 29.7934 2
    endloop
  endfacet
  facet normal -0.659574 0.751639 0
    outer loop
      vertex 0.292892 29.7071 2
      vertex 0.391238 29.7934 0
      vertex 0.292892 29.7071 0
    endloop
  endfacet
  facet normal 0.896709 0.442621 0
    outer loop
      vertex 11.9239 29.3827 2
      vertex 11.866 29.5 0
      vertex 11.866 29.5 2
    endloop
  endfacet
  facet normal 0.896709 0.442621 0
    outer loop
      vertex 11.866 29.5 0
      vertex 11.9239 29.3827 2
      vertex 11.9239 29.3827 0
    endloop
  endfacet
  facet normal -0.659341 -0.751844 0
    outer loop
      vertex 0.292892 0.292892 0
      vertex 0.391238 0.206646 2
      vertex 0.292892 0.292892 2
    endloop
  endfacet
  facet normal -0.659341 -0.751844 -0
    outer loop
      vertex 0.391238 0.206646 2
      vertex 0.292892 0.292892 0
      vertex 0.391238 0.206646 0
    endloop
  endfacet
  facet normal -0.89685 0.442336 0
    outer loop
      vertex 0.0761204 29.3827 0
      vertex 0.133974 29.5 2
      vertex 0.133974 29.5 0
    endloop
  endfacet
  facet normal -0.89685 0.442336 0
    outer loop
      vertex 0.133974 29.5 2
      vertex 0.0761204 29.3827 0
      vertex 0.0761204 29.3827 2
    endloop
  endfacet
  facet normal 0.195082 -0.980787 0
    outer loop
      vertex 11.1305 0.00855446 0
      vertex 11.2588 0.0340738 2
      vertex 11.1305 0.00855446 2
    endloop
  endfacet
  facet normal 0.195082 -0.980787 0
    outer loop
      vertex 11.2588 0.0340738 2
      vertex 11.1305 0.00855446 0
      vertex 11.2588 0.0340738 0
    endloop
  endfacet
  facet normal -0.19495 0.980813 0
    outer loop
      vertex 0.869473 29.9914 0
      vertex 0.74118 29.9659 2
      vertex 0.869473 29.9914 2
    endloop
  endfacet
  facet normal -0.19495 0.980813 0
    outer loop
      vertex 0.74118 29.9659 2
      vertex 0.869473 29.9914 0
      vertex 0.74118 29.9659 0
    endloop
  endfacet
  facet normal -0.442287 -0.896873 0
    outer loop
      vertex 0.5 0.133974 0
      vertex 0.617316 0.0761204 2
      vertex 0.5 0.133974 2
    endloop
  endfacet
  facet normal -0.442287 -0.896873 -0
    outer loop
      vertex 0.617316 0.0761204 2
      vertex 0.5 0.133974 0
      vertex 0.617316 0.0761204 0
    endloop
  endfacet
  facet normal -0.195092 -0.980785 0
    outer loop
      vertex 0.74118 0.0340738 0
      vertex 0.869473 0.00855446 2
      vertex 0.74118 0.0340738 2
    endloop
  endfacet
  facet normal -0.195092 -0.980785 -0
    outer loop
      vertex 0.869473 0.00855446 2
      vertex 0.74118 0.0340738 0
      vertex 0.869473 0.00855446 0
    endloop
  endfacet
  facet normal -0.321442 -0.946929 0
    outer loop
      vertex 0.617316 0.0761204 0
      vertex 0.74118 0.0340738 2
      vertex 0.617316 0.0761204 2
    endloop
  endfacet
  facet normal -0.321442 -0.946929 -0
    outer loop
      vertex 0.74118 0.0340738 2
      vertex 0.617316 0.0761204 0
      vertex 0.74118 0.0340738 0
    endloop
  endfacet
  facet normal 0.751639 -0.659574 0
    outer loop
      vertex 11.7071 0.292892 2
      vertex 11.7934 0.391238 0
      vertex 11.7934 0.391238 2
    endloop
  endfacet
  facet normal 0.751639 -0.659574 0
    outer loop
      vertex 11.7934 0.391238 0
      vertex 11.7071 0.292892 2
      vertex 11.7071 0.292892 0
    endloop
  endfacet
  facet normal 0.896733 -0.442572 0
    outer loop
      vertex 11.866 0.5 2
      vertex 11.9239 0.617316 0
      vertex 11.9239 0.617316 2
    endloop
  endfacet
  facet normal 0.896733 -0.442572 0
    outer loop
      vertex 11.9239 0.617316 0
      vertex 11.866 0.5 2
      vertex 11.866 0.5 0
    endloop
  endfacet
  facet normal 0.997837 -0.0657442 0
    outer loop
      vertex 11.9914 0.869473 2
      vertex 12 1 0
      vertex 12 1 2
    endloop
  endfacet
  facet normal 0.997837 -0.0657442 0
    outer loop
      vertex 12 1 0
      vertex 11.9914 0.869473 2
      vertex 11.9914 0.869473 0
    endloop
  endfacet
  facet normal -0.997858 0.065411 0
    outer loop
      vertex 0 29 0
      vertex 0.00855446 29.1305 2
      vertex 0.00855446 29.1305 0
    endloop
  endfacet
  facet normal -0.997858 0.065411 0
    outer loop
      vertex 0.00855446 29.1305 2
      vertex 0 29 0
      vertex 0 29 2
    endloop
  endfacet
  facet normal -0.555568 -0.831471 0
    outer loop
      vertex 0.391238 0.206646 0
      vertex 0.5 0.133974 2
      vertex 0.391238 0.206646 2
    endloop
  endfacet
  facet normal -0.555568 -0.831471 -0
    outer loop
      vertex 0.5 0.133974 2
      vertex 0.391238 0.206646 0
      vertex 0.5 0.133974 0
    endloop
  endfacet
  facet normal 0.442621 0.896709 -0
    outer loop
      vertex 11.5 29.866 0
      vertex 11.3827 29.9239 2
      vertex 11.5 29.866 2
    endloop
  endfacet
  facet normal 0.442621 0.896709 0
    outer loop
      vertex 11.3827 29.9239 2
      vertex 11.5 29.866 0
      vertex 11.3827 29.9239 0
    endloop
  endfacet
  facet normal 0.555434 -0.831561 0
    outer loop
      vertex 11.5 0.133974 0
      vertex 11.6088 0.206646 2
      vertex 11.5 0.133974 2
    endloop
  endfacet
  facet normal 0.555434 -0.831561 0
    outer loop
      vertex 11.6088 0.206646 2
      vertex 11.5 0.133974 0
      vertex 11.6088 0.206646 0
    endloop
  endfacet
  facet normal 0.321359 -0.946958 0
    outer loop
      vertex 11.2588 0.0340738 0
      vertex 11.3827 0.0761204 2
      vertex 11.2588 0.0340738 2
    endloop
  endfacet
  facet normal 0.321359 -0.946958 0
    outer loop
      vertex 11.3827 0.0761204 2
      vertex 11.2588 0.0340738 0
      vertex 11.3827 0.0761204 0
    endloop
  endfacet
  facet normal -0.946958 0.321359 0
    outer loop
      vertex 0.0340738 29.2588 0
      vertex 0.0761204 29.3827 2
      vertex 0.0761204 29.3827 0
    endloop
  endfacet
  facet normal -0.946958 0.321359 0
    outer loop
      vertex 0.0761204 29.3827 2
      vertex 0.0340738 29.2588 0
      vertex 0.0340738 29.2588 2
    endloop
  endfacet
  facet normal -0.980787 0.195082 0
    outer loop
      vertex 0.00855446 29.1305 0
      vertex 0.0340738 29.2588 2
      vertex 0.0340738 29.2588 0
    endloop
  endfacet
  facet normal -0.980787 0.195082 0
    outer loop
      vertex 0.0340738 29.2588 2
      vertex 0.00855446 29.1305 0
      vertex 0.00855446 29.1305 2
    endloop
  endfacet
  facet normal 0 0 -1
    outer loop
      vertex 11 0 0
      vertex 12 1 0
      vertex 11.9914 0.869473 0
    endloop
  endfacet
  facet normal 0 0 -1
    outer loop
      vertex 12 1 0
      vertex 7.42894 23.175 0
      vertex 12 29 0
    endloop
  endfacet
  facet normal 0 0 -1
    outer loop
      vertex 11 0 0
      vertex 11.9914 0.869473 0
      vertex 11.9659 0.74118 0
    endloop
  endfacet
  facet normal 0 -0 -1
    outer loop
      vertex 7.59378 23.5729 0
      vertex 12 29 0
      vertex 7.5244 23.3686 0
    endloop
  endfacet
  facet normal 0 0 -1
    outer loop
      vertex 11 0 0
      vertex 11.9659 0.74118 0
      vertex 11.9239 0.617316 0
    endloop
  endfacet
  facet normal 0 -0 -1
    outer loop
      vertex 7.63588 23.7846 0
      vertex 12 29 0
      vertex 7.59378 23.5729 0
    endloop
  endfacet
  facet normal 0 0 -1
    outer loop
      vertex 11 0 0
      vertex 11.9239 0.617316 0
      vertex 11.866 0.5 0
    endloop
  endfacet
  facet normal 0 -0 -1
    outer loop
      vertex 7.65 24 0
      vertex 12 29 0
      vertex 7.63588 23.7846 0
    endloop
  endfacet
  facet normal 0 0 -1
    outer loop
      vertex 11 0 0
      vertex 11.866 0.5 0
      vertex 11.7934 0.391238 0
    endloop
  endfacet
  facet normal 0 0 -1
    outer loop
      vertex 7.63588 24.2154 0
      vertex 12 29 0
      vertex 7.65 24 0
    endloop
  endfacet
  facet normal 0 0 -1
    outer loop
      vertex 11 0 0
      vertex 11.7934 0.391238 0
      vertex 11.7071 0.292892 0
    endloop
  endfacet
  facet normal 0 0 -1
    outer loop
      vertex 7.59378 24.4271 0
      vertex 12 29 0
      vertex 7.63588 24.2154 0
    endloop
  endfacet
  facet normal 0 0 -1
    outer loop
      vertex 11 0 0
      vertex 11.7071 0.292892 0
      vertex 11.6088 0.206646 0
    endloop
  endfacet
  facet normal 0 0 -1
    outer loop
      vertex 7.5244 24.6314 0
      vertex 12 29 0
      vertex 7.59378 24.4271 0
    endloop
  endfacet
  facet normal 0 0 -1
    outer loop
      vertex 11 0 0
      vertex 11.6088 0.206646 0
      vertex 11.5 0.133974 0
    endloop
  endfacet
  facet normal 0 0 -1
    outer loop
      vertex 7.42894 24.825 0
      vertex 12 29 0
      vertex 7.5244 24.6314 0
    endloop
  endfacet
  facet normal 0 0 -1
    outer loop
      vertex 11 0 0
      vertex 11.5 0.133974 0
      vertex 11.3827 0.0761204 0
    endloop
  endfacet
  facet normal 0 0 -1
    outer loop
      vertex 7.30903 25.0045 0
      vertex 12 29 0
      vertex 7.42894 24.825 0
    endloop
  endfacet
  facet normal 0 0 -1
    outer loop
      vertex 11 0 0
      vertex 11.3827 0.0761204 0
      vertex 11.2588 0.0340738 0
    endloop
  endfacet
  facet normal 0 0 -1
    outer loop
      vertex 7.16673 25.1667 0
      vertex 12 29 0
      vertex 7.30903 25.0045 0
    endloop
  endfacet
  facet normal 0 0 -1
    outer loop
      vertex 11 0 0
      vertex 11.2588 0.0340738 0
      vertex 11.1305 0.00855446 0
    endloop
  endfacet
  facet normal 0 -0 -1
    outer loop
      vertex 11 30 0
      vertex 12 29 0
      vertex 7.16673 25.1667 0
    endloop
  endfacet
  facet normal -0 0 -1
    outer loop
      vertex 12 1 0
      vertex 11 0 0
      vertex 0 1 0
    endloop
  endfacet
  facet normal 0 0 -1
    outer loop
      vertex 11.9914 29.1305 0
      vertex 11 30 0
      vertex 11.9659 29.2588 0
    endloop
  endfacet
  facet normal 0 0 -1
    outer loop
      vertex 11.9659 29.2588 0
      vertex 11 30 0
      vertex 11.9239 29.3827 0
    endloop
  endfacet
  facet normal 0 0 -1
    outer loop
      vertex 11.7071 29.7071 0
      vertex 11 30 0
      vertex 11.6088 29.7934 0
    endloop
  endfacet
  facet normal 0 0 -1
    outer loop
      vertex 11.866 29.5 0
      vertex 11 30 0
      vertex 11.7934 29.6088 0
    endloop
  endfacet
  facet normal 0 0 -1
    outer loop
      vertex 11.9239 29.3827 0
      vertex 11 30 0
      vertex 11.866 29.5 0
    endloop
  endfacet
  facet normal 0 0 -1
    outer loop
      vertex 12 29 0
      vertex 7.42894 23.175 0
      vertex 7.5244 23.3686 0
    endloop
  endfacet
  facet normal 0 0 -1
    outer loop
      vertex 12 1 0
      vertex 7.30903 22.9955 0
      vertex 7.42894 23.175 0
    endloop
  endfacet
  facet normal 0 0 -1
    outer loop
      vertex 12 1 0
      vertex 7.16673 22.8333 0
      vertex 7.30903 22.9955 0
    endloop
  endfacet
  facet normal 0 0 -1
    outer loop
      vertex 12 1 0
      vertex 7.00446 22.691 0
      vertex 7.16673 22.8333 0
    endloop
  endfacet
  facet normal 0 0 -1
    outer loop
      vertex 12 1 0
      vertex 6.825 22.5711 0
      vertex 7.00446 22.691 0
    endloop
  endfacet
  facet normal 0 0 -1
    outer loop
      vertex 12 1 0
      vertex 6.63143 22.4756 0
      vertex 6.825 22.5711 0
    endloop
  endfacet
  facet normal 0 0 -1
    outer loop
      vertex 12 1 0
      vertex 6.42705 22.4062 0
      vertex 6.63143 22.4756 0
    endloop
  endfacet
  facet normal 0 0 -1
    outer loop
      vertex 12 1 0
      vertex 6.21537 22.3641 0
      vertex 6.42705 22.4062 0
    endloop
  endfacet
  facet normal 0 0 -1
    outer loop
      vertex 12 1 0
      vertex 6 22.35 0
      vertex 6.21537 22.3641 0
    endloop
  endfacet
  facet normal 0 0 -1
    outer loop
      vertex 12 1 0
      vertex 0 1 0
      vertex 6 22.35 0
    endloop
  endfacet
  facet normal -0 0 -1
    outer loop
      vertex 6 22.35 0
      vertex 0 1 0
      vertex 5.78463 22.3641 0
    endloop
  endfacet
  facet normal -0 0 -1
    outer loop
      vertex 5.78463 22.3641 0
      vertex 0 1 0
      vertex 5.57295 22.4062 0
    endloop
  endfacet
  facet normal -0 0 -1
    outer loop
      vertex 5.57295 22.4062 0
      vertex 0 1 0
      vertex 5.36857 22.4756 0
    endloop
  endfacet
  facet normal -0 0 -1
    outer loop
      vertex 5.36857 22.4756 0
      vertex 0 1 0
      vertex 5.175 22.5711 0
    endloop
  endfacet
  facet normal -0 0 -1
    outer loop
      vertex 5.175 22.5711 0
      vertex 0 1 0
      vertex 4.99554 22.691 0
    endloop
  endfacet
  facet normal -0 0 -1
    outer loop
      vertex 4.99554 22.691 0
      vertex 0 1 0
      vertex 4.83327 22.8333 0
    endloop
  endfacet
  facet normal -0 0 -1
    outer loop
      vertex 4.83327 22.8333 0
      vertex 0 1 0
      vertex 4.69097 22.9955 0
    endloop
  endfacet
  facet normal -0 0 -1
    outer loop
      vertex 4.69097 22.9955 0
      vertex 0 1 0
      vertex 4.57106 23.175 0
    endloop
  endfacet
  facet normal 0 0 -1
    outer loop
      vertex 0 29 0
      vertex 4.57106 23.175 0
      vertex 0 1 0
    endloop
  endfacet
  facet normal 0 0 -1
    outer loop
      vertex 4.4756 23.3686 0
      vertex 0 29 0
      vertex 4.40622 23.5729 0
    endloop
  endfacet
  facet normal 0 0 -1
    outer loop
      vertex 4.57106 23.175 0
      vertex 0 29 0
      vertex 4.4756 23.3686 0
    endloop
  endfacet
  facet normal 0 0 -1
    outer loop
      vertex 0 1 0
      vertex 11 0 0
      vertex 1 0 0
    endloop
  endfacet
  facet normal 0 0 -1
    outer loop
      vertex 11.6088 29.7934 0
      vertex 11 30 0
      vertex 11.5 29.866 0
    endloop
  endfacet
  facet normal 0 0 -1
    outer loop
      vertex 11.5 29.866 0
      vertex 11 30 0
      vertex 11.3827 29.9239 0
    endloop
  endfacet
  facet normal 0 0 -1
    outer loop
      vertex 11.2588 29.9659 0
      vertex 11 30 0
      vertex 11.1305 29.9914 0
    endloop
  endfacet
  facet normal 0 0 -1
    outer loop
      vertex 11.3827 29.9239 0
      vertex 11 30 0
      vertex 11.2588 29.9659 0
    endloop
  endfacet
  facet normal 0 0 -1
    outer loop
      vertex 11.7934 29.6088 0
      vertex 11 30 0
      vertex 11.7071 29.7071 0
    endloop
  endfacet
  facet normal 0 0 -1
    outer loop
      vertex 12 29 0
      vertex 11 30 0
      vertex 11.9914 29.1305 0
    endloop
  endfacet
  facet normal 0 0 -1
    outer loop
      vertex 7.00446 25.309 0
      vertex 11 30 0
      vertex 7.16673 25.1667 0
    endloop
  endfacet
  facet normal 0 0 -1
    outer loop
      vertex 6.825 25.4289 0
      vertex 11 30 0
      vertex 7.00446 25.309 0
    endloop
  endfacet
  facet normal 0 0 -1
    outer loop
      vertex 6.63143 25.5244 0
      vertex 11 30 0
      vertex 6.825 25.4289 0
    endloop
  endfacet
  facet normal 0 0 -1
    outer loop
      vertex 6.42705 25.5938 0
      vertex 11 30 0
      vertex 6.63143 25.5244 0
    endloop
  endfacet
  facet normal 0 0 -1
    outer loop
      vertex 6.21537 25.6359 0
      vertex 11 30 0
      vertex 6.42705 25.5938 0
    endloop
  endfacet
  facet normal 0 0 -1
    outer loop
      vertex 6 25.65 0
      vertex 11 30 0
      vertex 6.21537 25.6359 0
    endloop
  endfacet
  facet normal 0 0 -1
    outer loop
      vertex 1 30 0
      vertex 6 25.65 0
      vertex 5.78463 25.6359 0
    endloop
  endfacet
  facet normal 0 0 -1
    outer loop
      vertex 1 30 0
      vertex 5.78463 25.6359 0
      vertex 5.57295 25.5938 0
    endloop
  endfacet
  facet normal 0 0 -1
    outer loop
      vertex 1 30 0
      vertex 5.57295 25.5938 0
      vertex 5.36857 25.5244 0
    endloop
  endfacet
  facet normal 0 0 -1
    outer loop
      vertex 1 30 0
      vertex 5.36857 25.5244 0
      vertex 5.175 25.4289 0
    endloop
  endfacet
  facet normal 0 0 -1
    outer loop
      vertex 1 30 0
      vertex 5.175 25.4289 0
      vertex 4.99554 25.309 0
    endloop
  endfacet
  facet normal 0 0 -1
    outer loop
      vertex 4.40622 23.5729 0
      vertex 0 29 0
      vertex 4.36412 23.7846 0
    endloop
  endfacet
  facet normal 0 0 -1
    outer loop
      vertex 6 25.65 0
      vertex 1 30 0
      vertex 11 30 0
    endloop
  endfacet
  facet normal 0 0 -1
    outer loop
      vertex 4.83327 25.1667 0
      vertex 1 30 0
      vertex 4.99554 25.309 0
    endloop
  endfacet
  facet normal 0 0 -1
    outer loop
      vertex 0 29 0
      vertex 4.83327 25.1667 0
      vertex 4.69097 25.0045 0
    endloop
  endfacet
  facet normal 0 0 -1
    outer loop
      vertex 0 29 0
      vertex 4.69097 25.0045 0
      vertex 4.57106 24.825 0
    endloop
  endfacet
  facet normal 0 0 -1
    outer loop
      vertex 0 29 0
      vertex 4.57106 24.825 0
      vertex 4.4756 24.6314 0
    endloop
  endfacet
  facet normal 0 0 -1
    outer loop
      vertex 0 29 0
      vertex 4.4756 24.6314 0
      vertex 4.40622 24.4271 0
    endloop
  endfacet
  facet normal 0 0 -1
    outer loop
      vertex 0 29 0
      vertex 4.40622 24.4271 0
      vertex 4.36412 24.2154 0
    endloop
  endfacet
  facet normal 0 0 -1
    outer loop
      vertex 4.36412 23.7846 0
      vertex 0 29 0
      vertex 4.35 24 0
    endloop
  endfacet
  facet normal 0 0 -1
    outer loop
      vertex 0 1 0
      vertex 1 0 0
      vertex 0.869473 0.00855446 0
    endloop
  endfacet
  facet normal 0 0 -1
    outer loop
      vertex 4.35 24 0
      vertex 0 29 0
      vertex 4.36412 24.2154 0
    endloop
  endfacet
  facet normal 0 0 -1
    outer loop
      vertex 0 1 0
      vertex 0.869473 0.00855446 0
      vertex 0.74118 0.0340738 0
    endloop
  endfacet
  facet normal 0 0 -1
    outer loop
      vertex 4.83327 25.1667 0
      vertex 0 29 0
      vertex 1 30 0
    endloop
  endfacet
  facet normal 0 0 -1
    outer loop
      vertex 0 1 0
      vertex 0.74118 0.0340738 0
      vertex 0.617316 0.0761204 0
    endloop
  endfacet
  facet normal 0 0 -1
    outer loop
      vertex 1 30 0
      vertex 0 29 0
      vertex 0.869473 29.9914 0
    endloop
  endfacet
  facet normal 0 0 -1
    outer loop
      vertex 0 1 0
      vertex 0.617316 0.0761204 0
      vertex 0.5 0.133974 0
    endloop
  endfacet
  facet normal 0 0 -1
    outer loop
      vertex 0.869473 29.9914 0
      vertex 0 29 0
      vertex 0.74118 29.9659 0
    endloop
  endfacet
  facet normal 0 0 -1
    outer loop
      vertex 0 1 0
      vertex 0.5 0.133974 0
      vertex 0.391238 0.206646 0
    endloop
  endfacet
  facet normal 0 0 -1
    outer loop
      vertex 0.74118 29.9659 0
      vertex 0 29 0
      vertex 0.617316 29.9239 0
    endloop
  endfacet
  facet normal 0 0 -1
    outer loop
      vertex 0 1 0
      vertex 0.391238 0.206646 0
      vertex 0.292892 0.292892 0
    endloop
  endfacet
  facet normal 0 0 -1
    outer loop
      vertex 0.617316 29.9239 0
      vertex 0 29 0
      vertex 0.5 29.866 0
    endloop
  endfacet
  facet normal 0 0 -1
    outer loop
      vertex 0 1 0
      vertex 0.292892 0.292892 0
      vertex 0.206646 0.391238 0
    endloop
  endfacet
  facet normal 0 0 -1
    outer loop
      vertex 0.5 29.866 0
      vertex 0 29 0
      vertex 0.391238 29.7934 0
    endloop
  endfacet
  facet normal 0 0 -1
    outer loop
      vertex 0 1 0
      vertex 0.206646 0.391238 0
      vertex 0.133974 0.5 0
    endloop
  endfacet
  facet normal 0 0 -1
    outer loop
      vertex 0.391238 29.7934 0
      vertex 0 29 0
      vertex 0.292892 29.7071 0
    endloop
  endfacet
  facet normal 0 0 -1
    outer loop
      vertex 0 1 0
      vertex 0.133974 0.5 0
      vertex 0.0761204 0.617316 0
    endloop
  endfacet
  facet normal 0 0 -1
    outer loop
      vertex 0.292892 29.7071 0
      vertex 0 29 0
      vertex 0.206646 29.6088 0
    endloop
  endfacet
  facet normal 0 0 -1
    outer loop
      vertex 0 1 0
      vertex 0.0761204 0.617316 0
      vertex 0.0340738 0.74118 0
    endloop
  endfacet
  facet normal 0 0 -1
    outer loop
      vertex 0.206646 29.6088 0
      vertex 0 29 0
      vertex 0.133974 29.5 0
    endloop
  endfacet
  facet normal 0 0 -1
    outer loop
      vertex 0 1 0
      vertex 0.0340738 0.74118 0
      vertex 0.00855446 0.869473 0
    endloop
  endfacet
  facet normal 0 0 -1
    outer loop
      vertex 0.133974 29.5 0
      vertex 0 29 0
      vertex 0.0761204 29.3827 0
    endloop
  endfacet
  facet normal 0 0 -1
    outer loop
      vertex 0.0761204 29.3827 0
      vertex 0 29 0
      vertex 0.0340738 29.2588 0
    endloop
  endfacet
  facet normal 0 0 -1
    outer loop
      vertex 0.0340738 29.2588 0
      vertex 0 29 0
      vertex 0.00855446 29.1305 0
    endloop
  endfacet
  facet normal -0.442572 0.896733 0
    outer loop
      vertex 0.617316 29.9239 0
      vertex 0.5 29.866 2
      vertex 0.617316 29.9239 2
    endloop
  endfacet
  facet normal -0.442572 0.896733 0
    outer loop
      vertex 0.5 29.866 2
      vertex 0.617316 29.9239 0
      vertex 0.5 29.866 0
    endloop
  endfacet
  facet normal 0.831725 -0.555187 0
    outer loop
      vertex 11.7934 0.391238 2
      vertex 11.866 0.5 0
      vertex 11.866 0.5 2
    endloop
  endfacet
  facet normal 0.831725 -0.555187 0
    outer loop
      vertex 11.866 0.5 0
      vertex 11.7934 0.391238 2
      vertex 11.7934 0.391238 0
    endloop
  endfacet
  facet normal -0.831561 0.555434 0
    outer loop
      vertex 0.133974 29.5 0
      vertex 0.206646 29.6088 2
      vertex 0.206646 29.6088 0
    endloop
  endfacet
  facet normal -0.831561 0.555434 0
    outer loop
      vertex 0.206646 29.6088 2
      vertex 0.133974 29.5 0
      vertex 0.133974 29.5 2
    endloop
  endfacet
  facet normal 0 0 1
    outer loop
      vertex 11 30 2
      vertex 12 29 2
      vertex 11.9914 29.1305 2
    endloop
  endfacet
  facet normal 0 0 1
    outer loop
      vertex 7.42894 23.175 2
      vertex 12 29 2
      vertex 7.5244 23.3686 2
    endloop
  endfacet
  facet normal 0 0 1
    outer loop
      vertex 11 30 2
      vertex 11.9914 29.1305 2
      vertex 11.9659 29.2588 2
    endloop
  endfacet
  facet normal 0 0 1
    outer loop
      vertex 12 29 2
      vertex 7.42894 23.175 2
      vertex 12 1 2
    endloop
  endfacet
  facet normal 0 0 1
    outer loop
      vertex 11 30 2
      vertex 11.9659 29.2588 2
      vertex 11.9239 29.3827 2
    endloop
  endfacet
  facet normal -0 0 1
    outer loop
      vertex 7.30903 22.9955 2
      vertex 12 1 2
      vertex 7.42894 23.175 2
    endloop
  endfacet
  facet normal 0 0 1
    outer loop
      vertex 11 30 2
      vertex 11.9239 29.3827 2
      vertex 11.866 29.5 2
    endloop
  endfacet
  facet normal -0 0 1
    outer loop
      vertex 7.16673 22.8333 2
      vertex 12 1 2
      vertex 7.30903 22.9955 2
    endloop
  endfacet
  facet normal 0 0 1
    outer loop
      vertex 11 30 2
      vertex 11.866 29.5 2
      vertex 11.7934 29.6088 2
    endloop
  endfacet
  facet normal -0 0 1
    outer loop
      vertex 7.00446 22.691 2
      vertex 12 1 2
      vertex 7.16673 22.8333 2
    endloop
  endfacet
  facet normal 0 0 1
    outer loop
      vertex 11 30 2
      vertex 11.7934 29.6088 2
      vertex 11.7071 29.7071 2
    endloop
  endfacet
  facet normal -0 0 1
    outer loop
      vertex 6.825 22.5711 2
      vertex 12 1 2
      vertex 7.00446 22.691 2
    endloop
  endfacet
  facet normal 0 0 1
    outer loop
      vertex 11 30 2
      vertex 11.7071 29.7071 2
      vertex 11.6088 29.7934 2
    endloop
  endfacet
  facet normal -0 0 1
    outer loop
      vertex 6.63143 22.4756 2
      vertex 12 1 2
      vertex 6.825 22.5711 2
    endloop
  endfacet
  facet normal 0 0 1
    outer loop
      vertex 11 30 2
      vertex 11.6088 29.7934 2
      vertex 11.5 29.866 2
    endloop
  endfacet
  facet normal -0 0 1
    outer loop
      vertex 6.42705 22.4062 2
      vertex 12 1 2
      vertex 6.63143 22.4756 2
    endloop
  endfacet
  facet normal 0 0 1
    outer loop
      vertex 11 30 2
      vertex 11.5 29.866 2
      vertex 11.3827 29.9239 2
    endloop
  endfacet
  facet normal -0 0 1
    outer loop
      vertex 6.21537 22.3641 2
      vertex 12 1 2
      vertex 6.42705 22.4062 2
    endloop
  endfacet
  facet normal 0 0 1
    outer loop
      vertex 11 30 2
      vertex 11.3827 29.9239 2
      vertex 11.2588 29.9659 2
    endloop
  endfacet
  facet normal -0 0 1
    outer loop
      vertex 6 22.35 2
      vertex 12 1 2
      vertex 6.21537 22.3641 2
    endloop
  endfacet
  facet normal 0 0 1
    outer loop
      vertex 11 30 2
      vertex 11.2588 29.9659 2
      vertex 11.1305 29.9914 2
    endloop
  endfacet
  facet normal 0 0 1
    outer loop
      vertex 0 1 2
      vertex 12 1 2
      vertex 6 22.35 2
    endloop
  endfacet
  facet normal 0 0 1
    outer loop
      vertex 12 29 2
      vertex 11 30 2
      vertex 7.16673 25.1667 2
    endloop
  endfacet
  facet normal 0 -0 1
    outer loop
      vertex 11 0 2
      vertex 12 1 2
      vertex 0 1 2
    endloop
  endfacet
  facet normal 0 0 1
    outer loop
      vertex 12 29 2
      vertex 7.65 24 2
      vertex 7.63588 23.7846 2
    endloop
  endfacet
  facet normal 0 0 1
    outer loop
      vertex 12 29 2
      vertex 7.63588 24.2154 2
      vertex 7.65 24 2
    endloop
  endfacet
  facet normal 0 0 1
    outer loop
      vertex 12 29 2
      vertex 7.59378 24.4271 2
      vertex 7.63588 24.2154 2
    endloop
  endfacet
  facet normal 0 0 1
    outer loop
      vertex 12 29 2
      vertex 7.5244 24.6314 2
      vertex 7.59378 24.4271 2
    endloop
  endfacet
  facet normal 0 0 1
    outer loop
      vertex 12 29 2
      vertex 7.42894 24.825 2
      vertex 7.5244 24.6314 2
    endloop
  endfacet
  facet normal 0 0 1
    outer loop
      vertex 12 29 2
      vertex 7.30903 25.0045 2
      vertex 7.42894 24.825 2
    endloop
  endfacet
  facet normal 0 0 1
    outer loop
      vertex 12 29 2
      vertex 7.16673 25.1667 2
      vertex 7.30903 25.0045 2
    endloop
  endfacet
  facet normal 0 0 1
    outer loop
      vertex 11 30 2
      vertex 7.00446 25.309 2
      vertex 7.16673 25.1667 2
    endloop
  endfacet
  facet normal 0 0 1
    outer loop
      vertex 11 30 2
      vertex 6.825 25.4289 2
      vertex 7.00446 25.309 2
    endloop
  endfacet
  facet normal 0 0 1
    outer loop
      vertex 11 30 2
      vertex 6.63143 25.5244 2
      vertex 6.825 25.4289 2
    endloop
  endfacet
  facet normal 0 0 1
    outer loop
      vertex 11 30 2
      vertex 6.42705 25.5938 2
      vertex 6.63143 25.5244 2
    endloop
  endfacet
  facet normal 0 0 1
    outer loop
      vertex 11 30 2
      vertex 6.21537 25.6359 2
      vertex 6.42705 25.5938 2
    endloop
  endfacet
  facet normal 0 0 1
    outer loop
      vertex 11 30 2
      vertex 6 25.65 2
      vertex 6.21537 25.6359 2
    endloop
  endfacet
  facet normal -0 0 1
    outer loop
      vertex 1 30 2
      vertex 6 25.65 2
      vertex 11 30 2
    endloop
  endfacet
  facet normal 0 0 1
    outer loop
      vertex 6 25.65 2
      vertex 1 30 2
      vertex 5.78463 25.6359 2
    endloop
  endfacet
  facet normal 0 0 1
    outer loop
      vertex 5.78463 25.6359 2
      vertex 1 30 2
      vertex 5.57295 25.5938 2
    endloop
  endfacet
  facet normal 0 0 1
    outer loop
      vertex 5.57295 25.5938 2
      vertex 1 30 2
      vertex 5.36857 25.5244 2
    endloop
  endfacet
  facet normal 0 0 1
    outer loop
      vertex 5.36857 25.5244 2
      vertex 1 30 2
      vertex 5.175 25.4289 2
    endloop
  endfacet
  facet normal 0 0 1
    outer loop
      vertex 4.40622 24.4271 2
      vertex 0 29 2
      vertex 4.36412 24.2154 2
    endloop
  endfacet
  facet normal 0 0 1
    outer loop
      vertex 4.4756 24.6314 2
      vertex 0 29 2
      vertex 4.40622 24.4271 2
    endloop
  endfacet
  facet normal 0 0 1
    outer loop
      vertex 4.57106 24.825 2
      vertex 0 29 2
      vertex 4.4756 24.6314 2
    endloop
  endfacet
  facet normal 0 0 1
    outer loop
      vertex 4.69097 25.0045 2
      vertex 0 29 2
      vertex 4.57106 24.825 2
    endloop
  endfacet
  facet normal 0 0 1
    outer loop
      vertex 4.83327 25.1667 2
      vertex 0 29 2
      vertex 4.69097 25.0045 2
    endloop
  endfacet
  facet normal -0 0 1
    outer loop
      vertex 0 29 2
      vertex 4.83327 25.1667 2
      vertex 1 30 2
    endloop
  endfacet
  facet normal 0 0 1
    outer loop
      vertex 4.99554 25.309 2
      vertex 1 30 2
      vertex 4.83327 25.1667 2
    endloop
  endfacet
  facet normal 0 0 1
    outer loop
      vertex 5.175 25.4289 2
      vertex 1 30 2
      vertex 4.99554 25.309 2
    endloop
  endfacet
  facet normal 0 0 1
    outer loop
      vertex 12 29 2
      vertex 7.63588 23.7846 2
      vertex 7.59378 23.5729 2
    endloop
  endfacet
  facet normal 0 0 1
    outer loop
      vertex 12 29 2
      vertex 7.59378 23.5729 2
      vertex 7.5244 23.3686 2
    endloop
  endfacet
  facet normal 0 0 1
    outer loop
      vertex 12 1 2
      vertex 11 0 2
      vertex 11.9914 0.869473 2
    endloop
  endfacet
  facet normal 0 0 1
    outer loop
      vertex 11.9914 0.869473 2
      vertex 11 0 2
      vertex 11.9659 0.74118 2
    endloop
  endfacet
  facet normal 0 0 1
    outer loop
      vertex 11.9659 0.74118 2
      vertex 11 0 2
      vertex 11.9239 0.617316 2
    endloop
  endfacet
  facet normal 0 0 1
    outer loop
      vertex 11.7934 0.391238 2
      vertex 11 0 2
      vertex 11.7071 0.292892 2
    endloop
  endfacet
  facet normal 0 0 1
    outer loop
      vertex 11.7071 0.292892 2
      vertex 11 0 2
      vertex 11.6088 0.206646 2
    endloop
  endfacet
  facet normal 0 0 1
    outer loop
      vertex 11.5 0.133974 2
      vertex 11 0 2
      vertex 11.3827 0.0761204 2
    endloop
  endfacet
  facet normal 0 0 1
    outer loop
      vertex 11.2588 0.0340738 2
      vertex 11 0 2
      vertex 11.1305 0.00855446 2
    endloop
  endfacet
  facet normal 0 0 1
    outer loop
      vertex 11.3827 0.0761204 2
      vertex 11 0 2
      vertex 11.2588 0.0340738 2
    endloop
  endfacet
  facet normal 0 0 1
    outer loop
      vertex 11.6088 0.206646 2
      vertex 11 0 2
      vertex 11.5 0.133974 2
    endloop
  endfacet
  facet normal 0 0 1
    outer loop
      vertex 11.9239 0.617316 2
      vertex 11 0 2
      vertex 11.866 0.5 2
    endloop
  endfacet
  facet normal 0 0 1
    outer loop
      vertex 0 1 2
      vertex 6 22.35 2
      vertex 5.78463 22.3641 2
    endloop
  endfacet
  facet normal 0 0 1
    outer loop
      vertex 0 1 2
      vertex 5.78463 22.3641 2
      vertex 5.57295 22.4062 2
    endloop
  endfacet
  facet normal 0 0 1
    outer loop
      vertex 0 1 2
      vertex 5.57295 22.4062 2
      vertex 5.36857 22.4756 2
    endloop
  endfacet
  facet normal 0 0 1
    outer loop
      vertex 0 1 2
      vertex 5.36857 22.4756 2
      vertex 5.175 22.5711 2
    endloop
  endfacet
  facet normal 0 0 1
    outer loop
      vertex 0 1 2
      vertex 5.175 22.5711 2
      vertex 4.99554 22.691 2
    endloop
  endfacet
  facet normal 0 0 1
    outer loop
      vertex 0 1 2
      vertex 4.99554 22.691 2
      vertex 4.83327 22.8333 2
    endloop
  endfacet
  facet normal 0 0 1
    outer loop
      vertex 0 1 2
      vertex 4.83327 22.8333 2
      vertex 4.69097 22.9955 2
    endloop
  endfacet
  facet normal 0 0 1
    outer loop
      vertex 0 1 2
      vertex 4.69097 22.9955 2
      vertex 4.57106 23.175 2
    endloop
  endfacet
  facet normal 0 0 1
    outer loop
      vertex 0 29 2
      vertex 4.57106 23.175 2
      vertex 4.4756 23.3686 2
    endloop
  endfacet
  facet normal 0 0 1
    outer loop
      vertex 0 29 2
      vertex 4.4756 23.3686 2
      vertex 4.40622 23.5729 2
    endloop
  endfacet
  facet normal 0 0 1
    outer loop
      vertex 4.36412 24.2154 2
      vertex 0 29 2
      vertex 4.35 24 2
    endloop
  endfacet
  facet normal 0 0 1
    outer loop
      vertex 4.35 24 2
      vertex 0 29 2
      vertex 4.36412 23.7846 2
    endloop
  endfacet
  facet normal 0 0 1
    outer loop
      vertex 4.36412 23.7846 2
      vertex 0 29 2
      vertex 4.40622 23.5729 2
    endloop
  endfacet
  facet normal 0 0 1
    outer loop
      vertex 4.57106 23.175 2
      vertex 0 29 2
      vertex 0 1 2
    endloop
  endfacet
  facet normal 0 0 1
    outer loop
      vertex 0 29 2
      vertex 1 30 2
      vertex 0.869473 29.9914 2
    endloop
  endfacet
  facet normal 0 0 1
    outer loop
      vertex 11.866 0.5 2
      vertex 11 0 2
      vertex 11.7934 0.391238 2
    endloop
  endfacet
  facet normal 0 0 1
    outer loop
      vertex 0 29 2
      vertex 0.869473 29.9914 2
      vertex 0.74118 29.9659 2
    endloop
  endfacet
  facet normal 0 0 1
    outer loop
      vertex 11 0 2
      vertex 0 1 2
      vertex 1 0 2
    endloop
  endfacet
  facet normal 0 0 1
    outer loop
      vertex 0 29 2
      vertex 0.74118 29.9659 2
      vertex 0.617316 29.9239 2
    endloop
  endfacet
  facet normal 0 0 1
    outer loop
      vertex 1 0 2
      vertex 0 1 2
      vertex 0.869473 0.00855446 2
    endloop
  endfacet
  facet normal 0 0 1
    outer loop
      vertex 0 29 2
      vertex 0.617316 29.9239 2
      vertex 0.5 29.866 2
    endloop
  endfacet
  facet normal 0 0 1
    outer loop
      vertex 0.869473 0.00855446 2
      vertex 0 1 2
      vertex 0.74118 0.0340738 2
    endloop
  endfacet
  facet normal 0 0 1
    outer loop
      vertex 0 29 2
      vertex 0.5 29.866 2
      vertex 0.391238 29.7934 2
    endloop
  endfacet
  facet normal 0 0 1
    outer loop
      vertex 0.74118 0.0340738 2
      vertex 0 1 2
      vertex 0.617316 0.0761204 2
    endloop
  endfacet
  facet normal 0 0 1
    outer loop
      vertex 0 29 2
      vertex 0.391238 29.7934 2
      vertex 0.292892 29.7071 2
    endloop
  endfacet
  facet normal 0 0 1
    outer loop
      vertex 0.617316 0.0761204 2
      vertex 0 1 2
      vertex 0.5 0.133974 2
    endloop
  endfacet
  facet normal 0 0 1
    outer loop
      vertex 0 29 2
      vertex 0.292892 29.7071 2
      vertex 0.206646 29.6088 2
    endloop
  endfacet
  facet normal 0 0 1
    outer loop
      vertex 0.5 0.133974 2
      vertex 0 1 2
      vertex 0.391238 0.206646 2
    endloop
  endfacet
  facet normal 0 0 1
    outer loop
      vertex 0 29 2
      vertex 0.206646 29.6088 2
      vertex 0.133974 29.5 2
    endloop
  endfacet
  facet normal 0 0 1
    outer loop
      vertex 0.391238 0.206646 2
      vertex 0 1 2
      vertex 0.292892 0.292892 2
    endloop
  endfacet
  facet normal 0 0 1
    outer loop
      vertex 0 29 2
      vertex 0.133974 29.5 2
      vertex 0.0761204 29.3827 2
    endloop
  endfacet
  facet normal 0 0 1
    outer loop
      vertex 0.292892 0.292892 2
      vertex 0 1 2
      vertex 0.206646 0.391238 2
    endloop
  endfacet
  facet normal 0 0 1
    outer loop
      vertex 0 29 2
      vertex 0.0761204 29.3827 2
      vertex 0.0340738 29.2588 2
    endloop
  endfacet
  facet normal 0 0 1
    outer loop
      vertex 0.206646 0.391238 2
      vertex 0 1 2
      vertex 0.133974 0.5 2
    endloop
  endfacet
  facet normal 0 0 1
    outer loop
      vertex 0 29 2
      vertex 0.0340738 29.2588 2
      vertex 0.00855446 29.1305 2
    endloop
  endfacet
  facet normal 0 0 1
    outer loop
      vertex 0.133974 0.5 2
      vertex 0 1 2
      vertex 0.0761204 0.617316 2
    endloop
  endfacet
  facet normal 0 0 1
    outer loop
      vertex 0.0761204 0.617316 2
      vertex 0 1 2
      vertex 0.0340738 0.74118 2
    endloop
  endfacet
  facet normal 0 0 1
    outer loop
      vertex 0.0340738 0.74118 2
      vertex 0 1 2
      vertex 0.00855446 0.869473 2
    endloop
  endfacet
  facet normal -0.980794 -0.195047 0
    outer loop
      vertex 7.63588 24.2154 0
      vertex 7.59378 24.4271 2
      vertex 7.59378 24.4271 0
    endloop
  endfacet
  facet normal -0.980794 -0.195047 0
    outer loop
      vertex 7.59378 24.4271 2
      vertex 7.63588 24.2154 0
      vertex 7.63588 24.2154 2
    endloop
  endfacet
  facet normal -0.997858 -0.0654121 0
    outer loop
      vertex 7.65 24 0
      vertex 7.63588 24.2154 2
      vertex 7.63588 24.2154 0
    endloop
  endfacet
  facet normal -0.997858 -0.0654121 0
    outer loop
      vertex 7.63588 24.2154 2
      vertex 7.65 24 0
      vertex 7.65 24 2
    endloop
  endfacet
  facet normal -0.946889 -0.321562 0
    outer loop
      vertex 7.59378 24.4271 0
      vertex 7.5244 24.6314 2
      vertex 7.5244 24.6314 0
    endloop
  endfacet
  facet normal -0.946889 -0.321562 0
    outer loop
      vertex 7.5244 24.6314 2
      vertex 7.59378 24.4271 0
      vertex 7.59378 24.4271 2
    endloop
  endfacet
  facet normal 0.997858 0.0654121 0
    outer loop
      vertex 4.36412 23.7846 2
      vertex 4.35 24 0
      vertex 4.35 24 2
    endloop
  endfacet
  facet normal 0.997858 0.0654121 0
    outer loop
      vertex 4.35 24 0
      vertex 4.36412 23.7846 2
      vertex 4.36412 23.7846 0
    endloop
  endfacet
  facet normal 0.83153 0.55548 0
    outer loop
      vertex 4.69097 22.9955 2
      vertex 4.57106 23.175 0
      vertex 4.57106 23.175 2
    endloop
  endfacet
  facet normal 0.83153 0.55548 0
    outer loop
      vertex 4.57106 23.175 0
      vertex 4.69097 22.9955 2
      vertex 4.69097 22.9955 0
    endloop
  endfacet
  facet normal 0.980794 0.195047 0
    outer loop
      vertex 4.40622 23.5729 2
      vertex 4.36412 23.7846 0
      vertex 4.36412 23.7846 2
    endloop
  endfacet
  facet normal 0.980794 0.195047 0
    outer loop
      vertex 4.36412 23.7846 0
      vertex 4.40622 23.5729 2
      vertex 4.40622 23.5729 0
    endloop
  endfacet
  facet normal -0.321532 -0.946899 0
    outer loop
      vertex 6.42705 25.5938 0
      vertex 6.63143 25.5244 2
      vertex 6.42705 25.5938 2
    endloop
  endfacet
  facet normal -0.321532 -0.946899 -0
    outer loop
      vertex 6.63143 25.5244 2
      vertex 6.42705 25.5938 0
      vertex 6.63143 25.5244 0
    endloop
  endfacet
  facet normal -0.442445 0.896796 0
    outer loop
      vertex 6.825 22.5711 0
      vertex 6.63143 22.4756 2
      vertex 6.825 22.5711 2
    endloop
  endfacet
  facet normal -0.442445 0.896796 0
    outer loop
      vertex 6.63143 22.4756 2
      vertex 6.825 22.5711 0
      vertex 6.63143 22.4756 0
    endloop
  endfacet
  facet normal -0.321532 0.946899 0
    outer loop
      vertex 6.63143 22.4756 0
      vertex 6.42705 22.4062 2
      vertex 6.63143 22.4756 2
    endloop
  endfacet
  facet normal -0.321532 0.946899 0
    outer loop
      vertex 6.42705 22.4062 2
      vertex 6.63143 22.4756 0
      vertex 6.42705 22.4062 0
    endloop
  endfacet
  facet normal -0.896897 -0.44224 0
    outer loop
      vertex 7.5244 24.6314 0
      vertex 7.42894 24.825 2
      vertex 7.42894 24.825 0
    endloop
  endfacet
  facet normal -0.896897 -0.44224 0
    outer loop
      vertex 7.42894 24.825 2
      vertex 7.5244 24.6314 0
      vertex 7.5244 24.6314 2
    endloop
  endfacet
  facet normal 0.997858 -0.0654121 0
    outer loop
      vertex 4.35 24 2
      vertex 4.36412 24.2154 0
      vertex 4.36412 24.2154 2
    endloop
  endfacet
  facet normal 0.997858 -0.0654121 0
    outer loop
      vertex 4.36412 24.2154 0
      vertex 4.35 24 2
      vertex 4.35 24 0
    endloop
  endfacet
  facet normal -0.195065 0.98079 0
    outer loop
      vertex 6.42705 22.4062 0
      vertex 6.21537 22.3641 2
      vertex 6.42705 22.4062 2
    endloop
  endfacet
  facet normal -0.195065 0.98079 0
    outer loop
      vertex 6.21537 22.3641 2
      vertex 6.42705 22.4062 0
      vertex 6.21537 22.3641 0
    endloop
  endfacet
  facet normal 0.751715 -0.659488 0
    outer loop
      vertex 4.69097 25.0045 2
      vertex 4.83327 25.1667 0
      vertex 4.83327 25.1667 2
    endloop
  endfacet
  facet normal 0.751715 -0.659488 0
    outer loop
      vertex 4.83327 25.1667 0
      vertex 4.69097 25.0045 2
      vertex 4.69097 25.0045 0
    endloop
  endfacet
  facet normal -0.555534 -0.831494 0
    outer loop
      vertex 6.825 25.4289 0
      vertex 7.00446 25.309 2
      vertex 6.825 25.4289 2
    endloop
  endfacet
  facet normal -0.555534 -0.831494 -0
    outer loop
      vertex 7.00446 25.309 2
      vertex 6.825 25.4289 0
      vertex 7.00446 25.309 0
    endloop
  endfacet
  facet normal -0.195065 -0.98079 0
    outer loop
      vertex 6.21537 25.6359 0
      vertex 6.42705 25.5938 2
      vertex 6.21537 25.6359 2
    endloop
  endfacet
  facet normal -0.195065 -0.98079 -0
    outer loop
      vertex 6.42705 25.5938 2
      vertex 6.21537 25.6359 0
      vertex 6.42705 25.5938 0
    endloop
  endfacet
  facet normal -0.946889 0.321562 0
    outer loop
      vertex 7.5244 23.3686 0
      vertex 7.59378 23.5729 2
      vertex 7.59378 23.5729 0
    endloop
  endfacet
  facet normal -0.946889 0.321562 0
    outer loop
      vertex 7.59378 23.5729 2
      vertex 7.5244 23.3686 0
      vertex 7.5244 23.3686 2
    endloop
  endfacet
  facet normal -0.896897 0.44224 0
    outer loop
      vertex 7.42894 23.175 0
      vertex 7.5244 23.3686 2
      vertex 7.5244 23.3686 0
    endloop
  endfacet
  facet normal -0.896897 0.44224 0
    outer loop
      vertex 7.5244 23.3686 2
      vertex 7.42894 23.175 0
      vertex 7.42894 23.175 2
    endloop
  endfacet
  facet normal -0.997858 0.0654121 0
    outer loop
      vertex 7.63588 23.7846 0
      vertex 7.65 24 2
      vertex 7.65 24 0
    endloop
  endfacet
  facet normal -0.997858 0.0654121 0
    outer loop
      vertex 7.65 24 2
      vertex 7.63588 23.7846 0
      vertex 7.63588 23.7846 2
    endloop
  endfacet
  facet normal -0.751715 -0.659488 0
    outer loop
      vertex 7.30903 25.0045 0
      vertex 7.16673 25.1667 2
      vertex 7.16673 25.1667 0
    endloop
  endfacet
  facet normal -0.751715 -0.659488 0
    outer loop
      vertex 7.16673 25.1667 2
      vertex 7.30903 25.0045 0
      vertex 7.30903 25.0045 2
    endloop
  endfacet
  facet normal 0.659328 -0.751856 0
    outer loop
      vertex 4.83327 25.1667 0
      vertex 4.99554 25.309 2
      vertex 4.83327 25.1667 2
    endloop
  endfacet
  facet normal 0.659328 -0.751856 0
    outer loop
      vertex 4.99554 25.309 2
      vertex 4.83327 25.1667 0
      vertex 4.99554 25.309 0
    endloop
  endfacet
  facet normal -0.659328 0.751856 0
    outer loop
      vertex 7.16673 22.8333 0
      vertex 7.00446 22.691 2
      vertex 7.16673 22.8333 2
    endloop
  endfacet
  facet normal -0.659328 0.751856 0
    outer loop
      vertex 7.00446 22.691 2
      vertex 7.16673 22.8333 0
      vertex 7.00446 22.691 0
    endloop
  endfacet
  facet normal 0.751715 0.659488 0
    outer loop
      vertex 4.83327 22.8333 2
      vertex 4.69097 22.9955 0
      vertex 4.69097 22.9955 2
    endloop
  endfacet
  facet normal 0.751715 0.659488 0
    outer loop
      vertex 4.69097 22.9955 0
      vertex 4.83327 22.8333 2
      vertex 4.83327 22.8333 0
    endloop
  endfacet
  facet normal 0.442445 -0.896796 0
    outer loop
      vertex 5.175 25.4289 0
      vertex 5.36857 25.5244 2
      vertex 5.175 25.4289 2
    endloop
  endfacet
  facet normal 0.442445 -0.896796 0
    outer loop
      vertex 5.36857 25.5244 2
      vertex 5.175 25.4289 0
      vertex 5.36857 25.5244 0
    endloop
  endfacet
  facet normal -0.555534 0.831494 0
    outer loop
      vertex 7.00446 22.691 0
      vertex 6.825 22.5711 2
      vertex 7.00446 22.691 2
    endloop
  endfacet
  facet normal -0.555534 0.831494 0
    outer loop
      vertex 6.825 22.5711 2
      vertex 7.00446 22.691 0
      vertex 6.825 22.5711 0
    endloop
  endfacet
  facet normal -0.659328 -0.751856 0
    outer loop
      vertex 7.00446 25.309 0
      vertex 7.16673 25.1667 2
      vertex 7.00446 25.309 2
    endloop
  endfacet
  facet normal -0.659328 -0.751856 -0
    outer loop
      vertex 7.16673 25.1667 2
      vertex 7.00446 25.309 0
      vertex 7.16673 25.1667 0
    endloop
  endfacet
  facet normal -0.83153 -0.55548 0
    outer loop
      vertex 7.42894 24.825 0
      vertex 7.30903 25.0045 2
      vertex 7.30903 25.0045 0
    endloop
  endfacet
  facet normal -0.83153 -0.55548 0
    outer loop
      vertex 7.30903 25.0045 2
      vertex 7.42894 24.825 0
      vertex 7.42894 24.825 2
    endloop
  endfacet
  facet normal -0.442445 -0.896796 0
    outer loop
      vertex 6.63143 25.5244 0
      vertex 6.825 25.4289 2
      vertex 6.63143 25.5244 2
    endloop
  endfacet
  facet normal -0.442445 -0.896796 -0
    outer loop
      vertex 6.825 25.4289 2
      vertex 6.63143 25.5244 0
      vertex 6.825 25.4289 0
    endloop
  endfacet
  facet normal -0.980794 0.195047 0
    outer loop
      vertex 7.59378 23.5729 0
      vertex 7.63588 23.7846 2
      vertex 7.63588 23.7846 0
    endloop
  endfacet
  facet normal -0.980794 0.195047 0
    outer loop
      vertex 7.63588 23.7846 2
      vertex 7.59378 23.5729 0
      vertex 7.59378 23.5729 2
    endloop
  endfacet
  facet normal 0.321532 0.946899 -0
    outer loop
      vertex 5.57295 22.4062 0
      vertex 5.36857 22.4756 2
      vertex 5.57295 22.4062 2
    endloop
  endfacet
  facet normal 0.321532 0.946899 0
    outer loop
      vertex 5.36857 22.4756 2
      vertex 5.57295 22.4062 0
      vertex 5.36857 22.4756 0
    endloop
  endfacet
  facet normal -0.751715 0.659488 0
    outer loop
      vertex 7.16673 22.8333 0
      vertex 7.30903 22.9955 2
      vertex 7.30903 22.9955 0
    endloop
  endfacet
  facet normal -0.751715 0.659488 0
    outer loop
      vertex 7.30903 22.9955 2
      vertex 7.16673 22.8333 0
      vertex 7.16673 22.8333 2
    endloop
  endfacet
  facet normal -0.83153 0.55548 0
    outer loop
      vertex 7.30903 22.9955 0
      vertex 7.42894 23.175 2
      vertex 7.42894 23.175 0
    endloop
  endfacet
  facet normal -0.83153 0.55548 0
    outer loop
      vertex 7.42894 23.175 2
      vertex 7.30903 22.9955 0
      vertex 7.30903 22.9955 2
    endloop
  endfacet
  facet normal 0.0653289 0.997864 -0
    outer loop
      vertex 6 22.35 0
      vertex 5.78463 22.3641 2
      vertex 6 22.35 2
    endloop
  endfacet
  facet normal 0.0653289 0.997864 0
    outer loop
      vertex 5.78463 22.3641 2
      vertex 6 22.35 0
      vertex 5.78463 22.3641 0
    endloop
  endfacet
  facet normal 0.0653289 -0.997864 0
    outer loop
      vertex 5.78463 25.6359 0
      vertex 6 25.65 2
      vertex 5.78463 25.6359 2
    endloop
  endfacet
  facet normal 0.0653289 -0.997864 0
    outer loop
      vertex 6 25.65 2
      vertex 5.78463 25.6359 0
      vertex 6 25.65 0
    endloop
  endfacet
  facet normal 0.659328 0.751856 -0
    outer loop
      vertex 4.99554 22.691 0
      vertex 4.83327 22.8333 2
      vertex 4.99554 22.691 2
    endloop
  endfacet
  facet normal 0.659328 0.751856 0
    outer loop
      vertex 4.83327 22.8333 2
      vertex 4.99554 22.691 0
      vertex 4.83327 22.8333 0
    endloop
  endfacet
  facet normal 0.555534 0.831494 -0
    outer loop
      vertex 5.175 22.5711 0
      vertex 4.99554 22.691 2
      vertex 5.175 22.5711 2
    endloop
  endfacet
  facet normal 0.555534 0.831494 0
    outer loop
      vertex 4.99554 22.691 2
      vertex 5.175 22.5711 0
      vertex 4.99554 22.691 0
    endloop
  endfacet
  facet normal -0.0653289 0.997864 0
    outer loop
      vertex 6.21537 22.3641 0
      vertex 6 22.35 2
      vertex 6.21537 22.3641 2
    endloop
  endfacet
  facet normal -0.0653289 0.997864 0
    outer loop
      vertex 6 22.35 2
      vertex 6.21537 22.3641 0
      vertex 6 22.35 0
    endloop
  endfacet
  facet normal -0.0653289 -0.997864 0
    outer loop
      vertex 6 25.65 0
      vertex 6.21537 25.6359 2
      vertex 6 25.65 2
    endloop
  endfacet
  facet normal -0.0653289 -0.997864 -0
    outer loop
      vertex 6.21537 25.6359 2
      vertex 6 25.65 0
      vertex 6.21537 25.6359 0
    endloop
  endfacet
  facet normal 0.980794 -0.195047 0
    outer loop
      vertex 4.36412 24.2154 2
      vertex 4.40622 24.4271 0
      vertex 4.40622 24.4271 2
    endloop
  endfacet
  facet normal 0.980794 -0.195047 0
    outer loop
      vertex 4.40622 24.4271 0
      vertex 4.36412 24.2154 2
      vertex 4.36412 24.2154 0
    endloop
  endfacet
  facet normal 0.442445 0.896796 -0
    outer loop
      vertex 5.36857 22.4756 0
      vertex 5.175 22.5711 2
      vertex 5.36857 22.4756 2
    endloop
  endfacet
  facet normal 0.442445 0.896796 0
    outer loop
      vertex 5.175 22.5711 2
      vertex 5.36857 22.4756 0
      vertex 5.175 22.5711 0
    endloop
  endfacet
  facet normal 0.555534 -0.831494 0
    outer loop
      vertex 4.99554 25.309 0
      vertex 5.175 25.4289 2
      vertex 4.99554 25.309 2
    endloop
  endfacet
  facet normal 0.555534 -0.831494 0
    outer loop
      vertex 5.175 25.4289 2
      vertex 4.99554 25.309 0
      vertex 5.175 25.4289 0
    endloop
  endfacet
  facet normal 0.896897 0.44224 0
    outer loop
      vertex 4.57106 23.175 2
      vertex 4.4756 23.3686 0
      vertex 4.4756 23.3686 2
    endloop
  endfacet
  facet normal 0.896897 0.44224 0
    outer loop
      vertex 4.4756 23.3686 0
      vertex 4.57106 23.175 2
      vertex 4.57106 23.175 0
    endloop
  endfacet
  facet normal 0.195065 -0.98079 0
    outer loop
      vertex 5.57295 25.5938 0
      vertex 5.78463 25.6359 2
      vertex 5.57295 25.5938 2
    endloop
  endfacet
  facet normal 0.195065 -0.98079 0
    outer loop
      vertex 5.78463 25.6359 2
      vertex 5.57295 25.5938 0
      vertex 5.78463 25.6359 0
    endloop
  endfacet
  facet normal 0.321532 -0.946899 0
    outer loop
      vertex 5.36857 25.5244 0
      vertex 5.57295 25.5938 2
      vertex 5.36857 25.5244 2
    endloop
  endfacet
  facet normal 0.321532 -0.946899 0
    outer loop
      vertex 5.57295 25.5938 2
      vertex 5.36857 25.5244 0
      vertex 5.57295 25.5938 0
    endloop
  endfacet
  facet normal 0.195065 0.98079 -0
    outer loop
      vertex 5.78463 22.3641 0
      vertex 5.57295 22.4062 2
      vertex 5.78463 22.3641 2
    endloop
  endfacet
  facet normal 0.195065 0.98079 0
    outer loop
      vertex 5.57295 22.4062 2
      vertex 5.78463 22.3641 0
      vertex 5.57295 22.4062 0
    endloop
  endfacet
  facet normal 0.946889 -0.321562 0
    outer loop
      vertex 4.40622 24.4271 2
      vertex 4.4756 24.6314 0
      vertex 4.4756 24.6314 2
    endloop
  endfacet
  facet normal 0.946889 -0.321562 0
    outer loop
      vertex 4.4756 24.6314 0
      vertex 4.40622 24.4271 2
      vertex 4.40622 24.4271 0
    endloop
  endfacet
  facet normal 0.83153 -0.55548 0
    outer loop
      vertex 4.57106 24.825 2
      vertex 4.69097 25.0045 0
      vertex 4.69097 25.0045 2
    endloop
  endfacet
  facet normal 0.83153 -0.55548 0
    outer loop
      vertex 4.69097 25.0045 0
      vertex 4.57106 24.825 2
      vertex 4.57106 24.825 0
    endloop
  endfacet
  facet normal 0.946889 0.321562 0
    outer loop
      vertex 4.4756 23.3686 2
      vertex 4.40622 23.5729 0
      vertex 4.40622 23.5729 2
    endloop
  endfacet
  facet normal 0.946889 0.321562 0
    outer loop
      vertex 4.40622 23.5729 0
      vertex 4.4756 23.3686 2
      vertex 4.4756 23.3686 0
    endloop
  endfacet
  facet normal 0.896897 -0.44224 0
    outer loop
      vertex 4.4756 24.6314 2
      vertex 4.57106 24.825 0
      vertex 4.57106 24.825 2
    endloop
  endfacet
  facet normal 0.896897 -0.44224 0
    outer loop
      vertex 4.57106 24.825 0
      vertex 4.4756 24.6314 2
      vertex 4.4756 24.6314 0
    endloop
  endfacet
endsolid OpenSCAD_Model
