solid OpenSCAD_Model
  facet normal 0.671624 -0.740892 0
    outer loop
      vertex 11.6344 0.226989 0
      vertex 11.7071 0.292892 6
      vertex 11.6344 0.226989 6
    endloop
  endfacet
  facet normal 0.671624 -0.740892 0
    outer loop
      vertex 11.7071 0.292892 6
      vertex 11.6344 0.226989 0
      vertex 11.7071 0.292892 0
    endloop
  endfacet
  facet normal -0.970035 0.242964 0
    outer loop
      vertex 0.0192146 29.1951 0
      vertex 0.0430593 29.2903 6
      vertex 0.0430593 29.2903 0
    endloop
  endfacet
  facet normal -0.970035 0.242964 0
    outer loop
      vertex 0.0430593 29.2903 6
      vertex 0.0192146 29.1951 0
      vertex 0.0192146 29.1951 6
    endloop
  endfacet
  facet normal -0.0490655 -0.998796 0
    outer loop
      vertex 0.901982 0.0048151 0
      vertex 1 0 6
      vertex 0.901982 0.0048151 6
    endloop
  endfacet
  facet normal -0.0490655 -0.998796 -0
    outer loop
      vertex 1 0 6
      vertex 0.901982 0.0048151 0
      vertex 1 0 0
    endloop
  endfacet
  facet normal 0.740908 0.671607 0
    outer loop
      vertex 11.773 29.6344 6
      vertex 11.7071 29.7071 0
      vertex 11.7071 29.7071 6
    endloop
  endfacet
  facet normal 0.740908 0.671607 0
    outer loop
      vertex 11.7071 29.7071 0
      vertex 11.773 29.6344 6
      vertex 11.773 29.6344 0
    endloop
  endfacet
  facet normal -0.671553 -0.740957 0
    outer loop
      vertex 0.292892 0.292892 0
      vertex 0.365606 0.226989 6
      vertex 0.292892 0.292892 6
    endloop
  endfacet
  facet normal -0.671553 -0.740957 -0
    outer loop
      vertex 0.365606 0.226989 6
      vertex 0.292892 0.292892 0
      vertex 0.365606 0.226989 0
    endloop
  endfacet
  facet normal -1 0 0
    outer loop
      vertex 0 1 0
      vertex 0 29 6
      vertex 0 29 0
    endloop
  endfacet
  facet normal -1 -0 0
    outer loop
      vertex 0 29 6
      vertex 0 1 0
      vertex 0 1 6
    endloop
  endfacet
  facet normal 0.803008 -0.595968 0
    outer loop
      vertex 11.773 0.365606 6
      vertex 11.8315 0.444429 0
      vertex 11.8315 0.444429 6
    endloop
  endfacet
  facet normal 0.803008 -0.595968 0
    outer loop
      vertex 11.8315 0.444429 0
      vertex 11.773 0.365606 6
      vertex 11.773 0.365606 0
    endloop
  endfacet
  facet normal 0 1 -0
    outer loop
      vertex 11 30 0
      vertex 1 30 6
      vertex 11 30 6
    endloop
  endfacet
  facet normal 0 1 0
    outer loop
      vertex 1 30 6
      vertex 11 30 0
      vertex 1 30 0
    endloop
  endfacet
  facet normal -0.903991 -0.427551 0
    outer loop
      vertex 0.118078 0.528603 0
      vertex 0.0761204 0.617316 6
      vertex 0.0761204 0.617316 0
    endloop
  endfacet
  facet normal -0.903991 -0.427551 0
    outer loop
      vertex 0.0761204 0.617316 6
      vertex 0.118078 0.528603 0
      vertex 0.118078 0.528603 6
    endloop
  endfacet
  facet normal 0.427955 0.9038 -0
    outer loop
      vertex 11.4714 29.8819 0
      vertex 11.3827 29.9239 6
      vertex 11.4714 29.8819 6
    endloop
  endfacet
  facet normal 0.427955 0.9038 0
    outer loop
      vertex 11.3827 29.9239 6
      vertex 11.4714 29.8819 0
      vertex 11.3827 29.9239 0
    endloop
  endfacet
  facet normal 0.989182 0.146696 0
    outer loop
      vertex 11.9952 29.098 6
      vertex 11.9808 29.1951 0
      vertex 11.9808 29.1951 6
    endloop
  endfacet
  facet normal 0.989182 0.146696 0
    outer loop
      vertex 11.9808 29.1951 0
      vertex 11.9952 29.098 6
      vertex 11.9952 29.098 0
    endloop
  endfacet
  facet normal 0.858032 0.513596 0
    outer loop
      vertex 11.8819 29.4714 6
      vertex 11.8315 29.5556 0
      vertex 11.8315 29.5556 6
    endloop
  endfacet
  facet normal 0.858032 0.513596 0
    outer loop
      vertex 11.8315 29.5556 0
      vertex 11.8819 29.4714 6
      vertex 11.8819 29.4714 0
    endloop
  endfacet
  facet normal -0.803125 0.595811 0
    outer loop
      vertex 0.16853 29.5556 0
      vertex 0.226989 29.6344 6
      vertex 0.226989 29.6344 0
    endloop
  endfacet
  facet normal -0.803125 0.595811 0
    outer loop
      vertex 0.226989 29.6344 6
      vertex 0.16853 29.5556 0
      vertex 0.16853 29.5556 6
    endloop
  endfacet
  facet normal -0.336892 -0.941543 0
    outer loop
      vertex 0.617316 0.0761204 0
      vertex 0.709715 0.0430593 6
      vertex 0.617316 0.0761204 6
    endloop
  endfacet
  facet normal -0.336892 -0.941543 -0
    outer loop
      vertex 0.709715 0.0430593 6
      vertex 0.617316 0.0761204 0
      vertex 0.709715 0.0430593 0
    endloop
  endfacet
  facet normal 0.941741 -0.33634 0
    outer loop
      vertex 11.9239 0.617316 6
      vertex 11.9569 0.709715 0
      vertex 11.9569 0.709715 6
    endloop
  endfacet
  facet normal 0.941741 -0.33634 0
    outer loop
      vertex 11.9569 0.709715 0
      vertex 11.9239 0.617316 6
      vertex 11.9239 0.617316 0
    endloop
  endfacet
  facet normal 0.969899 -0.243509 0
    outer loop
      vertex 11.9569 0.709715 6
      vertex 11.9808 0.804909 0
      vertex 11.9808 0.804909 6
    endloop
  endfacet
  facet normal 0.969899 -0.243509 0
    outer loop
      vertex 11.9808 0.804909 0
      vertex 11.9569 0.709715 6
      vertex 11.9569 0.709715 0
    endloop
  endfacet
  facet normal -0.941543 -0.336892 0
    outer loop
      vertex 0.0761204 0.617316 0
      vertex 0.0430593 0.709715 6
      vertex 0.0430593 0.709715 0
    endloop
  endfacet
  facet normal -0.941543 -0.336892 0
    outer loop
      vertex 0.0430593 0.709715 6
      vertex 0.0761204 0.617316 0
      vertex 0.0761204 0.617316 6
    endloop
  endfacet
  facet normal -0.740892 0.671624 0
    outer loop
      vertex 0.226989 29.6344 0
      vertex 0.292892 29.7071 6
      vertex 0.292892 29.7071 0
    endloop
  endfacet
  facet normal -0.740892 0.671624 0
    outer loop
      vertex 0.292892 29.7071 6
      vertex 0.226989 29.6344 0
      vertex 0.226989 29.6344 6
    endloop
  endfacet
  facet normal 0.9038 0.427955 0
    outer loop
      vertex 11.9239 29.3827 6
      vertex 11.8819 29.4714 0
      vertex 11.8819 29.4714 6
    endloop
  endfacet
  facet normal 0.9038 0.427955 0
    outer loop
      vertex 11.8819 29.4714 0
      vertex 11.9239 29.3827 6
      vertex 11.9239 29.3827 0
    endloop
  endfacet
  facet normal -0.941545 0.336889 0
    outer loop
      vertex 0.0430593 29.2903 0
      vertex 0.0761204 29.3827 6
      vertex 0.0761204 29.3827 0
    endloop
  endfacet
  facet normal -0.941545 0.336889 0
    outer loop
      vertex 0.0761204 29.3827 6
      vertex 0.0430593 29.2903 0
      vertex 0.0430593 29.2903 6
    endloop
  endfacet
  facet normal -0.513713 0.857962 0
    outer loop
      vertex 0.528603 29.8819 0
      vertex 0.444429 29.8315 6
      vertex 0.528603 29.8819 6
    endloop
  endfacet
  facet normal -0.513713 0.857962 0
    outer loop
      vertex 0.444429 29.8315 6
      vertex 0.528603 29.8819 0
      vertex 0.444429 29.8315 0
    endloop
  endfacet
  facet normal 0.336336 0.941742 -0
    outer loop
      vertex 11.3827 29.9239 0
      vertex 11.2903 29.9569 6
      vertex 11.3827 29.9239 6
    endloop
  endfacet
  facet normal 0.336336 0.941742 0
    outer loop
      vertex 11.2903 29.9569 6
      vertex 11.3827 29.9239 0
      vertex 11.2903 29.9569 0
    endloop
  endfacet
  facet normal -0.998796 -0.0490655 0
    outer loop
      vertex 0.0048151 0.901982 0
      vertex 0 1 6
      vertex 0 1 0
    endloop
  endfacet
  facet normal -0.998796 -0.0490655 0
    outer loop
      vertex 0 1 6
      vertex 0.0048151 0.901982 0
      vertex 0.0048151 0.901982 6
    endloop
  endfacet
  facet normal 1 -0 0
    outer loop
      vertex 12 1 6
      vertex 12 29 0
      vertex 12 29 6
    endloop
  endfacet
  facet normal 1 0 0
    outer loop
      vertex 12 29 0
      vertex 12 1 6
      vertex 12 1 0
    endloop
  endfacet
  facet normal -0.857728 -0.514103 0
    outer loop
      vertex 0.16853 0.444429 0
      vertex 0.118078 0.528603 6
      vertex 0.118078 0.528603 0
    endloop
  endfacet
  facet normal -0.857728 -0.514103 0
    outer loop
      vertex 0.118078 0.528603 6
      vertex 0.16853 0.444429 0
      vertex 0.16853 0.444429 6
    endloop
  endfacet
  facet normal -0.243509 0.969899 0
    outer loop
      vertex 0.804909 29.9808 0
      vertex 0.709715 29.9569 6
      vertex 0.804909 29.9808 6
    endloop
  endfacet
  facet normal -0.243509 0.969899 0
    outer loop
      vertex 0.709715 29.9569 6
      vertex 0.804909 29.9808 0
      vertex 0.709715 29.9569 0
    endloop
  endfacet
  facet normal 0.903824 -0.427904 0
    outer loop
      vertex 11.8819 0.528603 6
      vertex 11.9239 0.617316 0
      vertex 11.9239 0.617316 6
    endloop
  endfacet
  facet normal 0.903824 -0.427904 0
    outer loop
      vertex 11.9239 0.617316 0
      vertex 11.8819 0.528603 6
      vertex 11.8819 0.528603 0
    endloop
  endfacet
  facet normal 0.595811 -0.803125 0
    outer loop
      vertex 11.5556 0.16853 0
      vertex 11.6344 0.226989 6
      vertex 11.5556 0.16853 6
    endloop
  endfacet
  facet normal 0.595811 -0.803125 0
    outer loop
      vertex 11.6344 0.226989 6
      vertex 11.5556 0.16853 0
      vertex 11.6344 0.226989 0
    endloop
  endfacet
  facet normal 0.989176 -0.146736 0
    outer loop
      vertex 11.9808 0.804909 6
      vertex 11.9952 0.901982 0
      vertex 11.9952 0.901982 6
    endloop
  endfacet
  facet normal 0.989176 -0.146736 0
    outer loop
      vertex 11.9952 0.901982 0
      vertex 11.9808 0.804909 6
      vertex 11.9808 0.804909 0
    endloop
  endfacet
  facet normal 0.427602 -0.903967 0
    outer loop
      vertex 11.3827 0.0761204 0
      vertex 11.4714 0.118078 6
      vertex 11.3827 0.0761204 6
    endloop
  endfacet
  facet normal 0.427602 -0.903967 0
    outer loop
      vertex 11.4714 0.118078 6
      vertex 11.3827 0.0761204 0
      vertex 11.4714 0.118078 0
    endloop
  endfacet
  facet normal 0 0 1
    outer loop
      vertex 11 30 6
      vertex 12 29 6
      vertex 11.9952 29.098 6
    endloop
  endfacet
  facet normal 0 0 1
    outer loop
      vertex 12 29 6
      vertex 7.45517 23.2222 6
      vertex 12 1 6
    endloop
  endfacet
  facet normal 0 0 1
    outer loop
      vertex 11 30 6
      vertex 11.9952 29.098 6
      vertex 11.9808 29.1951 6
    endloop
  endfacet
  facet normal -0 0 1
    outer loop
      vertex 7.37192 23.0833 6
      vertex 12 1 6
      vertex 7.45517 23.2222 6
    endloop
  endfacet
  facet normal 0 0 1
    outer loop
      vertex 11 30 6
      vertex 11.9808 29.1951 6
      vertex 11.9569 29.2903 6
    endloop
  endfacet
  facet normal 0 0 1
    outer loop
      vertex 12 29 6
      vertex 7.5244 23.3686 6
      vertex 7.45517 23.2222 6
    endloop
  endfacet
  facet normal 0 0 1
    outer loop
      vertex 11 30 6
      vertex 11.9569 29.2903 6
      vertex 11.9239 29.3827 6
    endloop
  endfacet
  facet normal -0 0 1
    outer loop
      vertex 7.27547 22.9533 6
      vertex 12 1 6
      vertex 7.37192 23.0833 6
    endloop
  endfacet
  facet normal 0 0 1
    outer loop
      vertex 11 30 6
      vertex 11.9239 29.3827 6
      vertex 11.8819 29.4714 6
    endloop
  endfacet
  facet normal -0 0 1
    outer loop
      vertex 7.16673 22.8333 6
      vertex 12 1 6
      vertex 7.27547 22.9533 6
    endloop
  endfacet
  facet normal 0 0 1
    outer loop
      vertex 11 30 6
      vertex 11.8819 29.4714 6
      vertex 11.8315 29.5556 6
    endloop
  endfacet
  facet normal -0 0 1
    outer loop
      vertex 7.04675 22.7245 6
      vertex 12 1 6
      vertex 7.16673 22.8333 6
    endloop
  endfacet
  facet normal 0 0 1
    outer loop
      vertex 11 30 6
      vertex 11.8315 29.5556 6
      vertex 11.773 29.6344 6
    endloop
  endfacet
  facet normal -0 0 1
    outer loop
      vertex 6.91669 22.6281 6
      vertex 12 1 6
      vertex 7.04675 22.7245 6
    endloop
  endfacet
  facet normal 0 0 1
    outer loop
      vertex 11 30 6
      vertex 11.773 29.6344 6
      vertex 11.7071 29.7071 6
    endloop
  endfacet
  facet normal -0 0 1
    outer loop
      vertex 6.7778 22.5448 6
      vertex 12 1 6
      vertex 6.91669 22.6281 6
    endloop
  endfacet
  facet normal 0 0 1
    outer loop
      vertex 11 30 6
      vertex 11.7071 29.7071 6
      vertex 11.6344 29.773 6
    endloop
  endfacet
  facet normal -0 0 1
    outer loop
      vertex 6.63143 22.4756 6
      vertex 12 1 6
      vertex 6.7778 22.5448 6
    endloop
  endfacet
  facet normal 0 0 1
    outer loop
      vertex 11 30 6
      vertex 11.6344 29.773 6
      vertex 11.5556 29.8315 6
    endloop
  endfacet
  facet normal -0 0 1
    outer loop
      vertex 6.47897 22.421 6
      vertex 12 1 6
      vertex 6.63143 22.4756 6
    endloop
  endfacet
  facet normal 0 0 1
    outer loop
      vertex 11 30 6
      vertex 11.5556 29.8315 6
      vertex 11.4714 29.8819 6
    endloop
  endfacet
  facet normal -0 0 1
    outer loop
      vertex 6.3219 22.3817 6
      vertex 12 1 6
      vertex 6.47897 22.421 6
    endloop
  endfacet
  facet normal 0 0 1
    outer loop
      vertex 11 30 6
      vertex 11.4714 29.8819 6
      vertex 11.3827 29.9239 6
    endloop
  endfacet
  facet normal -0 0 1
    outer loop
      vertex 6.16173 22.3579 6
      vertex 12 1 6
      vertex 6.3219 22.3817 6
    endloop
  endfacet
  facet normal 0 0 1
    outer loop
      vertex 11 30 6
      vertex 11.3827 29.9239 6
      vertex 11.2903 29.9569 6
    endloop
  endfacet
  facet normal -0 0 1
    outer loop
      vertex 6 22.35 6
      vertex 12 1 6
      vertex 6.16173 22.3579 6
    endloop
  endfacet
  facet normal 0 0 1
    outer loop
      vertex 11 30 6
      vertex 11.2903 29.9569 6
      vertex 11.1951 29.9808 6
    endloop
  endfacet
  facet normal 0 0 1
    outer loop
      vertex 0 1 6
      vertex 12 1 6
      vertex 6 22.35 6
    endloop
  endfacet
  facet normal 0 0 1
    outer loop
      vertex 11 30 6
      vertex 11.1951 29.9808 6
      vertex 11.098 29.9952 6
    endloop
  endfacet
  facet normal 0 0 1
    outer loop
      vertex 12 29 6
      vertex 7.57895 23.521 6
      vertex 7.5244 23.3686 6
    endloop
  endfacet
  facet normal 0 0 1
    outer loop
      vertex 12 29 6
      vertex 11 30 6
      vertex 7.16673 25.1667 6
    endloop
  endfacet
  facet normal 0 -0 1
    outer loop
      vertex 11 0 6
      vertex 12 1 6
      vertex 0 1 6
    endloop
  endfacet
  facet normal 0 0 1
    outer loop
      vertex 12 29 6
      vertex 7.65 24 6
      vertex 7.64205 23.8383 6
    endloop
  endfacet
  facet normal 0 0 1
    outer loop
      vertex 12 29 6
      vertex 7.64205 24.1617 6
      vertex 7.65 24 6
    endloop
  endfacet
  facet normal 0 0 1
    outer loop
      vertex 12 29 6
      vertex 7.6183 24.3219 6
      vertex 7.64205 24.1617 6
    endloop
  endfacet
  facet normal 0 0 1
    outer loop
      vertex 12 29 6
      vertex 7.57895 24.479 6
      vertex 7.6183 24.3219 6
    endloop
  endfacet
  facet normal 0 0 1
    outer loop
      vertex 12 29 6
      vertex 7.5244 24.6314 6
      vertex 7.57895 24.479 6
    endloop
  endfacet
  facet normal 0 0 1
    outer loop
      vertex 12 29 6
      vertex 7.45517 24.7778 6
      vertex 7.5244 24.6314 6
    endloop
  endfacet
  facet normal 0 0 1
    outer loop
      vertex 12 29 6
      vertex 7.37192 24.9167 6
      vertex 7.45517 24.7778 6
    endloop
  endfacet
  facet normal 0 0 1
    outer loop
      vertex 12 29 6
      vertex 7.27547 25.0467 6
      vertex 7.37192 24.9167 6
    endloop
  endfacet
  facet normal 0 0 1
    outer loop
      vertex 12 29 6
      vertex 7.16673 25.1667 6
      vertex 7.27547 25.0467 6
    endloop
  endfacet
  facet normal 0 0 1
    outer loop
      vertex 11 30 6
      vertex 7.04675 25.2755 6
      vertex 7.16673 25.1667 6
    endloop
  endfacet
  facet normal 0 0 1
    outer loop
      vertex 11 30 6
      vertex 6.91669 25.3719 6
      vertex 7.04675 25.2755 6
    endloop
  endfacet
  facet normal 0 0 1
    outer loop
      vertex 11 30 6
      vertex 6.7778 25.4552 6
      vertex 6.91669 25.3719 6
    endloop
  endfacet
  facet normal 0 0 1
    outer loop
      vertex 11 30 6
      vertex 6.63143 25.5244 6
      vertex 6.7778 25.4552 6
    endloop
  endfacet
  facet normal 0 0 1
    outer loop
      vertex 11 30 6
      vertex 6.47897 25.579 6
      vertex 6.63143 25.5244 6
    endloop
  endfacet
  facet normal 0 0 1
    outer loop
      vertex 11 30 6
      vertex 6.3219 25.6183 6
      vertex 6.47897 25.579 6
    endloop
  endfacet
  facet normal 0 0 1
    outer loop
      vertex 11 30 6
      vertex 6.16173 25.6421 6
      vertex 6.3219 25.6183 6
    endloop
  endfacet
  facet normal 0 0 1
    outer loop
      vertex 11 30 6
      vertex 6 25.65 6
      vertex 6.16173 25.6421 6
    endloop
  endfacet
  facet normal -0 0 1
    outer loop
      vertex 1 30 6
      vertex 6 25.65 6
      vertex 11 30 6
    endloop
  endfacet
  facet normal 0 0 1
    outer loop
      vertex 6 25.65 6
      vertex 1 30 6
      vertex 5.83827 25.6421 6
    endloop
  endfacet
  facet normal 0 0 1
    outer loop
      vertex 5.83827 25.6421 6
      vertex 1 30 6
      vertex 5.6781 25.6183 6
    endloop
  endfacet
  facet normal 0 0 1
    outer loop
      vertex 5.6781 25.6183 6
      vertex 1 30 6
      vertex 5.52103 25.579 6
    endloop
  endfacet
  facet normal 0 0 1
    outer loop
      vertex 5.52103 25.579 6
      vertex 1 30 6
      vertex 5.36857 25.5244 6
    endloop
  endfacet
  facet normal 0 0 1
    outer loop
      vertex 5.36857 25.5244 6
      vertex 1 30 6
      vertex 5.22219 25.4552 6
    endloop
  endfacet
  facet normal 0 0 1
    outer loop
      vertex 5.22219 25.4552 6
      vertex 1 30 6
      vertex 5.08331 25.3719 6
    endloop
  endfacet
  facet normal 0 0 1
    outer loop
      vertex 4.3817 24.3219 6
      vertex 0 29 6
      vertex 4.35794 24.1617 6
    endloop
  endfacet
  facet normal 0 0 1
    outer loop
      vertex 4.42105 24.479 6
      vertex 0 29 6
      vertex 4.3817 24.3219 6
    endloop
  endfacet
  facet normal 0 0 1
    outer loop
      vertex 4.4756 24.6314 6
      vertex 0 29 6
      vertex 4.42105 24.479 6
    endloop
  endfacet
  facet normal 0 0 1
    outer loop
      vertex 4.54483 24.7778 6
      vertex 0 29 6
      vertex 4.4756 24.6314 6
    endloop
  endfacet
  facet normal 0 0 1
    outer loop
      vertex 4.62807 24.9167 6
      vertex 0 29 6
      vertex 4.54483 24.7778 6
    endloop
  endfacet
  facet normal 0 0 1
    outer loop
      vertex 4.72453 25.0467 6
      vertex 0 29 6
      vertex 4.62807 24.9167 6
    endloop
  endfacet
  facet normal 0 0 1
    outer loop
      vertex 4.83327 25.1667 6
      vertex 0 29 6
      vertex 4.72453 25.0467 6
    endloop
  endfacet
  facet normal -0 0 1
    outer loop
      vertex 0 29 6
      vertex 4.83327 25.1667 6
      vertex 1 30 6
    endloop
  endfacet
  facet normal 0 0 1
    outer loop
      vertex 4.95325 25.2755 6
      vertex 1 30 6
      vertex 4.83327 25.1667 6
    endloop
  endfacet
  facet normal 0 0 1
    outer loop
      vertex 5.08331 25.3719 6
      vertex 1 30 6
      vertex 4.95325 25.2755 6
    endloop
  endfacet
  facet normal 0 0 1
    outer loop
      vertex 12 29 6
      vertex 7.64205 23.8383 6
      vertex 7.6183 23.6781 6
    endloop
  endfacet
  facet normal 0 0 1
    outer loop
      vertex 12 29 6
      vertex 7.6183 23.6781 6
      vertex 7.57895 23.521 6
    endloop
  endfacet
  facet normal 0 0 1
    outer loop
      vertex 12 1 6
      vertex 11 0 6
      vertex 11.9952 0.901982 6
    endloop
  endfacet
  facet normal 0 0 1
    outer loop
      vertex 11.9952 0.901982 6
      vertex 11 0 6
      vertex 11.9808 0.804909 6
    endloop
  endfacet
  facet normal 0 0 1
    outer loop
      vertex 11.9808 0.804909 6
      vertex 11 0 6
      vertex 11.9569 0.709715 6
    endloop
  endfacet
  facet normal 0 0 1
    outer loop
      vertex 11.9569 0.709715 6
      vertex 11 0 6
      vertex 11.9239 0.617316 6
    endloop
  endfacet
  facet normal 0 0 1
    outer loop
      vertex 11.9239 0.617316 6
      vertex 11 0 6
      vertex 11.8819 0.528603 6
    endloop
  endfacet
  facet normal 0 0 1
    outer loop
      vertex 11.773 0.365606 6
      vertex 11 0 6
      vertex 11.7071 0.292892 6
    endloop
  endfacet
  facet normal 0 0 1
    outer loop
      vertex 11.6344 0.226989 6
      vertex 11 0 6
      vertex 11.5556 0.16853 6
    endloop
  endfacet
  facet normal 0 0 1
    outer loop
      vertex 11.5556 0.16853 6
      vertex 11 0 6
      vertex 11.4714 0.118078 6
    endloop
  endfacet
  facet normal 0 0 1
    outer loop
      vertex 11.3827 0.0761204 6
      vertex 11 0 6
      vertex 11.2903 0.0430593 6
    endloop
  endfacet
  facet normal 0 0 1
    outer loop
      vertex 11.1951 0.0192146 6
      vertex 11 0 6
      vertex 11.098 0.0048151 6
    endloop
  endfacet
  facet normal 0 0 1
    outer loop
      vertex 11.2903 0.0430593 6
      vertex 11 0 6
      vertex 11.1951 0.0192146 6
    endloop
  endfacet
  facet normal 0 0 1
    outer loop
      vertex 11.4714 0.118078 6
      vertex 11 0 6
      vertex 11.3827 0.0761204 6
    endloop
  endfacet
  facet normal 0 0 1
    outer loop
      vertex 11.7071 0.292892 6
      vertex 11 0 6
      vertex 11.6344 0.226989 6
    endloop
  endfacet
  facet normal 0 0 1
    outer loop
      vertex 11.8315 0.444429 6
      vertex 11 0 6
      vertex 11.773 0.365606 6
    endloop
  endfacet
  facet normal 0 0 1
    outer loop
      vertex 0 1 6
      vertex 6 22.35 6
      vertex 5.83827 22.3579 6
    endloop
  endfacet
  facet normal 0 0 1
    outer loop
      vertex 0 1 6
      vertex 5.83827 22.3579 6
      vertex 5.6781 22.3817 6
    endloop
  endfacet
  facet normal 0 0 1
    outer loop
      vertex 0 1 6
      vertex 5.6781 22.3817 6
      vertex 5.52103 22.421 6
    endloop
  endfacet
  facet normal 0 0 1
    outer loop
      vertex 0 1 6
      vertex 5.52103 22.421 6
      vertex 5.36857 22.4756 6
    endloop
  endfacet
  facet normal 0 0 1
    outer loop
      vertex 0 1 6
      vertex 5.36857 22.4756 6
      vertex 5.22219 22.5448 6
    endloop
  endfacet
  facet normal 0 0 1
    outer loop
      vertex 0 1 6
      vertex 5.22219 22.5448 6
      vertex 5.08331 22.6281 6
    endloop
  endfacet
  facet normal 0 0 1
    outer loop
      vertex 0 1 6
      vertex 5.08331 22.6281 6
      vertex 4.95325 22.7245 6
    endloop
  endfacet
  facet normal 0 0 1
    outer loop
      vertex 0 1 6
      vertex 4.95325 22.7245 6
      vertex 4.83327 22.8333 6
    endloop
  endfacet
  facet normal 0 0 1
    outer loop
      vertex 0 1 6
      vertex 4.83327 22.8333 6
      vertex 4.72453 22.9533 6
    endloop
  endfacet
  facet normal 0 0 1
    outer loop
      vertex 0 1 6
      vertex 4.72453 22.9533 6
      vertex 4.62807 23.0833 6
    endloop
  endfacet
  facet normal 0 0 1
    outer loop
      vertex 0 1 6
      vertex 4.62807 23.0833 6
      vertex 4.54483 23.2222 6
    endloop
  endfacet
  facet normal 0 0 1
    outer loop
      vertex 0 29 6
      vertex 4.54483 23.2222 6
      vertex 4.4756 23.3686 6
    endloop
  endfacet
  facet normal 0 0 1
    outer loop
      vertex 0 29 6
      vertex 4.4756 23.3686 6
      vertex 4.42105 23.521 6
    endloop
  endfacet
  facet normal 0 0 1
    outer loop
      vertex 4.35794 24.1617 6
      vertex 0 29 6
      vertex 4.35 24 6
    endloop
  endfacet
  facet normal 0 0 1
    outer loop
      vertex 4.35 24 6
      vertex 0 29 6
      vertex 4.35794 23.8383 6
    endloop
  endfacet
  facet normal 0 0 1
    outer loop
      vertex 4.35794 23.8383 6
      vertex 0 29 6
      vertex 4.3817 23.6781 6
    endloop
  endfacet
  facet normal 0 0 1
    outer loop
      vertex 4.3817 23.6781 6
      vertex 0 29 6
      vertex 4.42105 23.521 6
    endloop
  endfacet
  facet normal 0 0 1
    outer loop
      vertex 4.54483 23.2222 6
      vertex 0 29 6
      vertex 0 1 6
    endloop
  endfacet
  facet normal 0 0 1
    outer loop
      vertex 0 29 6
      vertex 1 30 6
      vertex 0.901982 29.9952 6
    endloop
  endfacet
  facet normal 0 0 1
    outer loop
      vertex 11.8819 0.528603 6
      vertex 11 0 6
      vertex 11.8315 0.444429 6
    endloop
  endfacet
  facet normal 0 0 1
    outer loop
      vertex 0 29 6
      vertex 0.901982 29.9952 6
      vertex 0.804909 29.9808 6
    endloop
  endfacet
  facet normal 0 0 1
    outer loop
      vertex 11 0 6
      vertex 0 1 6
      vertex 1 0 6
    endloop
  endfacet
  facet normal 0 0 1
    outer loop
      vertex 0 29 6
      vertex 0.804909 29.9808 6
      vertex 0.709715 29.9569 6
    endloop
  endfacet
  facet normal 0 0 1
    outer loop
      vertex 1 0 6
      vertex 0 1 6
      vertex 0.901982 0.0048151 6
    endloop
  endfacet
  facet normal 0 0 1
    outer loop
      vertex 0 29 6
      vertex 0.709715 29.9569 6
      vertex 0.617316 29.9239 6
    endloop
  endfacet
  facet normal 0 0 1
    outer loop
      vertex 0.901982 0.0048151 6
      vertex 0 1 6
      vertex 0.804909 0.0192146 6
    endloop
  endfacet
  facet normal 0 0 1
    outer loop
      vertex 0 29 6
      vertex 0.617316 29.9239 6
      vertex 0.528603 29.8819 6
    endloop
  endfacet
  facet normal 0 0 1
    outer loop
      vertex 0.804909 0.0192146 6
      vertex 0 1 6
      vertex 0.709715 0.0430593 6
    endloop
  endfacet
  facet normal 0 0 1
    outer loop
      vertex 0 29 6
      vertex 0.528603 29.8819 6
      vertex 0.444429 29.8315 6
    endloop
  endfacet
  facet normal 0 0 1
    outer loop
      vertex 0.709715 0.0430593 6
      vertex 0 1 6
      vertex 0.617316 0.0761204 6
    endloop
  endfacet
  facet normal 0 0 1
    outer loop
      vertex 0 29 6
      vertex 0.444429 29.8315 6
      vertex 0.365606 29.773 6
    endloop
  endfacet
  facet normal 0 0 1
    outer loop
      vertex 0.617316 0.0761204 6
      vertex 0 1 6
      vertex 0.528603 0.118078 6
    endloop
  endfacet
  facet normal 0 0 1
    outer loop
      vertex 0 29 6
      vertex 0.365606 29.773 6
      vertex 0.292892 29.7071 6
    endloop
  endfacet
  facet normal 0 0 1
    outer loop
      vertex 0.528603 0.118078 6
      vertex 0 1 6
      vertex 0.444429 0.16853 6
    endloop
  endfacet
  facet normal 0 0 1
    outer loop
      vertex 0 29 6
      vertex 0.292892 29.7071 6
      vertex 0.226989 29.6344 6
    endloop
  endfacet
  facet normal 0 0 1
    outer loop
      vertex 0.444429 0.16853 6
      vertex 0 1 6
      vertex 0.365606 0.226989 6
    endloop
  endfacet
  facet normal 0 0 1
    outer loop
      vertex 0 29 6
      vertex 0.226989 29.6344 6
      vertex 0.16853 29.5556 6
    endloop
  endfacet
  facet normal 0 0 1
    outer loop
      vertex 0.365606 0.226989 6
      vertex 0 1 6
      vertex 0.292892 0.292892 6
    endloop
  endfacet
  facet normal 0 0 1
    outer loop
      vertex 0 29 6
      vertex 0.16853 29.5556 6
      vertex 0.118078 29.4714 6
    endloop
  endfacet
  facet normal 0 0 1
    outer loop
      vertex 0.292892 0.292892 6
      vertex 0 1 6
      vertex 0.226989 0.365606 6
    endloop
  endfacet
  facet normal 0 0 1
    outer loop
      vertex 0 29 6
      vertex 0.118078 29.4714 6
      vertex 0.0761204 29.3827 6
    endloop
  endfacet
  facet normal 0 0 1
    outer loop
      vertex 0.226989 0.365606 6
      vertex 0 1 6
      vertex 0.16853 0.444429 6
    endloop
  endfacet
  facet normal 0 0 1
    outer loop
      vertex 0 29 6
      vertex 0.0761204 29.3827 6
      vertex 0.0430593 29.2903 6
    endloop
  endfacet
  facet normal 0 0 1
    outer loop
      vertex 0.16853 0.444429 6
      vertex 0 1 6
      vertex 0.118078 0.528603 6
    endloop
  endfacet
  facet normal 0 0 1
    outer loop
      vertex 0 29 6
      vertex 0.0430593 29.2903 6
      vertex 0.0192146 29.1951 6
    endloop
  endfacet
  facet normal 0 0 1
    outer loop
      vertex 0.118078 0.528603 6
      vertex 0 1 6
      vertex 0.0761204 0.617316 6
    endloop
  endfacet
  facet normal 0 0 1
    outer loop
      vertex 0 29 6
      vertex 0.0192146 29.1951 6
      vertex 0.0048151 29.098 6
    endloop
  endfacet
  facet normal 0 0 1
    outer loop
      vertex 0.0761204 0.617316 6
      vertex 0 1 6
      vertex 0.0430593 0.709715 6
    endloop
  endfacet
  facet normal 0 0 1
    outer loop
      vertex 0.0430593 0.709715 6
      vertex 0 1 6
      vertex 0.0192146 0.804909 6
    endloop
  endfacet
  facet normal 0 0 1
    outer loop
      vertex 0.0192146 0.804909 6
      vertex 0 1 6
      vertex 0.0048151 0.901982 6
    endloop
  endfacet
  facet normal 0.671607 0.740908 -0
    outer loop
      vertex 11.7071 29.7071 0
      vertex 11.6344 29.773 6
      vertex 11.7071 29.7071 6
    endloop
  endfacet
  facet normal 0.671607 0.740908 0
    outer loop
      vertex 11.6344 29.773 6
      vertex 11.7071 29.7071 0
      vertex 11.6344 29.773 0
    endloop
  endfacet
  facet normal 0.513596 0.858032 -0
    outer loop
      vertex 11.5556 29.8315 0
      vertex 11.4714 29.8819 6
      vertex 11.5556 29.8315 6
    endloop
  endfacet
  facet normal 0.513596 0.858032 0
    outer loop
      vertex 11.4714 29.8819 6
      vertex 11.5556 29.8315 0
      vertex 11.4714 29.8819 0
    endloop
  endfacet
  facet normal 0 -1 0
    outer loop
      vertex 1 0 0
      vertex 11 0 6
      vertex 1 0 6
    endloop
  endfacet
  facet normal 0 -1 -0
    outer loop
      vertex 11 0 6
      vertex 1 0 0
      vertex 11 0 0
    endloop
  endfacet
  facet normal -0.146736 0.989176 0
    outer loop
      vertex 0.901982 29.9952 0
      vertex 0.804909 29.9808 6
      vertex 0.901982 29.9952 6
    endloop
  endfacet
  facet normal -0.146736 0.989176 0
    outer loop
      vertex 0.804909 29.9808 6
      vertex 0.901982 29.9952 0
      vertex 0.804909 29.9808 0
    endloop
  endfacet
  facet normal -0.903967 0.427602 0
    outer loop
      vertex 0.0761204 29.3827 0
      vertex 0.118078 29.4714 6
      vertex 0.118078 29.4714 0
    endloop
  endfacet
  facet normal -0.903967 0.427602 0
    outer loop
      vertex 0.118078 29.4714 6
      vertex 0.0761204 29.3827 0
      vertex 0.0761204 29.3827 6
    endloop
  endfacet
  facet normal 0.969902 0.243494 0
    outer loop
      vertex 11.9808 29.1951 6
      vertex 11.9569 29.2903 0
      vertex 11.9569 29.2903 6
    endloop
  endfacet
  facet normal 0.969902 0.243494 0
    outer loop
      vertex 11.9569 29.2903 0
      vertex 11.9808 29.1951 6
      vertex 11.9808 29.1951 0
    endloop
  endfacet
  facet normal -0.146731 -0.989176 0
    outer loop
      vertex 0.804909 0.0192146 0
      vertex 0.901982 0.0048151 6
      vertex 0.804909 0.0192146 6
    endloop
  endfacet
  facet normal -0.146731 -0.989176 -0
    outer loop
      vertex 0.901982 0.0048151 6
      vertex 0.804909 0.0192146 0
      vertex 0.901982 0.0048151 0
    endloop
  endfacet
  facet normal 0.998803 -0.048912 0
    outer loop
      vertex 11.9952 0.901982 6
      vertex 12 1 0
      vertex 12 1 6
    endloop
  endfacet
  facet normal 0.998803 -0.048912 0
    outer loop
      vertex 12 1 0
      vertex 11.9952 0.901982 6
      vertex 11.9952 0.901982 0
    endloop
  endfacet
  facet normal 0.740972 -0.671536 0
    outer loop
      vertex 11.7071 0.292892 6
      vertex 11.773 0.365606 0
      vertex 11.773 0.365606 6
    endloop
  endfacet
  facet normal 0.740972 -0.671536 0
    outer loop
      vertex 11.773 0.365606 0
      vertex 11.7071 0.292892 6
      vertex 11.7071 0.292892 0
    endloop
  endfacet
  facet normal -0.671536 0.740972 0
    outer loop
      vertex 0.365606 29.773 0
      vertex 0.292892 29.7071 6
      vertex 0.365606 29.773 6
    endloop
  endfacet
  facet normal -0.671536 0.740972 0
    outer loop
      vertex 0.292892 29.7071 6
      vertex 0.365606 29.773 0
      vertex 0.292892 29.7071 0
    endloop
  endfacet
  facet normal 0.998803 0.0489209 0
    outer loop
      vertex 12 29 6
      vertex 11.9952 29.098 0
      vertex 11.9952 29.098 6
    endloop
  endfacet
  facet normal 0.998803 0.0489209 0
    outer loop
      vertex 11.9952 29.098 0
      vertex 12 29 6
      vertex 12 29 0
    endloop
  endfacet
  facet normal 0.243494 0.969902 -0
    outer loop
      vertex 11.2903 29.9569 0
      vertex 11.1951 29.9808 6
      vertex 11.2903 29.9569 6
    endloop
  endfacet
  facet normal 0.243494 0.969902 0
    outer loop
      vertex 11.1951 29.9808 6
      vertex 11.2903 29.9569 0
      vertex 11.1951 29.9808 0
    endloop
  endfacet
  facet normal 0.0489209 0.998803 -0
    outer loop
      vertex 11.098 29.9952 0
      vertex 11 30 6
      vertex 11.098 29.9952 6
    endloop
  endfacet
  facet normal 0.0489209 0.998803 0
    outer loop
      vertex 11 30 6
      vertex 11.098 29.9952 0
      vertex 11 30 0
    endloop
  endfacet
  facet normal 0.802925 0.59608 0
    outer loop
      vertex 11.8315 29.5556 6
      vertex 11.773 29.6344 0
      vertex 11.773 29.6344 6
    endloop
  endfacet
  facet normal 0.802925 0.59608 0
    outer loop
      vertex 11.773 29.6344 0
      vertex 11.8315 29.5556 6
      vertex 11.8315 29.5556 0
    endloop
  endfacet
  facet normal -0.514103 -0.857728 0
    outer loop
      vertex 0.444429 0.16853 0
      vertex 0.528603 0.118078 6
      vertex 0.444429 0.16853 6
    endloop
  endfacet
  facet normal -0.514103 -0.857728 -0
    outer loop
      vertex 0.528603 0.118078 6
      vertex 0.444429 0.16853 0
      vertex 0.528603 0.118078 0
    endloop
  endfacet
  facet normal -0.595968 0.803008 0
    outer loop
      vertex 0.444429 29.8315 0
      vertex 0.365606 29.773 6
      vertex 0.444429 29.8315 6
    endloop
  endfacet
  facet normal -0.595968 0.803008 0
    outer loop
      vertex 0.365606 29.773 6
      vertex 0.444429 29.8315 0
      vertex 0.365606 29.773 0
    endloop
  endfacet
  facet normal 0.146696 0.989182 -0
    outer loop
      vertex 11.1951 29.9808 0
      vertex 11.098 29.9952 6
      vertex 11.1951 29.9808 6
    endloop
  endfacet
  facet normal 0.146696 0.989182 0
    outer loop
      vertex 11.098 29.9952 6
      vertex 11.1951 29.9808 0
      vertex 11.098 29.9952 0
    endloop
  endfacet
  facet normal 0.0490745 -0.998795 0
    outer loop
      vertex 11 0 0
      vertex 11.098 0.0048151 6
      vertex 11 0 6
    endloop
  endfacet
  facet normal 0.0490745 -0.998795 0
    outer loop
      vertex 11.098 0.0048151 6
      vertex 11 0 0
      vertex 11.098 0.0048151 0
    endloop
  endfacet
  facet normal -0.998795 0.0490745 0
    outer loop
      vertex 0 29 0
      vertex 0.0048151 29.098 6
      vertex 0.0048151 29.098 0
    endloop
  endfacet
  facet normal -0.998795 0.0490745 0
    outer loop
      vertex 0.0048151 29.098 6
      vertex 0 29 0
      vertex 0 29 6
    endloop
  endfacet
  facet normal 0.336889 -0.941545 0
    outer loop
      vertex 11.2903 0.0430593 0
      vertex 11.3827 0.0761204 6
      vertex 11.2903 0.0430593 6
    endloop
  endfacet
  facet normal 0.336889 -0.941545 0
    outer loop
      vertex 11.3827 0.0761204 6
      vertex 11.2903 0.0430593 0
      vertex 11.3827 0.0761204 0
    endloop
  endfacet
  facet normal -0.048912 0.998803 0
    outer loop
      vertex 1 30 0
      vertex 0.901982 29.9952 6
      vertex 1 30 6
    endloop
  endfacet
  facet normal -0.048912 0.998803 0
    outer loop
      vertex 0.901982 29.9952 6
      vertex 1 30 0
      vertex 0.901982 29.9952 0
    endloop
  endfacet
  facet normal -0.989182 0.146691 0
    outer loop
      vertex 0.0048151 29.098 0
      vertex 0.0192146 29.1951 6
      vertex 0.0192146 29.1951 0
    endloop
  endfacet
  facet normal -0.989182 0.146691 0
    outer loop
      vertex 0.0192146 29.1951 6
      vertex 0.0048151 29.098 0
      vertex 0.0048151 29.098 6
    endloop
  endfacet
  facet normal 0.59608 0.802925 -0
    outer loop
      vertex 11.6344 29.773 0
      vertex 11.5556 29.8315 6
      vertex 11.6344 29.773 6
    endloop
  endfacet
  facet normal 0.59608 0.802925 0
    outer loop
      vertex 11.5556 29.8315 6
      vertex 11.6344 29.773 0
      vertex 11.5556 29.8315 0
    endloop
  endfacet
  facet normal 0.513986 -0.857798 0
    outer loop
      vertex 11.4714 0.118078 0
      vertex 11.5556 0.16853 6
      vertex 11.4714 0.118078 6
    endloop
  endfacet
  facet normal 0.513986 -0.857798 0
    outer loop
      vertex 11.5556 0.16853 6
      vertex 11.4714 0.118078 0
      vertex 11.5556 0.16853 0
    endloop
  endfacet
  facet normal -0.857798 0.513986 0
    outer loop
      vertex 0.118078 29.4714 0
      vertex 0.16853 29.5556 6
      vertex 0.16853 29.5556 0
    endloop
  endfacet
  facet normal -0.857798 0.513986 0
    outer loop
      vertex 0.16853 29.5556 6
      vertex 0.118078 29.4714 0
      vertex 0.118078 29.4714 6
    endloop
  endfacet
  facet normal 0.941742 0.336336 0
    outer loop
      vertex 11.9569 29.2903 6
      vertex 11.9239 29.3827 0
      vertex 11.9239 29.3827 6
    endloop
  endfacet
  facet normal 0.941742 0.336336 0
    outer loop
      vertex 11.9239 29.3827 0
      vertex 11.9569 29.2903 6
      vertex 11.9569 29.2903 0
    endloop
  endfacet
  facet normal -0.427904 0.903824 0
    outer loop
      vertex 0.617316 29.9239 0
      vertex 0.528603 29.8819 6
      vertex 0.617316 29.9239 6
    endloop
  endfacet
  facet normal -0.427904 0.903824 0
    outer loop
      vertex 0.528603 29.8819 6
      vertex 0.617316 29.9239 0
      vertex 0.528603 29.8819 0
    endloop
  endfacet
  facet normal -0.33634 0.941741 0
    outer loop
      vertex 0.709715 29.9569 0
      vertex 0.617316 29.9239 6
      vertex 0.709715 29.9569 6
    endloop
  endfacet
  facet normal -0.33634 0.941741 0
    outer loop
      vertex 0.617316 29.9239 6
      vertex 0.709715 29.9569 0
      vertex 0.617316 29.9239 0
    endloop
  endfacet
  facet normal -0.242979 -0.970032 0
    outer loop
      vertex 0.709715 0.0430593 0
      vertex 0.804909 0.0192146 6
      vertex 0.709715 0.0430593 6
    endloop
  endfacet
  facet normal -0.242979 -0.970032 -0
    outer loop
      vertex 0.804909 0.0192146 6
      vertex 0.709715 0.0430593 0
      vertex 0.804909 0.0192146 0
    endloop
  endfacet
  facet normal -0.740957 -0.671553 0
    outer loop
      vertex 0.292892 0.292892 0
      vertex 0.226989 0.365606 6
      vertex 0.226989 0.365606 0
    endloop
  endfacet
  facet normal -0.740957 -0.671553 0
    outer loop
      vertex 0.226989 0.365606 6
      vertex 0.292892 0.292892 0
      vertex 0.292892 0.292892 6
    endloop
  endfacet
  facet normal -0.803208 -0.595699 0
    outer loop
      vertex 0.226989 0.365606 0
      vertex 0.16853 0.444429 6
      vertex 0.16853 0.444429 0
    endloop
  endfacet
  facet normal -0.803208 -0.595699 0
    outer loop
      vertex 0.16853 0.444429 6
      vertex 0.226989 0.365606 0
      vertex 0.226989 0.365606 6
    endloop
  endfacet
  facet normal 0 0 -1
    outer loop
      vertex 11 0 0
      vertex 12 1 0
      vertex 11.9952 0.901982 0
    endloop
  endfacet
  facet normal 0 0 -1
    outer loop
      vertex 12 1 0
      vertex 7.45517 23.2222 0
      vertex 12 29 0
    endloop
  endfacet
  facet normal 0 0 -1
    outer loop
      vertex 11 0 0
      vertex 11.9952 0.901982 0
      vertex 11.9808 0.804909 0
    endloop
  endfacet
  facet normal 0 -0 -1
    outer loop
      vertex 7.5244 23.3686 0
      vertex 12 29 0
      vertex 7.45517 23.2222 0
    endloop
  endfacet
  facet normal 0 0 -1
    outer loop
      vertex 11 0 0
      vertex 11.9808 0.804909 0
      vertex 11.9569 0.709715 0
    endloop
  endfacet
  facet normal 0 -0 -1
    outer loop
      vertex 7.57895 23.521 0
      vertex 12 29 0
      vertex 7.5244 23.3686 0
    endloop
  endfacet
  facet normal 0 0 -1
    outer loop
      vertex 11 0 0
      vertex 11.9569 0.709715 0
      vertex 11.9239 0.617316 0
    endloop
  endfacet
  facet normal 0 -0 -1
    outer loop
      vertex 7.64205 23.8383 0
      vertex 12 29 0
      vertex 7.6183 23.6781 0
    endloop
  endfacet
  facet normal 0 0 -1
    outer loop
      vertex 11 0 0
      vertex 11.9239 0.617316 0
      vertex 11.8819 0.528603 0
    endloop
  endfacet
  facet normal 0 -0 -1
    outer loop
      vertex 7.65 24 0
      vertex 12 29 0
      vertex 7.64205 23.8383 0
    endloop
  endfacet
  facet normal 0 0 -1
    outer loop
      vertex 11 0 0
      vertex 11.8819 0.528603 0
      vertex 11.8315 0.444429 0
    endloop
  endfacet
  facet normal 0 0 -1
    outer loop
      vertex 7.64205 24.1617 0
      vertex 12 29 0
      vertex 7.65 24 0
    endloop
  endfacet
  facet normal 0 0 -1
    outer loop
      vertex 11 0 0
      vertex 11.8315 0.444429 0
      vertex 11.773 0.365606 0
    endloop
  endfacet
  facet normal 0 0 -1
    outer loop
      vertex 7.6183 24.3219 0
      vertex 12 29 0
      vertex 7.64205 24.1617 0
    endloop
  endfacet
  facet normal 0 0 -1
    outer loop
      vertex 11 0 0
      vertex 11.773 0.365606 0
      vertex 11.7071 0.292892 0
    endloop
  endfacet
  facet normal 0 0 -1
    outer loop
      vertex 7.57895 24.479 0
      vertex 12 29 0
      vertex 7.6183 24.3219 0
    endloop
  endfacet
  facet normal 0 0 -1
    outer loop
      vertex 11 0 0
      vertex 11.7071 0.292892 0
      vertex 11.6344 0.226989 0
    endloop
  endfacet
  facet normal 0 0 -1
    outer loop
      vertex 7.5244 24.6314 0
      vertex 12 29 0
      vertex 7.57895 24.479 0
    endloop
  endfacet
  facet normal 0 0 -1
    outer loop
      vertex 11 0 0
      vertex 11.6344 0.226989 0
      vertex 11.5556 0.16853 0
    endloop
  endfacet
  facet normal 0 0 -1
    outer loop
      vertex 7.45517 24.7778 0
      vertex 12 29 0
      vertex 7.5244 24.6314 0
    endloop
  endfacet
  facet normal 0 0 -1
    outer loop
      vertex 11 0 0
      vertex 11.5556 0.16853 0
      vertex 11.4714 0.118078 0
    endloop
  endfacet
  facet normal 0 0 -1
    outer loop
      vertex 7.37192 24.9167 0
      vertex 12 29 0
      vertex 7.45517 24.7778 0
    endloop
  endfacet
  facet normal 0 0 -1
    outer loop
      vertex 11 0 0
      vertex 11.4714 0.118078 0
      vertex 11.3827 0.0761204 0
    endloop
  endfacet
  facet normal 0 0 -1
    outer loop
      vertex 7.27547 25.0467 0
      vertex 12 29 0
      vertex 7.37192 24.9167 0
    endloop
  endfacet
  facet normal 0 0 -1
    outer loop
      vertex 11 0 0
      vertex 11.3827 0.0761204 0
      vertex 11.2903 0.0430593 0
    endloop
  endfacet
  facet normal 0 0 -1
    outer loop
      vertex 7.16673 25.1667 0
      vertex 12 29 0
      vertex 7.27547 25.0467 0
    endloop
  endfacet
  facet normal 0 0 -1
    outer loop
      vertex 11 0 0
      vertex 11.2903 0.0430593 0
      vertex 11.1951 0.0192146 0
    endloop
  endfacet
  facet normal 0 -0 -1
    outer loop
      vertex 11 30 0
      vertex 12 29 0
      vertex 7.16673 25.1667 0
    endloop
  endfacet
  facet normal 0 0 -1
    outer loop
      vertex 11 0 0
      vertex 11.1951 0.0192146 0
      vertex 11.098 0.0048151 0
    endloop
  endfacet
  facet normal 0 0 -1
    outer loop
      vertex 11.9952 29.098 0
      vertex 11 30 0
      vertex 11.9808 29.1951 0
    endloop
  endfacet
  facet normal -0 0 -1
    outer loop
      vertex 12 1 0
      vertex 11 0 0
      vertex 0 1 0
    endloop
  endfacet
  facet normal 0 0 -1
    outer loop
      vertex 11.9569 29.2903 0
      vertex 11 30 0
      vertex 11.9239 29.3827 0
    endloop
  endfacet
  facet normal 0 0 -1
    outer loop
      vertex 11.9239 29.3827 0
      vertex 11 30 0
      vertex 11.8819 29.4714 0
    endloop
  endfacet
  facet normal 0 0 -1
    outer loop
      vertex 11.7071 29.7071 0
      vertex 11 30 0
      vertex 11.6344 29.773 0
    endloop
  endfacet
  facet normal 0 0 -1
    outer loop
      vertex 11.773 29.6344 0
      vertex 11 30 0
      vertex 11.7071 29.7071 0
    endloop
  endfacet
  facet normal 0 0 -1
    outer loop
      vertex 11.8315 29.5556 0
      vertex 11 30 0
      vertex 11.773 29.6344 0
    endloop
  endfacet
  facet normal 0 0 -1
    outer loop
      vertex 11.9808 29.1951 0
      vertex 11 30 0
      vertex 11.9569 29.2903 0
    endloop
  endfacet
  facet normal 0 -0 -1
    outer loop
      vertex 7.6183 23.6781 0
      vertex 12 29 0
      vertex 7.57895 23.521 0
    endloop
  endfacet
  facet normal 0 0 -1
    outer loop
      vertex 12 1 0
      vertex 7.37192 23.0833 0
      vertex 7.45517 23.2222 0
    endloop
  endfacet
  facet normal 0 0 -1
    outer loop
      vertex 12 1 0
      vertex 7.27547 22.9533 0
      vertex 7.37192 23.0833 0
    endloop
  endfacet
  facet normal 0 0 -1
    outer loop
      vertex 12 1 0
      vertex 7.16673 22.8333 0
      vertex 7.27547 22.9533 0
    endloop
  endfacet
  facet normal 0 0 -1
    outer loop
      vertex 12 1 0
      vertex 7.04675 22.7245 0
      vertex 7.16673 22.8333 0
    endloop
  endfacet
  facet normal 0 0 -1
    outer loop
      vertex 12 1 0
      vertex 6.91669 22.6281 0
      vertex 7.04675 22.7245 0
    endloop
  endfacet
  facet normal 0 0 -1
    outer loop
      vertex 12 1 0
      vertex 6.7778 22.5448 0
      vertex 6.91669 22.6281 0
    endloop
  endfacet
  facet normal 0 0 -1
    outer loop
      vertex 12 1 0
      vertex 6.63143 22.4756 0
      vertex 6.7778 22.5448 0
    endloop
  endfacet
  facet normal 0 0 -1
    outer loop
      vertex 12 1 0
      vertex 6.47897 22.421 0
      vertex 6.63143 22.4756 0
    endloop
  endfacet
  facet normal 0 0 -1
    outer loop
      vertex 12 1 0
      vertex 6.3219 22.3817 0
      vertex 6.47897 22.421 0
    endloop
  endfacet
  facet normal 0 0 -1
    outer loop
      vertex 12 1 0
      vertex 6.16173 22.3579 0
      vertex 6.3219 22.3817 0
    endloop
  endfacet
  facet normal 0 0 -1
    outer loop
      vertex 12 1 0
      vertex 6 22.35 0
      vertex 6.16173 22.3579 0
    endloop
  endfacet
  facet normal 0 0 -1
    outer loop
      vertex 12 1 0
      vertex 0 1 0
      vertex 6 22.35 0
    endloop
  endfacet
  facet normal -0 0 -1
    outer loop
      vertex 6 22.35 0
      vertex 0 1 0
      vertex 5.83827 22.3579 0
    endloop
  endfacet
  facet normal -0 0 -1
    outer loop
      vertex 5.83827 22.3579 0
      vertex 0 1 0
      vertex 5.6781 22.3817 0
    endloop
  endfacet
  facet normal -0 0 -1
    outer loop
      vertex 5.6781 22.3817 0
      vertex 0 1 0
      vertex 5.52103 22.421 0
    endloop
  endfacet
  facet normal -0 0 -1
    outer loop
      vertex 5.52103 22.421 0
      vertex 0 1 0
      vertex 5.36857 22.4756 0
    endloop
  endfacet
  facet normal -0 0 -1
    outer loop
      vertex 5.36857 22.4756 0
      vertex 0 1 0
      vertex 5.22219 22.5448 0
    endloop
  endfacet
  facet normal -0 0 -1
    outer loop
      vertex 5.22219 22.5448 0
      vertex 0 1 0
      vertex 5.08331 22.6281 0
    endloop
  endfacet
  facet normal -0 0 -1
    outer loop
      vertex 5.08331 22.6281 0
      vertex 0 1 0
      vertex 4.95325 22.7245 0
    endloop
  endfacet
  facet normal -0 0 -1
    outer loop
      vertex 4.95325 22.7245 0
      vertex 0 1 0
      vertex 4.83327 22.8333 0
    endloop
  endfacet
  facet normal -0 0 -1
    outer loop
      vertex 4.83327 22.8333 0
      vertex 0 1 0
      vertex 4.72453 22.9533 0
    endloop
  endfacet
  facet normal -0 0 -1
    outer loop
      vertex 4.72453 22.9533 0
      vertex 0 1 0
      vertex 4.62807 23.0833 0
    endloop
  endfacet
  facet normal -0 0 -1
    outer loop
      vertex 4.62807 23.0833 0
      vertex 0 1 0
      vertex 4.54483 23.2222 0
    endloop
  endfacet
  facet normal 0 0 -1
    outer loop
      vertex 0 29 0
      vertex 4.54483 23.2222 0
      vertex 0 1 0
    endloop
  endfacet
  facet normal 0 0 -1
    outer loop
      vertex 4.42105 23.521 0
      vertex 0 29 0
      vertex 4.3817 23.6781 0
    endloop
  endfacet
  facet normal 0 0 -1
    outer loop
      vertex 4.4756 23.3686 0
      vertex 0 29 0
      vertex 4.42105 23.521 0
    endloop
  endfacet
  facet normal 0 0 -1
    outer loop
      vertex 4.54483 23.2222 0
      vertex 0 29 0
      vertex 4.4756 23.3686 0
    endloop
  endfacet
  facet normal 0 0 -1
    outer loop
      vertex 0 1 0
      vertex 11 0 0
      vertex 1 0 0
    endloop
  endfacet
  facet normal 0 0 -1
    outer loop
      vertex 11.5556 29.8315 0
      vertex 11 30 0
      vertex 11.4714 29.8819 0
    endloop
  endfacet
  facet normal 0 0 -1
    outer loop
      vertex 11.4714 29.8819 0
      vertex 11 30 0
      vertex 11.3827 29.9239 0
    endloop
  endfacet
  facet normal 0 0 -1
    outer loop
      vertex 11.3827 29.9239 0
      vertex 11 30 0
      vertex 11.2903 29.9569 0
    endloop
  endfacet
  facet normal 0 0 -1
    outer loop
      vertex 11.1951 29.9808 0
      vertex 11 30 0
      vertex 11.098 29.9952 0
    endloop
  endfacet
  facet normal 0 0 -1
    outer loop
      vertex 11.2903 29.9569 0
      vertex 11 30 0
      vertex 11.1951 29.9808 0
    endloop
  endfacet
  facet normal 0 0 -1
    outer loop
      vertex 11.6344 29.773 0
      vertex 11 30 0
      vertex 11.5556 29.8315 0
    endloop
  endfacet
  facet normal 0 0 -1
    outer loop
      vertex 11.8819 29.4714 0
      vertex 11 30 0
      vertex 11.8315 29.5556 0
    endloop
  endfacet
  facet normal 0 0 -1
    outer loop
      vertex 12 29 0
      vertex 11 30 0
      vertex 11.9952 29.098 0
    endloop
  endfacet
  facet normal 0 0 -1
    outer loop
      vertex 7.04675 25.2755 0
      vertex 11 30 0
      vertex 7.16673 25.1667 0
    endloop
  endfacet
  facet normal 0 0 -1
    outer loop
      vertex 6.91669 25.3719 0
      vertex 11 30 0
      vertex 7.04675 25.2755 0
    endloop
  endfacet
  facet normal 0 0 -1
    outer loop
      vertex 6.7778 25.4552 0
      vertex 11 30 0
      vertex 6.91669 25.3719 0
    endloop
  endfacet
  facet normal 0 0 -1
    outer loop
      vertex 6.63143 25.5244 0
      vertex 11 30 0
      vertex 6.7778 25.4552 0
    endloop
  endfacet
  facet normal 0 0 -1
    outer loop
      vertex 6.47897 25.579 0
      vertex 11 30 0
      vertex 6.63143 25.5244 0
    endloop
  endfacet
  facet normal 0 0 -1
    outer loop
      vertex 6.3219 25.6183 0
      vertex 11 30 0
      vertex 6.47897 25.579 0
    endloop
  endfacet
  facet normal 0 0 -1
    outer loop
      vertex 6.16173 25.6421 0
      vertex 11 30 0
      vertex 6.3219 25.6183 0
    endloop
  endfacet
  facet normal 0 0 -1
    outer loop
      vertex 6 25.65 0
      vertex 11 30 0
      vertex 6.16173 25.6421 0
    endloop
  endfacet
  facet normal 0 0 -1
    outer loop
      vertex 1 30 0
      vertex 6 25.65 0
      vertex 5.83827 25.6421 0
    endloop
  endfacet
  facet normal 0 0 -1
    outer loop
      vertex 1 30 0
      vertex 5.83827 25.6421 0
      vertex 5.6781 25.6183 0
    endloop
  endfacet
  facet normal 0 0 -1
    outer loop
      vertex 1 30 0
      vertex 5.6781 25.6183 0
      vertex 5.52103 25.579 0
    endloop
  endfacet
  facet normal 0 0 -1
    outer loop
      vertex 1 30 0
      vertex 5.52103 25.579 0
      vertex 5.36857 25.5244 0
    endloop
  endfacet
  facet normal 0 0 -1
    outer loop
      vertex 1 30 0
      vertex 5.36857 25.5244 0
      vertex 5.22219 25.4552 0
    endloop
  endfacet
  facet normal 0 0 -1
    outer loop
      vertex 1 30 0
      vertex 5.22219 25.4552 0
      vertex 5.08331 25.3719 0
    endloop
  endfacet
  facet normal 0 0 -1
    outer loop
      vertex 1 30 0
      vertex 5.08331 25.3719 0
      vertex 4.95325 25.2755 0
    endloop
  endfacet
  facet normal 0 0 -1
    outer loop
      vertex 4.3817 23.6781 0
      vertex 0 29 0
      vertex 4.35794 23.8383 0
    endloop
  endfacet
  facet normal 0 0 -1
    outer loop
      vertex 6 25.65 0
      vertex 1 30 0
      vertex 11 30 0
    endloop
  endfacet
  facet normal 0 0 -1
    outer loop
      vertex 4.83327 25.1667 0
      vertex 1 30 0
      vertex 4.95325 25.2755 0
    endloop
  endfacet
  facet normal 0 0 -1
    outer loop
      vertex 0 29 0
      vertex 4.83327 25.1667 0
      vertex 4.72453 25.0467 0
    endloop
  endfacet
  facet normal 0 0 -1
    outer loop
      vertex 0 29 0
      vertex 4.72453 25.0467 0
      vertex 4.62807 24.9167 0
    endloop
  endfacet
  facet normal 0 0 -1
    outer loop
      vertex 0 29 0
      vertex 4.62807 24.9167 0
      vertex 4.54483 24.7778 0
    endloop
  endfacet
  facet normal 0 0 -1
    outer loop
      vertex 0 29 0
      vertex 4.54483 24.7778 0
      vertex 4.4756 24.6314 0
    endloop
  endfacet
  facet normal 0 0 -1
    outer loop
      vertex 0 29 0
      vertex 4.4756 24.6314 0
      vertex 4.42105 24.479 0
    endloop
  endfacet
  facet normal 0 0 -1
    outer loop
      vertex 0 29 0
      vertex 4.42105 24.479 0
      vertex 4.3817 24.3219 0
    endloop
  endfacet
  facet normal 0 0 -1
    outer loop
      vertex 0 29 0
      vertex 4.3817 24.3219 0
      vertex 4.35794 24.1617 0
    endloop
  endfacet
  facet normal 0 0 -1
    outer loop
      vertex 4.35794 23.8383 0
      vertex 0 29 0
      vertex 4.35 24 0
    endloop
  endfacet
  facet normal 0 0 -1
    outer loop
      vertex 0 1 0
      vertex 1 0 0
      vertex 0.901982 0.0048151 0
    endloop
  endfacet
  facet normal 0 0 -1
    outer loop
      vertex 4.35 24 0
      vertex 0 29 0
      vertex 4.35794 24.1617 0
    endloop
  endfacet
  facet normal 0 0 -1
    outer loop
      vertex 0 1 0
      vertex 0.901982 0.0048151 0
      vertex 0.804909 0.0192146 0
    endloop
  endfacet
  facet normal 0 0 -1
    outer loop
      vertex 4.83327 25.1667 0
      vertex 0 29 0
      vertex 1 30 0
    endloop
  endfacet
  facet normal 0 0 -1
    outer loop
      vertex 0 1 0
      vertex 0.804909 0.0192146 0
      vertex 0.709715 0.0430593 0
    endloop
  endfacet
  facet normal 0 0 -1
    outer loop
      vertex 1 30 0
      vertex 0 29 0
      vertex 0.901982 29.9952 0
    endloop
  endfacet
  facet normal 0 0 -1
    outer loop
      vertex 0 1 0
      vertex 0.709715 0.0430593 0
      vertex 0.617316 0.0761204 0
    endloop
  endfacet
  facet normal 0 0 -1
    outer loop
      vertex 0.901982 29.9952 0
      vertex 0 29 0
      vertex 0.804909 29.9808 0
    endloop
  endfacet
  facet normal 0 0 -1
    outer loop
      vertex 0 1 0
      vertex 0.617316 0.0761204 0
      vertex 0.528603 0.118078 0
    endloop
  endfacet
  facet normal 0 0 -1
    outer loop
      vertex 0.804909 29.9808 0
      vertex 0 29 0
      vertex 0.709715 29.9569 0
    endloop
  endfacet
  facet normal 0 0 -1
    outer loop
      vertex 0 1 0
      vertex 0.528603 0.118078 0
      vertex 0.444429 0.16853 0
    endloop
  endfacet
  facet normal 0 0 -1
    outer loop
      vertex 0.709715 29.9569 0
      vertex 0 29 0
      vertex 0.617316 29.9239 0
    endloop
  endfacet
  facet normal 0 0 -1
    outer loop
      vertex 0 1 0
      vertex 0.444429 0.16853 0
      vertex 0.365606 0.226989 0
    endloop
  endfacet
  facet normal 0 0 -1
    outer loop
      vertex 0.617316 29.9239 0
      vertex 0 29 0
      vertex 0.528603 29.8819 0
    endloop
  endfacet
  facet normal 0 0 -1
    outer loop
      vertex 0 1 0
      vertex 0.365606 0.226989 0
      vertex 0.292892 0.292892 0
    endloop
  endfacet
  facet normal 0 0 -1
    outer loop
      vertex 0.528603 29.8819 0
      vertex 0 29 0
      vertex 0.444429 29.8315 0
    endloop
  endfacet
  facet normal 0 0 -1
    outer loop
      vertex 0 1 0
      vertex 0.292892 0.292892 0
      vertex 0.226989 0.365606 0
    endloop
  endfacet
  facet normal 0 0 -1
    outer loop
      vertex 0.444429 29.8315 0
      vertex 0 29 0
      vertex 0.365606 29.773 0
    endloop
  endfacet
  facet normal 0 0 -1
    outer loop
      vertex 0 1 0
      vertex 0.226989 0.365606 0
      vertex 0.16853 0.444429 0
    endloop
  endfacet
  facet normal 0 0 -1
    outer loop
      vertex 0.365606 29.773 0
      vertex 0 29 0
      vertex 0.292892 29.7071 0
    endloop
  endfacet
  facet normal 0 0 -1
    outer loop
      vertex 0 1 0
      vertex 0.16853 0.444429 0
      vertex 0.118078 0.528603 0
    endloop
  endfacet
  facet normal 0 0 -1
    outer loop
      vertex 0.292892 29.7071 0
      vertex 0 29 0
      vertex 0.226989 29.6344 0
    endloop
  endfacet
  facet normal 0 0 -1
    outer loop
      vertex 0 1 0
      vertex 0.118078 0.528603 0
      vertex 0.0761204 0.617316 0
    endloop
  endfacet
  facet normal 0 0 -1
    outer loop
      vertex 0.226989 29.6344 0
      vertex 0 29 0
      vertex 0.16853 29.5556 0
    endloop
  endfacet
  facet normal 0 0 -1
    outer loop
      vertex 0 1 0
      vertex 0.0761204 0.617316 0
      vertex 0.0430593 0.709715 0
    endloop
  endfacet
  facet normal 0 0 -1
    outer loop
      vertex 0.16853 29.5556 0
      vertex 0 29 0
      vertex 0.118078 29.4714 0
    endloop
  endfacet
  facet normal 0 0 -1
    outer loop
      vertex 0 1 0
      vertex 0.0430593 0.709715 0
      vertex 0.0192146 0.804909 0
    endloop
  endfacet
  facet normal 0 0 -1
    outer loop
      vertex 0.118078 29.4714 0
      vertex 0 29 0
      vertex 0.0761204 29.3827 0
    endloop
  endfacet
  facet normal 0 0 -1
    outer loop
      vertex 0 1 0
      vertex 0.0192146 0.804909 0
      vertex 0.0048151 0.901982 0
    endloop
  endfacet
  facet normal 0 0 -1
    outer loop
      vertex 0.0761204 29.3827 0
      vertex 0 29 0
      vertex 0.0430593 29.2903 0
    endloop
  endfacet
  facet normal 0 0 -1
    outer loop
      vertex 0.0430593 29.2903 0
      vertex 0 29 0
      vertex 0.0192146 29.1951 0
    endloop
  endfacet
  facet normal 0 0 -1
    outer loop
      vertex 0.0192146 29.1951 0
      vertex 0 29 0
      vertex 0.0048151 29.098 0
    endloop
  endfacet
  facet normal 0.857962 -0.513713 0
    outer loop
      vertex 11.8315 0.444429 6
      vertex 11.8819 0.528603 0
      vertex 11.8819 0.528603 6
    endloop
  endfacet
  facet normal 0.857962 -0.513713 0
    outer loop
      vertex 11.8819 0.528603 0
      vertex 11.8315 0.444429 6
      vertex 11.8315 0.444429 0
    endloop
  endfacet
  facet normal -0.970032 -0.242979 0
    outer loop
      vertex 0.0430593 0.709715 0
      vertex 0.0192146 0.804909 6
      vertex 0.0192146 0.804909 0
    endloop
  endfacet
  facet normal -0.970032 -0.242979 0
    outer loop
      vertex 0.0192146 0.804909 6
      vertex 0.0430593 0.709715 0
      vertex 0.0430593 0.709715 6
    endloop
  endfacet
  facet normal -0.989176 -0.146731 0
    outer loop
      vertex 0.0192146 0.804909 0
      vertex 0.0048151 0.901982 6
      vertex 0.0048151 0.901982 0
    endloop
  endfacet
  facet normal -0.989176 -0.146731 0
    outer loop
      vertex 0.0048151 0.901982 6
      vertex 0.0192146 0.804909 0
      vertex 0.0192146 0.804909 6
    endloop
  endfacet
  facet normal 0.146691 -0.989182 0
    outer loop
      vertex 11.098 0.0048151 0
      vertex 11.1951 0.0192146 6
      vertex 11.098 0.0048151 6
    endloop
  endfacet
  facet normal 0.146691 -0.989182 0
    outer loop
      vertex 11.1951 0.0192146 6
      vertex 11.098 0.0048151 0
      vertex 11.1951 0.0192146 0
    endloop
  endfacet
  facet normal 0.242964 -0.970035 0
    outer loop
      vertex 11.1951 0.0192146 0
      vertex 11.2903 0.0430593 6
      vertex 11.1951 0.0192146 6
    endloop
  endfacet
  facet normal 0.242964 -0.970035 0
    outer loop
      vertex 11.2903 0.0430593 6
      vertex 11.1951 0.0192146 0
      vertex 11.2903 0.0430593 0
    endloop
  endfacet
  facet normal -0.427551 -0.903991 0
    outer loop
      vertex 0.528603 0.118078 0
      vertex 0.617316 0.0761204 6
      vertex 0.528603 0.118078 6
    endloop
  endfacet
  facet normal -0.427551 -0.903991 -0
    outer loop
      vertex 0.617316 0.0761204 6
      vertex 0.528603 0.118078 0
      vertex 0.617316 0.0761204 0
    endloop
  endfacet
  facet normal -0.595699 -0.803208 0
    outer loop
      vertex 0.365606 0.226989 0
      vertex 0.444429 0.16853 6
      vertex 0.365606 0.226989 6
    endloop
  endfacet
  facet normal -0.595699 -0.803208 -0
    outer loop
      vertex 0.444429 0.16853 6
      vertex 0.365606 0.226989 0
      vertex 0.444429 0.16853 0
    endloop
  endfacet
  facet normal -0.989189 -0.146649 0
    outer loop
      vertex 7.64205 24.1617 0
      vertex 7.6183 24.3219 6
      vertex 7.6183 24.3219 0
    endloop
  endfacet
  facet normal -0.989189 -0.146649 0
    outer loop
      vertex 7.6183 24.3219 6
      vertex 7.64205 24.1617 0
      vertex 7.64205 24.1617 6
    endloop
  endfacet
  facet normal -0.998794 -0.0491058 0
    outer loop
      vertex 7.65 24 0
      vertex 7.64205 24.1617 6
      vertex 7.64205 24.1617 0
    endloop
  endfacet
  facet normal -0.998794 -0.0491058 0
    outer loop
      vertex 7.64205 24.1617 6
      vertex 7.65 24 0
      vertex 7.65 24 6
    endloop
  endfacet
  facet normal -0.970033 -0.242971 0
    outer loop
      vertex 7.6183 24.3219 0
      vertex 7.57895 24.479 6
      vertex 7.57895 24.479 0
    endloop
  endfacet
  facet normal -0.970033 -0.242971 0
    outer loop
      vertex 7.57895 24.479 6
      vertex 7.6183 24.3219 0
      vertex 7.6183 24.3219 6
    endloop
  endfacet
  facet normal 0.242725 -0.970095 0
    outer loop
      vertex 5.52103 25.579 0
      vertex 5.6781 25.6183 6
      vertex 5.52103 25.579 6
    endloop
  endfacet
  facet normal 0.242725 -0.970095 0
    outer loop
      vertex 5.6781 25.6183 6
      vertex 5.52103 25.579 0
      vertex 5.6781 25.6183 0
    endloop
  endfacet
  facet normal 0.904018 0.427494 0
    outer loop
      vertex 4.54483 23.2222 6
      vertex 4.4756 23.3686 0
      vertex 4.4756 23.3686 6
    endloop
  endfacet
  facet normal 0.904018 0.427494 0
    outer loop
      vertex 4.4756 23.3686 0
      vertex 4.54483 23.2222 6
      vertex 4.54483 23.2222 0
    endloop
  endfacet
  facet normal -0.427414 0.904056 0
    outer loop
      vertex 6.7778 22.5448 0
      vertex 6.63143 22.4756 6
      vertex 6.7778 22.5448 6
    endloop
  endfacet
  facet normal -0.427414 0.904056 0
    outer loop
      vertex 6.63143 22.4756 6
      vertex 6.7778 22.5448 0
      vertex 6.63143 22.4756 0
    endloop
  endfacet
  facet normal -0.514341 -0.857586 0
    outer loop
      vertex 6.7778 25.4552 0
      vertex 6.91669 25.3719 6
      vertex 6.7778 25.4552 6
    endloop
  endfacet
  facet normal -0.514341 -0.857586 -0
    outer loop
      vertex 6.91669 25.3719 6
      vertex 6.7778 25.4552 0
      vertex 6.91669 25.3719 0
    endloop
  endfacet
  facet normal -0.514341 0.857586 0
    outer loop
      vertex 6.91669 22.6281 0
      vertex 6.7778 22.5448 6
      vertex 6.91669 22.6281 6
    endloop
  endfacet
  facet normal -0.514341 0.857586 0
    outer loop
      vertex 6.7778 22.5448 6
      vertex 6.91669 22.6281 0
      vertex 6.7778 22.5448 0
    endloop
  endfacet
  facet normal -0.337158 0.941448 0
    outer loop
      vertex 6.63143 22.4756 0
      vertex 6.47897 22.421 6
      vertex 6.63143 22.4756 6
    endloop
  endfacet
  facet normal -0.337158 0.941448 0
    outer loop
      vertex 6.47897 22.421 6
      vertex 6.63143 22.4756 0
      vertex 6.47897 22.421 0
    endloop
  endfacet
  facet normal 0.970033 -0.242971 0
    outer loop
      vertex 4.3817 24.3219 6
      vertex 4.42105 24.479 0
      vertex 4.42105 24.479 6
    endloop
  endfacet
  facet normal 0.970033 -0.242971 0
    outer loop
      vertex 4.42105 24.479 0
      vertex 4.3817 24.3219 6
      vertex 4.3817 24.3219 0
    endloop
  endfacet
  facet normal 0.67175 -0.740778 0
    outer loop
      vertex 4.83327 25.1667 0
      vertex 4.95325 25.2755 6
      vertex 4.83327 25.1667 6
    endloop
  endfacet
  facet normal 0.67175 -0.740778 0
    outer loop
      vertex 4.95325 25.2755 6
      vertex 4.83327 25.1667 0
      vertex 4.95325 25.2755 0
    endloop
  endfacet
  facet normal 0.514369 -0.857569 0
    outer loop
      vertex 5.08331 25.3719 0
      vertex 5.22219 25.4552 6
      vertex 5.08331 25.3719 6
    endloop
  endfacet
  facet normal 0.514369 -0.857569 0
    outer loop
      vertex 5.22219 25.4552 6
      vertex 5.08331 25.3719 0
      vertex 5.22219 25.4552 0
    endloop
  endfacet
  facet normal -0.146978 0.98914 0
    outer loop
      vertex 6.3219 22.3817 0
      vertex 6.16173 22.3579 6
      vertex 6.3219 22.3817 6
    endloop
  endfacet
  facet normal -0.146978 0.98914 0
    outer loop
      vertex 6.16173 22.3579 6
      vertex 6.3219 22.3817 0
      vertex 6.16173 22.3579 0
    endloop
  endfacet
  facet normal 0.803073 -0.59588 0
    outer loop
      vertex 4.62807 24.9167 6
      vertex 4.72453 25.0467 0
      vertex 4.72453 25.0467 6
    endloop
  endfacet
  facet normal 0.803073 -0.59588 0
    outer loop
      vertex 4.72453 25.0467 0
      vertex 4.62807 24.9167 6
      vertex 4.62807 24.9167 0
    endloop
  endfacet
  facet normal -0.904018 -0.427494 0
    outer loop
      vertex 7.5244 24.6314 0
      vertex 7.45517 24.7778 6
      vertex 7.45517 24.7778 0
    endloop
  endfacet
  facet normal -0.904018 -0.427494 0
    outer loop
      vertex 7.45517 24.7778 6
      vertex 7.5244 24.6314 0
      vertex 7.5244 24.6314 6
    endloop
  endfacet
  facet normal 0.941504 -0.337002 0
    outer loop
      vertex 4.42105 24.479 6
      vertex 4.4756 24.6314 0
      vertex 4.4756 24.6314 6
    endloop
  endfacet
  facet normal 0.941504 -0.337002 0
    outer loop
      vertex 4.4756 24.6314 0
      vertex 4.42105 24.479 6
      vertex 4.42105 24.479 0
    endloop
  endfacet
  facet normal 0.337158 0.941448 -0
    outer loop
      vertex 5.52103 22.421 0
      vertex 5.36857 22.4756 6
      vertex 5.52103 22.421 6
    endloop
  endfacet
  facet normal 0.337158 0.941448 0
    outer loop
      vertex 5.36857 22.4756 6
      vertex 5.52103 22.421 0
      vertex 5.36857 22.4756 0
    endloop
  endfacet
  facet normal -0.595464 -0.803382 0
    outer loop
      vertex 6.91669 25.3719 0
      vertex 7.04675 25.2755 6
      vertex 6.91669 25.3719 6
    endloop
  endfacet
  facet normal -0.595464 -0.803382 -0
    outer loop
      vertex 7.04675 25.2755 6
      vertex 6.91669 25.3719 0
      vertex 7.04675 25.2755 0
    endloop
  endfacet
  facet normal 0.904018 -0.427494 0
    outer loop
      vertex 4.4756 24.6314 6
      vertex 4.54483 24.7778 0
      vertex 4.54483 24.7778 6
    endloop
  endfacet
  facet normal 0.904018 -0.427494 0
    outer loop
      vertex 4.54483 24.7778 0
      vertex 4.4756 24.6314 6
      vertex 4.4756 24.6314 0
    endloop
  endfacet
  facet normal -0.803103 0.59584 0
    outer loop
      vertex 7.27547 22.9533 0
      vertex 7.37192 23.0833 6
      vertex 7.37192 23.0833 0
    endloop
  endfacet
  facet normal -0.803103 0.59584 0
    outer loop
      vertex 7.37192 23.0833 6
      vertex 7.27547 22.9533 0
      vertex 7.27547 22.9533 6
    endloop
  endfacet
  facet normal -0.146978 -0.98914 0
    outer loop
      vertex 6.16173 25.6421 0
      vertex 6.3219 25.6183 6
      vertex 6.16173 25.6421 6
    endloop
  endfacet
  facet normal -0.146978 -0.98914 -0
    outer loop
      vertex 6.3219 25.6183 6
      vertex 6.16173 25.6421 0
      vertex 6.3219 25.6183 0
    endloop
  endfacet
  facet normal 0.98918 -0.14671 0
    outer loop
      vertex 4.35794 24.1617 6
      vertex 4.3817 24.3219 0
      vertex 4.3817 24.3219 6
    endloop
  endfacet
  facet normal 0.98918 -0.14671 0
    outer loop
      vertex 4.3817 24.3219 0
      vertex 4.35794 24.1617 6
      vertex 4.35794 24.1617 0
    endloop
  endfacet
  facet normal -0.803103 -0.59584 0
    outer loop
      vertex 7.37192 24.9167 0
      vertex 7.27547 25.0467 6
      vertex 7.27547 25.0467 0
    endloop
  endfacet
  facet normal -0.803103 -0.59584 0
    outer loop
      vertex 7.27547 25.0467 6
      vertex 7.37192 24.9167 0
      vertex 7.37192 24.9167 6
    endloop
  endfacet
  facet normal -0.0487887 -0.998809 0
    outer loop
      vertex 6 25.65 0
      vertex 6.16173 25.6421 6
      vertex 6 25.65 6
    endloop
  endfacet
  facet normal -0.0487887 -0.998809 -0
    outer loop
      vertex 6.16173 25.6421 6
      vertex 6 25.65 0
      vertex 6.16173 25.6421 0
    endloop
  endfacet
  facet normal 0.146978 -0.98914 0
    outer loop
      vertex 5.6781 25.6183 0
      vertex 5.83827 25.6421 6
      vertex 5.6781 25.6183 6
    endloop
  endfacet
  facet normal 0.146978 -0.98914 0
    outer loop
      vertex 5.83827 25.6421 6
      vertex 5.6781 25.6183 0
      vertex 5.83827 25.6421 0
    endloop
  endfacet
  facet normal 0.857765 0.514042 0
    outer loop
      vertex 4.62807 23.0833 6
      vertex 4.54483 23.2222 0
      vertex 4.54483 23.2222 6
    endloop
  endfacet
  facet normal 0.857765 0.514042 0
    outer loop
      vertex 4.54483 23.2222 0
      vertex 4.62807 23.0833 6
      vertex 4.62807 23.0833 0
    endloop
  endfacet
  facet normal 0.941504 0.337002 0
    outer loop
      vertex 4.4756 23.3686 6
      vertex 4.42105 23.521 0
      vertex 4.42105 23.521 6
    endloop
  endfacet
  facet normal 0.941504 0.337002 0
    outer loop
      vertex 4.42105 23.521 0
      vertex 4.4756 23.3686 6
      vertex 4.4756 23.3686 0
    endloop
  endfacet
  facet normal 0.427391 -0.904067 0
    outer loop
      vertex 5.22219 25.4552 0
      vertex 5.36857 25.5244 6
      vertex 5.22219 25.4552 6
    endloop
  endfacet
  facet normal 0.427391 -0.904067 0
    outer loop
      vertex 5.36857 25.5244 6
      vertex 5.22219 25.4552 0
      vertex 5.36857 25.5244 0
    endloop
  endfacet
  facet normal -0.904018 0.427494 0
    outer loop
      vertex 7.45517 23.2222 0
      vertex 7.5244 23.3686 6
      vertex 7.5244 23.3686 0
    endloop
  endfacet
  facet normal -0.904018 0.427494 0
    outer loop
      vertex 7.5244 23.3686 6
      vertex 7.45517 23.2222 0
      vertex 7.45517 23.2222 6
    endloop
  endfacet
  facet normal 0.595464 0.803382 -0
    outer loop
      vertex 5.08331 22.6281 0
      vertex 4.95325 22.7245 6
      vertex 5.08331 22.6281 6
    endloop
  endfacet
  facet normal 0.595464 0.803382 0
    outer loop
      vertex 4.95325 22.7245 6
      vertex 5.08331 22.6281 0
      vertex 4.95325 22.7245 0
    endloop
  endfacet
  facet normal 0.857765 -0.514042 0
    outer loop
      vertex 4.54483 24.7778 6
      vertex 4.62807 24.9167 0
      vertex 4.62807 24.9167 6
    endloop
  endfacet
  facet normal 0.857765 -0.514042 0
    outer loop
      vertex 4.62807 24.9167 0
      vertex 4.54483 24.7778 6
      vertex 4.54483 24.7778 0
    endloop
  endfacet
  facet normal -0.998794 0.0491058 0
    outer loop
      vertex 7.64205 23.8383 0
      vertex 7.65 24 6
      vertex 7.65 24 0
    endloop
  endfacet
  facet normal -0.998794 0.0491058 0
    outer loop
      vertex 7.65 24 6
      vertex 7.64205 23.8383 0
      vertex 7.64205 23.8383 6
    endloop
  endfacet
  facet normal -0.941504 0.337002 0
    outer loop
      vertex 7.5244 23.3686 0
      vertex 7.57895 23.521 6
      vertex 7.57895 23.521 0
    endloop
  endfacet
  facet normal -0.941504 0.337002 0
    outer loop
      vertex 7.57895 23.521 6
      vertex 7.5244 23.3686 0
      vertex 7.5244 23.3686 6
    endloop
  endfacet
  facet normal -0.242725 0.970095 0
    outer loop
      vertex 6.47897 22.421 0
      vertex 6.3219 22.3817 6
      vertex 6.47897 22.421 6
    endloop
  endfacet
  facet normal -0.242725 0.970095 0
    outer loop
      vertex 6.3219 22.3817 6
      vertex 6.47897 22.421 0
      vertex 6.3219 22.3817 0
    endloop
  endfacet
  facet normal -0.941504 -0.337002 0
    outer loop
      vertex 7.57895 24.479 0
      vertex 7.5244 24.6314 6
      vertex 7.5244 24.6314 0
    endloop
  endfacet
  facet normal -0.941504 -0.337002 0
    outer loop
      vertex 7.5244 24.6314 6
      vertex 7.57895 24.479 0
      vertex 7.57895 24.479 6
    endloop
  endfacet
  facet normal 0.998797 0.0490442 0
    outer loop
      vertex 4.35794 23.8383 6
      vertex 4.35 24 0
      vertex 4.35 24 6
    endloop
  endfacet
  facet normal 0.998797 0.0490442 0
    outer loop
      vertex 4.35 24 0
      vertex 4.35794 23.8383 6
      vertex 4.35794 23.8383 0
    endloop
  endfacet
  facet normal -0.989189 0.146649 0
    outer loop
      vertex 7.6183 23.6781 0
      vertex 7.64205 23.8383 6
      vertex 7.64205 23.8383 0
    endloop
  endfacet
  facet normal -0.989189 0.146649 0
    outer loop
      vertex 7.64205 23.8383 6
      vertex 7.6183 23.6781 0
      vertex 7.6183 23.6781 6
    endloop
  endfacet
  facet normal 0.67175 0.740778 -0
    outer loop
      vertex 4.95325 22.7245 0
      vertex 4.83327 22.8333 6
      vertex 4.95325 22.7245 6
    endloop
  endfacet
  facet normal 0.67175 0.740778 0
    outer loop
      vertex 4.83327 22.8333 6
      vertex 4.95325 22.7245 0
      vertex 4.83327 22.8333 0
    endloop
  endfacet
  facet normal -0.970033 0.242971 0
    outer loop
      vertex 7.57895 23.521 0
      vertex 7.6183 23.6781 6
      vertex 7.6183 23.6781 0
    endloop
  endfacet
  facet normal -0.970033 0.242971 0
    outer loop
      vertex 7.6183 23.6781 6
      vertex 7.57895 23.521 0
      vertex 7.57895 23.521 6
    endloop
  endfacet
  facet normal -0.67175 -0.740778 0
    outer loop
      vertex 7.04675 25.2755 0
      vertex 7.16673 25.1667 6
      vertex 7.04675 25.2755 6
    endloop
  endfacet
  facet normal -0.67175 -0.740778 -0
    outer loop
      vertex 7.16673 25.1667 6
      vertex 7.04675 25.2755 0
      vertex 7.16673 25.1667 0
    endloop
  endfacet
  facet normal -0.337158 -0.941448 0
    outer loop
      vertex 6.47897 25.579 0
      vertex 6.63143 25.5244 6
      vertex 6.47897 25.579 6
    endloop
  endfacet
  facet normal -0.337158 -0.941448 -0
    outer loop
      vertex 6.63143 25.5244 6
      vertex 6.47897 25.579 0
      vertex 6.63143 25.5244 0
    endloop
  endfacet
  facet normal 0.337158 -0.941448 0
    outer loop
      vertex 5.36857 25.5244 0
      vertex 5.52103 25.579 6
      vertex 5.36857 25.5244 6
    endloop
  endfacet
  facet normal 0.337158 -0.941448 0
    outer loop
      vertex 5.52103 25.579 6
      vertex 5.36857 25.5244 0
      vertex 5.52103 25.579 0
    endloop
  endfacet
  facet normal 0.514369 0.857569 -0
    outer loop
      vertex 5.22219 22.5448 0
      vertex 5.08331 22.6281 6
      vertex 5.22219 22.5448 6
    endloop
  endfacet
  facet normal 0.514369 0.857569 0
    outer loop
      vertex 5.08331 22.6281 6
      vertex 5.22219 22.5448 0
      vertex 5.08331 22.6281 0
    endloop
  endfacet
  facet normal -0.857738 0.514087 0
    outer loop
      vertex 7.37192 23.0833 0
      vertex 7.45517 23.2222 6
      vertex 7.45517 23.2222 0
    endloop
  endfacet
  facet normal -0.857738 0.514087 0
    outer loop
      vertex 7.45517 23.2222 6
      vertex 7.37192 23.0833 0
      vertex 7.37192 23.0833 6
    endloop
  endfacet
  facet normal -0.427414 -0.904056 0
    outer loop
      vertex 6.63143 25.5244 0
      vertex 6.7778 25.4552 6
      vertex 6.63143 25.5244 6
    endloop
  endfacet
  facet normal -0.427414 -0.904056 -0
    outer loop
      vertex 6.7778 25.4552 6
      vertex 6.63143 25.5244 0
      vertex 6.7778 25.4552 0
    endloop
  endfacet
  facet normal 0.146978 0.98914 -0
    outer loop
      vertex 5.83827 22.3579 0
      vertex 5.6781 22.3817 6
      vertex 5.83827 22.3579 6
    endloop
  endfacet
  facet normal 0.146978 0.98914 0
    outer loop
      vertex 5.6781 22.3817 6
      vertex 5.83827 22.3579 0
      vertex 5.6781 22.3817 0
    endloop
  endfacet
  facet normal -0.857738 -0.514087 0
    outer loop
      vertex 7.45517 24.7778 0
      vertex 7.37192 24.9167 6
      vertex 7.37192 24.9167 0
    endloop
  endfacet
  facet normal -0.857738 -0.514087 0
    outer loop
      vertex 7.37192 24.9167 6
      vertex 7.45517 24.7778 0
      vertex 7.45517 24.7778 6
    endloop
  endfacet
  facet normal 0.595464 -0.803382 0
    outer loop
      vertex 4.95325 25.2755 0
      vertex 5.08331 25.3719 6
      vertex 4.95325 25.2755 6
    endloop
  endfacet
  facet normal 0.595464 -0.803382 0
    outer loop
      vertex 5.08331 25.3719 6
      vertex 4.95325 25.2755 0
      vertex 5.08331 25.3719 0
    endloop
  endfacet
  facet normal 0.0487887 0.998809 -0
    outer loop
      vertex 6 22.35 0
      vertex 5.83827 22.3579 6
      vertex 6 22.35 6
    endloop
  endfacet
  facet normal 0.0487887 0.998809 0
    outer loop
      vertex 5.83827 22.3579 6
      vertex 6 22.35 0
      vertex 5.83827 22.3579 0
    endloop
  endfacet
  facet normal 0.741018 -0.671486 0
    outer loop
      vertex 4.72453 25.0467 6
      vertex 4.83327 25.1667 0
      vertex 4.83327 25.1667 6
    endloop
  endfacet
  facet normal 0.741018 -0.671486 0
    outer loop
      vertex 4.83327 25.1667 0
      vertex 4.72453 25.0467 6
      vertex 4.72453 25.0467 0
    endloop
  endfacet
  facet normal -0.0487887 0.998809 0
    outer loop
      vertex 6.16173 22.3579 0
      vertex 6 22.35 6
      vertex 6.16173 22.3579 6
    endloop
  endfacet
  facet normal -0.0487887 0.998809 0
    outer loop
      vertex 6 22.35 6
      vertex 6.16173 22.3579 0
      vertex 6 22.35 0
    endloop
  endfacet
  facet normal 0.242725 0.970095 -0
    outer loop
      vertex 5.6781 22.3817 0
      vertex 5.52103 22.421 6
      vertex 5.6781 22.3817 6
    endloop
  endfacet
  facet normal 0.242725 0.970095 0
    outer loop
      vertex 5.52103 22.421 6
      vertex 5.6781 22.3817 0
      vertex 5.52103 22.421 0
    endloop
  endfacet
  facet normal -0.67175 0.740778 0
    outer loop
      vertex 7.16673 22.8333 0
      vertex 7.04675 22.7245 6
      vertex 7.16673 22.8333 6
    endloop
  endfacet
  facet normal -0.67175 0.740778 0
    outer loop
      vertex 7.04675 22.7245 6
      vertex 7.16673 22.8333 0
      vertex 7.04675 22.7245 0
    endloop
  endfacet
  facet normal -0.242725 -0.970095 0
    outer loop
      vertex 6.3219 25.6183 0
      vertex 6.47897 25.579 6
      vertex 6.3219 25.6183 6
    endloop
  endfacet
  facet normal -0.242725 -0.970095 -0
    outer loop
      vertex 6.47897 25.579 6
      vertex 6.3219 25.6183 0
      vertex 6.47897 25.579 0
    endloop
  endfacet
  facet normal 0.970033 0.242971 0
    outer loop
      vertex 4.42105 23.521 6
      vertex 4.3817 23.6781 0
      vertex 4.3817 23.6781 6
    endloop
  endfacet
  facet normal 0.970033 0.242971 0
    outer loop
      vertex 4.3817 23.6781 0
      vertex 4.42105 23.521 6
      vertex 4.42105 23.521 0
    endloop
  endfacet
  facet normal 0.427391 0.904067 -0
    outer loop
      vertex 5.36857 22.4756 0
      vertex 5.22219 22.5448 6
      vertex 5.36857 22.4756 6
    endloop
  endfacet
  facet normal 0.427391 0.904067 0
    outer loop
      vertex 5.22219 22.5448 6
      vertex 5.36857 22.4756 0
      vertex 5.22219 22.5448 0
    endloop
  endfacet
  facet normal 0.741018 0.671486 0
    outer loop
      vertex 4.83327 22.8333 6
      vertex 4.72453 22.9533 0
      vertex 4.72453 22.9533 6
    endloop
  endfacet
  facet normal 0.741018 0.671486 0
    outer loop
      vertex 4.72453 22.9533 0
      vertex 4.83327 22.8333 6
      vertex 4.83327 22.8333 0
    endloop
  endfacet
  facet normal 0.0487887 -0.998809 0
    outer loop
      vertex 5.83827 25.6421 0
      vertex 6 25.65 6
      vertex 5.83827 25.6421 6
    endloop
  endfacet
  facet normal 0.0487887 -0.998809 0
    outer loop
      vertex 6 25.65 6
      vertex 5.83827 25.6421 0
      vertex 6 25.65 0
    endloop
  endfacet
  facet normal 0.98918 0.14671 0
    outer loop
      vertex 4.3817 23.6781 6
      vertex 4.35794 23.8383 0
      vertex 4.35794 23.8383 6
    endloop
  endfacet
  facet normal 0.98918 0.14671 0
    outer loop
      vertex 4.35794 23.8383 0
      vertex 4.3817 23.6781 6
      vertex 4.3817 23.6781 0
    endloop
  endfacet
  facet normal -0.741018 -0.671486 0
    outer loop
      vertex 7.27547 25.0467 0
      vertex 7.16673 25.1667 6
      vertex 7.16673 25.1667 0
    endloop
  endfacet
  facet normal -0.741018 -0.671486 0
    outer loop
      vertex 7.16673 25.1667 6
      vertex 7.27547 25.0467 0
      vertex 7.27547 25.0467 6
    endloop
  endfacet
  facet normal -0.595464 0.803382 0
    outer loop
      vertex 7.04675 22.7245 0
      vertex 6.91669 22.6281 6
      vertex 7.04675 22.7245 6
    endloop
  endfacet
  facet normal -0.595464 0.803382 0
    outer loop
      vertex 6.91669 22.6281 6
      vertex 7.04675 22.7245 0
      vertex 6.91669 22.6281 0
    endloop
  endfacet
  facet normal 0.803073 0.59588 0
    outer loop
      vertex 4.72453 22.9533 6
      vertex 4.62807 23.0833 0
      vertex 4.62807 23.0833 6
    endloop
  endfacet
  facet normal 0.803073 0.59588 0
    outer loop
      vertex 4.62807 23.0833 0
      vertex 4.72453 22.9533 6
      vertex 4.72453 22.9533 0
    endloop
  endfacet
  facet normal 0.998797 -0.0490442 0
    outer loop
      vertex 4.35 24 6
      vertex 4.35794 24.1617 0
      vertex 4.35794 24.1617 6
    endloop
  endfacet
  facet normal 0.998797 -0.0490442 0
    outer loop
      vertex 4.35794 24.1617 0
      vertex 4.35 24 6
      vertex 4.35 24 0
    endloop
  endfacet
  facet normal -0.741018 0.671486 0
    outer loop
      vertex 7.16673 22.8333 0
      vertex 7.27547 22.9533 6
      vertex 7.27547 22.9533 0
    endloop
  endfacet
  facet normal -0.741018 0.671486 0
    outer loop
      vertex 7.27547 22.9533 6
      vertex 7.16673 22.8333 0
      vertex 7.16673 22.8333 6
    endloop
  endfacet
endsolid OpenSCAD_Model
