solid OpenSCAD_Model
  facet normal 0.997859 0.065402 0
    outer loop
      vertex 4 0 3
      vertex 3.96578 0.522105 0
      vertex 3.96578 0.522105 3
    endloop
  endfacet
  facet normal 0.997859 0.065402 0
    outer loop
      vertex 3.96578 0.522105 0
      vertex 4 0 3
      vertex 4 0 0
    endloop
  endfacet
  facet normal 0.980784 0.195096 0
    outer loop
      vertex 3.96578 0.522105 3
      vertex 3.8637 1.03528 0
      vertex 3.8637 1.03528 3
    endloop
  endfacet
  facet normal 0.980784 0.195096 0
    outer loop
      vertex 3.8637 1.03528 0
      vertex 3.96578 0.522105 3
      vertex 3.96578 0.522105 0
    endloop
  endfacet
  facet normal 0.946932 0.321435 0
    outer loop
      vertex 3.8637 1.03528 3
      vertex 3.69552 1.53073 0
      vertex 3.69552 1.53073 3
    endloop
  endfacet
  facet normal 0.946932 0.321435 0
    outer loop
      vertex 3.69552 1.53073 0
      vertex 3.8637 1.03528 3
      vertex 3.8637 1.03528 0
    endloop
  endfacet
  facet normal 0.896871 0.442291 0
    outer loop
      vertex 3.69552 1.53073 3
      vertex 3.4641 2 0
      vertex 3.4641 2 3
    endloop
  endfacet
  facet normal 0.896871 0.442291 0
    outer loop
      vertex 3.4641 2 0
      vertex 3.69552 1.53073 3
      vertex 3.69552 1.53073 0
    endloop
  endfacet
  facet normal 0.831471 0.555569 0
    outer loop
      vertex 3.4641 2 3
      vertex 3.17341 2.43505 0
      vertex 3.17341 2.43505 3
    endloop
  endfacet
  facet normal 0.831471 0.555569 0
    outer loop
      vertex 3.17341 2.43505 0
      vertex 3.4641 2 3
      vertex 3.4641 2 0
    endloop
  endfacet
  facet normal 0.751845 0.65934 0
    outer loop
      vertex 3.17341 2.43505 3
      vertex 2.82843 2.82843 0
      vertex 2.82843 2.82843 3
    endloop
  endfacet
  facet normal 0.751845 0.65934 0
    outer loop
      vertex 2.82843 2.82843 0
      vertex 3.17341 2.43505 3
      vertex 3.17341 2.43505 0
    endloop
  endfacet
  facet normal 0.65934 0.751845 -0
    outer loop
      vertex 2.82843 2.82843 0
      vertex 2.43505 3.17341 3
      vertex 2.82843 2.82843 3
    endloop
  endfacet
  facet normal 0.65934 0.751845 0
    outer loop
      vertex 2.43505 3.17341 3
      vertex 2.82843 2.82843 0
      vertex 2.43505 3.17341 0
    endloop
  endfacet
  facet normal 0.555569 0.831471 -0
    outer loop
      vertex 2.43505 3.17341 0
      vertex 2 3.4641 3
      vertex 2.43505 3.17341 3
    endloop
  endfacet
  facet normal 0.555569 0.831471 0
    outer loop
      vertex 2 3.4641 3
      vertex 2.43505 3.17341 0
      vertex 2 3.4641 0
    endloop
  endfacet
  facet normal 0.442291 0.896871 -0
    outer loop
      vertex 2 3.4641 0
      vertex 1.53073 3.69552 3
      vertex 2 3.4641 3
    endloop
  endfacet
  facet normal 0.442291 0.896871 0
    outer loop
      vertex 1.53073 3.69552 3
      vertex 2 3.4641 0
      vertex 1.53073 3.69552 0
    endloop
  endfacet
  facet normal 0.321435 0.946932 -0
    outer loop
      vertex 1.53073 3.69552 0
      vertex 1.03528 3.8637 3
      vertex 1.53073 3.69552 3
    endloop
  endfacet
  facet normal 0.321435 0.946932 0
    outer loop
      vertex 1.03528 3.8637 3
      vertex 1.53073 3.69552 0
      vertex 1.03528 3.8637 0
    endloop
  endfacet
  facet normal 0.195096 0.980784 -0
    outer loop
      vertex 1.03528 3.8637 0
      vertex 0.522105 3.96578 3
      vertex 1.03528 3.8637 3
    endloop
  endfacet
  facet normal 0.195096 0.980784 0
    outer loop
      vertex 0.522105 3.96578 3
      vertex 1.03528 3.8637 0
      vertex 0.522105 3.96578 0
    endloop
  endfacet
  facet normal 0.065402 0.997859 -0
    outer loop
      vertex 0.522105 3.96578 0
      vertex 0 4 3
      vertex 0.522105 3.96578 3
    endloop
  endfacet
  facet normal 0.065402 0.997859 0
    outer loop
      vertex 0 4 3
      vertex 0.522105 3.96578 0
      vertex 0 4 0
    endloop
  endfacet
  facet normal -0.065402 0.997859 0
    outer loop
      vertex 0 4 0
      vertex -0.522105 3.96578 3
      vertex 0 4 3
    endloop
  endfacet
  facet normal -0.065402 0.997859 0
    outer loop
      vertex -0.522105 3.96578 3
      vertex 0 4 0
      vertex -0.522105 3.96578 0
    endloop
  endfacet
  facet normal -0.195096 0.980784 0
    outer loop
      vertex -0.522105 3.96578 0
      vertex -1.03528 3.8637 3
      vertex -0.522105 3.96578 3
    endloop
  endfacet
  facet normal -0.195096 0.980784 0
    outer loop
      vertex -1.03528 3.8637 3
      vertex -0.522105 3.96578 0
      vertex -1.03528 3.8637 0
    endloop
  endfacet
  facet normal -0.321435 0.946932 0
    outer loop
      vertex -1.03528 3.8637 0
      vertex -1.53073 3.69552 3
      vertex -1.03528 3.8637 3
    endloop
  endfacet
  facet normal -0.321435 0.946932 0
    outer loop
      vertex -1.53073 3.69552 3
      vertex -1.03528 3.8637 0
      vertex -1.53073 3.69552 0
    endloop
  endfacet
  facet normal -0.442291 0.896871 0
    outer loop
      vertex -1.53073 3.69552 0
      vertex -2 3.4641 3
      vertex -1.53073 3.69552 3
    endloop
  endfacet
  facet normal -0.442291 0.896871 0
    outer loop
      vertex -2 3.4641 3
      vertex -1.53073 3.69552 0
      vertex -2 3.4641 0
    endloop
  endfacet
  facet normal -0.555569 0.831471 0
    outer loop
      vertex -2 3.4641 0
      vertex -2.43505 3.17341 3
      vertex -2 3.4641 3
    endloop
  endfacet
  facet normal -0.555569 0.831471 0
    outer loop
      vertex -2.43505 3.17341 3
      vertex -2 3.4641 0
      vertex -2.43505 3.17341 0
    endloop
  endfacet
  facet normal -0.65934 0.751845 0
    outer loop
      vertex -2.43505 3.17341 0
      vertex -2.82843 2.82843 3
      vertex -2.43505 3.17341 3
    endloop
  endfacet
  facet normal -0.65934 0.751845 0
    outer loop
      vertex -2.82843 2.82843 3
      vertex -2.43505 3.17341 0
      vertex -2.82843 2.82843 0
    endloop
  endfacet
  facet normal -0.751845 0.65934 0
    outer loop
      vertex -3.17341 2.43505 0
      vertex -2.82843 2.82843 3
      vertex -2.82843 2.82843 0
    endloop
  endfacet
  facet normal -0.751845 0.65934 0
    outer loop
      vertex -2.82843 2.82843 3
      vertex -3.17341 2.43505 0
      vertex -3.17341 2.43505 3
    endloop
  endfacet
  facet normal -0.831471 0.555569 0
    outer loop
      vertex -3.4641 2 0
      vertex -3.17341 2.43505 3
      vertex -3.17341 2.43505 0
    endloop
  endfacet
  facet normal -0.831471 0.555569 0
    outer loop
      vertex -3.17341 2.43505 3
      vertex -3.4641 2 0
      vertex -3.4641 2 3
    endloop
  endfacet
  facet normal -0.896871 0.442291 0
    outer loop
      vertex -3.69552 1.53073 0
      vertex -3.4641 2 3
      vertex -3.4641 2 0
    endloop
  endfacet
  facet normal -0.896871 0.442291 0
    outer loop
      vertex -3.4641 2 3
      vertex -3.69552 1.53073 0
      vertex -3.69552 1.53073 3
    endloop
  endfacet
  facet normal -0.946932 0.321435 0
    outer loop
      vertex -3.8637 1.03528 0
      vertex -3.69552 1.53073 3
      vertex -3.69552 1.53073 0
    endloop
  endfacet
  facet normal -0.946932 0.321435 0
    outer loop
      vertex -3.69552 1.53073 3
      vertex -3.8637 1.03528 0
      vertex -3.8637 1.03528 3
    endloop
  endfacet
  facet normal -0.980784 0.195096 0
    outer loop
      vertex -3.96578 0.522105 0
      vertex -3.8637 1.03528 3
      vertex -3.8637 1.03528 0
    endloop
  endfacet
  facet normal -0.980784 0.195096 0
    outer loop
      vertex -3.8637 1.03528 3
      vertex -3.96578 0.522105 0
      vertex -3.96578 0.522105 3
    endloop
  endfacet
  facet normal -0.997859 0.065402 0
    outer loop
      vertex -4 -0 0
      vertex -3.96578 0.522105 3
      vertex -3.96578 0.522105 0
    endloop
  endfacet
  facet normal -0.997859 0.065402 0
    outer loop
      vertex -3.96578 0.522105 3
      vertex -4 -0 0
      vertex -4 -0 3
    endloop
  endfacet
  facet normal -0.997859 -0.065402 0
    outer loop
      vertex -3.96578 -0.522105 0
      vertex -4 -0 3
      vertex -4 -0 0
    endloop
  endfacet
  facet normal -0.997859 -0.065402 0
    outer loop
      vertex -4 -0 3
      vertex -3.96578 -0.522105 0
      vertex -3.96578 -0.522105 3
    endloop
  endfacet
  facet normal -0.980784 -0.195096 0
    outer loop
      vertex -3.8637 -1.03528 0
      vertex -3.96578 -0.522105 3
      vertex -3.96578 -0.522105 0
    endloop
  endfacet
  facet normal -0.980784 -0.195096 0
    outer loop
      vertex -3.96578 -0.522105 3
      vertex -3.8637 -1.03528 0
      vertex -3.8637 -1.03528 3
    endloop
  endfacet
  facet normal -0.946932 -0.321435 0
    outer loop
      vertex -3.69552 -1.53073 0
      vertex -3.8637 -1.03528 3
      vertex -3.8637 -1.03528 0
    endloop
  endfacet
  facet normal -0.946932 -0.321435 0
    outer loop
      vertex -3.8637 -1.03528 3
      vertex -3.69552 -1.53073 0
      vertex -3.69552 -1.53073 3
    endloop
  endfacet
  facet normal -0.896871 -0.442291 0
    outer loop
      vertex -3.4641 -2 0
      vertex -3.69552 -1.53073 3
      vertex -3.69552 -1.53073 0
    endloop
  endfacet
  facet normal -0.896871 -0.442291 0
    outer loop
      vertex -3.69552 -1.53073 3
      vertex -3.4641 -2 0
      vertex -3.4641 -2 3
    endloop
  endfacet
  facet normal -0.831471 -0.555569 0
    outer loop
      vertex -3.17341 -2.43505 0
      vertex -3.4641 -2 3
      vertex -3.4641 -2 0
    endloop
  endfacet
  facet normal -0.831471 -0.555569 0
    outer loop
      vertex -3.4641 -2 3
      vertex -3.17341 -2.43505 0
      vertex -3.17341 -2.43505 3
    endloop
  endfacet
  facet normal -0.751845 -0.65934 0
    outer loop
      vertex -2.82843 -2.82843 0
      vertex -3.17341 -2.43505 3
      vertex -3.17341 -2.43505 0
    endloop
  endfacet
  facet normal -0.751845 -0.65934 0
    outer loop
      vertex -3.17341 -2.43505 3
      vertex -2.82843 -2.82843 0
      vertex -2.82843 -2.82843 3
    endloop
  endfacet
  facet normal -0.65934 -0.751845 0
    outer loop
      vertex -2.82843 -2.82843 0
      vertex -2.43505 -3.17341 3
      vertex -2.82843 -2.82843 3
    endloop
  endfacet
  facet normal -0.65934 -0.751845 -0
    outer loop
      vertex -2.43505 -3.17341 3
      vertex -2.82843 -2.82843 0
      vertex -2.43505 -3.17341 0
    endloop
  endfacet
  facet normal -0.555569 -0.831471 0
    outer loop
      vertex -2.43505 -3.17341 0
      vertex -2 -3.4641 3
      vertex -2.43505 -3.17341 3
    endloop
  endfacet
  facet normal -0.555569 -0.831471 -0
    outer loop
      vertex -2 -3.4641 3
      vertex -2.43505 -3.17341 0
      vertex -2 -3.4641 0
    endloop
  endfacet
  facet normal -0.442291 -0.896871 0
    outer loop
      vertex -2 -3.4641 0
      vertex -1.53073 -3.69552 3
      vertex -2 -3.4641 3
    endloop
  endfacet
  facet normal -0.442291 -0.896871 -0
    outer loop
      vertex -1.53073 -3.69552 3
      vertex -2 -3.4641 0
      vertex -1.53073 -3.69552 0
    endloop
  endfacet
  facet normal -0.321435 -0.946932 0
    outer loop
      vertex -1.53073 -3.69552 0
      vertex -1.03528 -3.8637 3
      vertex -1.53073 -3.69552 3
    endloop
  endfacet
  facet normal -0.321435 -0.946932 -0
    outer loop
      vertex -1.03528 -3.8637 3
      vertex -1.53073 -3.69552 0
      vertex -1.03528 -3.8637 0
    endloop
  endfacet
  facet normal -0.195096 -0.980784 0
    outer loop
      vertex -1.03528 -3.8637 0
      vertex -0.522105 -3.96578 3
      vertex -1.03528 -3.8637 3
    endloop
  endfacet
  facet normal -0.195096 -0.980784 -0
    outer loop
      vertex -0.522105 -3.96578 3
      vertex -1.03528 -3.8637 0
      vertex -0.522105 -3.96578 0
    endloop
  endfacet
  facet normal -0.065402 -0.997859 0
    outer loop
      vertex -0.522105 -3.96578 0
      vertex -0 -4 3
      vertex -0.522105 -3.96578 3
    endloop
  endfacet
  facet normal -0.065402 -0.997859 -0
    outer loop
      vertex -0 -4 3
      vertex -0.522105 -3.96578 0
      vertex -0 -4 0
    endloop
  endfacet
  facet normal 0.065402 -0.997859 0
    outer loop
      vertex -0 -4 0
      vertex 0.522105 -3.96578 3
      vertex -0 -4 3
    endloop
  endfacet
  facet normal 0.065402 -0.997859 0
    outer loop
      vertex 0.522105 -3.96578 3
      vertex -0 -4 0
      vertex 0.522105 -3.96578 0
    endloop
  endfacet
  facet normal 0.195096 -0.980784 0
    outer loop
      vertex 0.522105 -3.96578 0
      vertex 1.03528 -3.8637 3
      vertex 0.522105 -3.96578 3
    endloop
  endfacet
  facet normal 0.195096 -0.980784 0
    outer loop
      vertex 1.03528 -3.8637 3
      vertex 0.522105 -3.96578 0
      vertex 1.03528 -3.8637 0
    endloop
  endfacet
  facet normal 0.321435 -0.946932 0
    outer loop
      vertex 1.03528 -3.8637 0
      vertex 1.53073 -3.69552 3
      vertex 1.03528 -3.8637 3
    endloop
  endfacet
  facet normal 0.321435 -0.946932 0
    outer loop
      vertex 1.53073 -3.69552 3
      vertex 1.03528 -3.8637 0
      vertex 1.53073 -3.69552 0
    endloop
  endfacet
  facet normal 0.442291 -0.896871 0
    outer loop
      vertex 1.53073 -3.69552 0
      vertex 2 -3.4641 3
      vertex 1.53073 -3.69552 3
    endloop
  endfacet
  facet normal 0.442291 -0.896871 0
    outer loop
      vertex 2 -3.4641 3
      vertex 1.53073 -3.69552 0
      vertex 2 -3.4641 0
    endloop
  endfacet
  facet normal 0.555569 -0.831471 0
    outer loop
      vertex 2 -3.4641 0
      vertex 2.43505 -3.17341 3
      vertex 2 -3.4641 3
    endloop
  endfacet
  facet normal 0.555569 -0.831471 0
    outer loop
      vertex 2.43505 -3.17341 3
      vertex 2 -3.4641 0
      vertex 2.43505 -3.17341 0
    endloop
  endfacet
  facet normal 0.65934 -0.751845 0
    outer loop
      vertex 2.43505 -3.17341 0
      vertex 2.82843 -2.82843 3
      vertex 2.43505 -3.17341 3
    endloop
  endfacet
  facet normal 0.65934 -0.751845 0
    outer loop
      vertex 2.82843 -2.82843 3
      vertex 2.43505 -3.17341 0
      vertex 2.82843 -2.82843 0
    endloop
  endfacet
  facet normal 0.751845 -0.65934 0
    outer loop
      vertex 2.82843 -2.82843 3
      vertex 3.17341 -2.43505 0
      vertex 3.17341 -2.43505 3
    endloop
  endfacet
  facet normal 0.751845 -0.65934 0
    outer loop
      vertex 3.17341 -2.43505 0
      vertex 2.82843 -2.82843 3
      vertex 2.82843 -2.82843 0
    endloop
  endfacet
  facet normal 0.831471 -0.555569 0
    outer loop
      vertex 3.17341 -2.43505 3
      vertex 3.4641 -2 0
      vertex 3.4641 -2 3
    endloop
  endfacet
  facet normal 0.831471 -0.555569 0
    outer loop
      vertex 3.4641 -2 0
      vertex 3.17341 -2.43505 3
      vertex 3.17341 -2.43505 0
    endloop
  endfacet
  facet normal 0.896871 -0.442291 0
    outer loop
      vertex 3.4641 -2 3
      vertex 3.69552 -1.53073 0
      vertex 3.69552 -1.53073 3
    endloop
  endfacet
  facet normal 0.896871 -0.442291 0
    outer loop
      vertex 3.69552 -1.53073 0
      vertex 3.4641 -2 3
      vertex 3.4641 -2 0
    endloop
  endfacet
  facet normal 0.946932 -0.321435 0
    outer loop
      vertex 3.69552 -1.53073 3
      vertex 3.8637 -1.03528 0
      vertex 3.8637 -1.03528 3
    endloop
  endfacet
  facet normal 0.946932 -0.321435 0
    outer loop
      vertex 3.8637 -1.03528 0
      vertex 3.69552 -1.53073 3
      vertex 3.69552 -1.53073 0
    endloop
  endfacet
  facet normal 0.980784 -0.195096 0
    outer loop
      vertex 3.8637 -1.03528 3
      vertex 3.96578 -0.522105 0
      vertex 3.96578 -0.522105 3
    endloop
  endfacet
  facet normal 0.980784 -0.195096 0
    outer loop
      vertex 3.96578 -0.522105 0
      vertex 3.8637 -1.03528 3
      vertex 3.8637 -1.03528 0
    endloop
  endfacet
  facet normal 0.997859 -0.065402 0
    outer loop
      vertex 3.96578 -0.522105 3
      vertex 4 0 0
      vertex 4 0 3
    endloop
  endfacet
  facet normal 0.997859 -0.065402 0
    outer loop
      vertex 4 0 0
      vertex 3.96578 -0.522105 3
      vertex 3.96578 -0.522105 0
    endloop
  endfacet
  facet normal 0 0 -1
    outer loop
      vertex 3.96578 -0.522105 0
      vertex 3.96578 0.522105 0
      vertex 4 0 0
    endloop
  endfacet
  facet normal 0 0 -1
    outer loop
      vertex 3.8637 -1.03528 0
      vertex 3.96578 0.522105 0
      vertex 3.96578 -0.522105 0
    endloop
  endfacet
  facet normal 0 0 -1
    outer loop
      vertex 3.8637 -1.03528 0
      vertex 3.8637 1.03528 0
      vertex 3.96578 0.522105 0
    endloop
  endfacet
  facet normal 0 0 -1
    outer loop
      vertex 3.69552 -1.53073 0
      vertex 3.8637 1.03528 0
      vertex 3.8637 -1.03528 0
    endloop
  endfacet
  facet normal 0 0 -1
    outer loop
      vertex 3.69552 -1.53073 0
      vertex 3.69552 1.53073 0
      vertex 3.8637 1.03528 0
    endloop
  endfacet
  facet normal 0 0 -1
    outer loop
      vertex 3.4641 -2 0
      vertex 3.69552 1.53073 0
      vertex 3.69552 -1.53073 0
    endloop
  endfacet
  facet normal 0 0 -1
    outer loop
      vertex 3.4641 -2 0
      vertex 3.4641 2 0
      vertex 3.69552 1.53073 0
    endloop
  endfacet
  facet normal 0 0 -1
    outer loop
      vertex 3.17341 -2.43505 0
      vertex 3.4641 2 0
      vertex 3.4641 -2 0
    endloop
  endfacet
  facet normal 0 0 -1
    outer loop
      vertex 3.17341 -2.43505 0
      vertex 3.17341 2.43505 0
      vertex 3.4641 2 0
    endloop
  endfacet
  facet normal 0 0 -1
    outer loop
      vertex 2.82843 -2.82843 0
      vertex 3.17341 2.43505 0
      vertex 3.17341 -2.43505 0
    endloop
  endfacet
  facet normal 0 0 -1
    outer loop
      vertex 2.82843 -2.82843 0
      vertex 2.82843 2.82843 0
      vertex 3.17341 2.43505 0
    endloop
  endfacet
  facet normal 0 0 -1
    outer loop
      vertex 2.43505 -3.17341 0
      vertex 2.82843 2.82843 0
      vertex 2.82843 -2.82843 0
    endloop
  endfacet
  facet normal 0 0 -1
    outer loop
      vertex 2.43505 -3.17341 0
      vertex 2.43505 3.17341 0
      vertex 2.82843 2.82843 0
    endloop
  endfacet
  facet normal 0 0 -1
    outer loop
      vertex 2 -3.4641 0
      vertex 2.43505 3.17341 0
      vertex 2.43505 -3.17341 0
    endloop
  endfacet
  facet normal 0 0 -1
    outer loop
      vertex 2 -3.4641 0
      vertex 2 3.4641 0
      vertex 2.43505 3.17341 0
    endloop
  endfacet
  facet normal 0 0 -1
    outer loop
      vertex 1.53073 -3.69552 0
      vertex 2 3.4641 0
      vertex 2 -3.4641 0
    endloop
  endfacet
  facet normal 0 0 -1
    outer loop
      vertex 1.53073 -3.69552 0
      vertex 1.53073 3.69552 0
      vertex 2 3.4641 0
    endloop
  endfacet
  facet normal 0 0 -1
    outer loop
      vertex 1.03528 -3.8637 0
      vertex 1.53073 3.69552 0
      vertex 1.53073 -3.69552 0
    endloop
  endfacet
  facet normal 0 0 -1
    outer loop
      vertex 1.03528 -3.8637 0
      vertex 1.03528 3.8637 0
      vertex 1.53073 3.69552 0
    endloop
  endfacet
  facet normal 0 0 -1
    outer loop
      vertex 0.522105 -3.96578 0
      vertex 1.03528 3.8637 0
      vertex 1.03528 -3.8637 0
    endloop
  endfacet
  facet normal 0 0 -1
    outer loop
      vertex 0.522105 -3.96578 0
      vertex 0.522105 3.96578 0
      vertex 1.03528 3.8637 0
    endloop
  endfacet
  facet normal 0 0 -1
    outer loop
      vertex -0 -4 0
      vertex 0.522105 3.96578 0
      vertex 0.522105 -3.96578 0
    endloop
  endfacet
  facet normal 0 0 -1
    outer loop
      vertex -0 -4 0
      vertex 0 4 0
      vertex 0.522105 3.96578 0
    endloop
  endfacet
  facet normal 0 0 -1
    outer loop
      vertex -0.522105 -3.96578 0
      vertex 0 4 0
      vertex -0 -4 0
    endloop
  endfacet
  facet normal 0 0 -1
    outer loop
      vertex -0.522105 -3.96578 0
      vertex -0.522105 3.96578 0
      vertex 0 4 0
    endloop
  endfacet
  facet normal 0 0 -1
    outer loop
      vertex -1.03528 -3.8637 0
      vertex -0.522105 3.96578 0
      vertex -0.522105 -3.96578 0
    endloop
  endfacet
  facet normal 0 0 -1
    outer loop
      vertex -1.03528 -3.8637 0
      vertex -1.03528 3.8637 0
      vertex -0.522105 3.96578 0
    endloop
  endfacet
  facet normal 0 0 -1
    outer loop
      vertex -1.53073 -3.69552 0
      vertex -1.03528 3.8637 0
      vertex -1.03528 -3.8637 0
    endloop
  endfacet
  facet normal 0 0 -1
    outer loop
      vertex -1.53073 -3.69552 0
      vertex -1.53073 3.69552 0
      vertex -1.03528 3.8637 0
    endloop
  endfacet
  facet normal 0 0 -1
    outer loop
      vertex -2 -3.4641 0
      vertex -1.53073 3.69552 0
      vertex -1.53073 -3.69552 0
    endloop
  endfacet
  facet normal 0 0 -1
    outer loop
      vertex -2 -3.4641 0
      vertex -2 3.4641 0
      vertex -1.53073 3.69552 0
    endloop
  endfacet
  facet normal 0 0 -1
    outer loop
      vertex -2.43505 -3.17341 0
      vertex -2 3.4641 0
      vertex -2 -3.4641 0
    endloop
  endfacet
  facet normal 0 0 -1
    outer loop
      vertex -2.43505 -3.17341 0
      vertex -2.43505 3.17341 0
      vertex -2 3.4641 0
    endloop
  endfacet
  facet normal 0 0 -1
    outer loop
      vertex -2.82843 -2.82843 0
      vertex -2.43505 3.17341 0
      vertex -2.43505 -3.17341 0
    endloop
  endfacet
  facet normal 0 0 -1
    outer loop
      vertex -2.82843 -2.82843 0
      vertex -2.82843 2.82843 0
      vertex -2.43505 3.17341 0
    endloop
  endfacet
  facet normal 0 0 -1
    outer loop
      vertex -3.17341 -2.43505 0
      vertex -2.82843 2.82843 0
      vertex -2.82843 -2.82843 0
    endloop
  endfacet
  facet normal 0 0 -1
    outer loop
      vertex -3.17341 -2.43505 0
      vertex -3.17341 2.43505 0
      vertex -2.82843 2.82843 0
    endloop
  endfacet
  facet normal 0 0 -1
    outer loop
      vertex -3.4641 -2 0
      vertex -3.17341 2.43505 0
      vertex -3.17341 -2.43505 0
    endloop
  endfacet
  facet normal 0 0 -1
    outer loop
      vertex -3.4641 -2 0
      vertex -3.4641 2 0
      vertex -3.17341 2.43505 0
    endloop
  endfacet
  facet normal 0 0 -1
    outer loop
      vertex -3.69552 -1.53073 0
      vertex -3.4641 2 0
      vertex -3.4641 -2 0
    endloop
  endfacet
  facet normal 0 0 -1
    outer loop
      vertex -3.69552 -1.53073 0
      vertex -3.69552 1.53073 0
      vertex -3.4641 2 0
    endloop
  endfacet
  facet normal 0 0 -1
    outer loop
      vertex -3.8637 -1.03528 0
      vertex -3.69552 1.53073 0
      vertex -3.69552 -1.53073 0
    endloop
  endfacet
  facet normal 0 0 -1
    outer loop
      vertex -3.8637 -1.03528 0
      vertex -3.8637 1.03528 0
      vertex -3.69552 1.53073 0
    endloop
  endfacet
  facet normal 0 0 -1
    outer loop
      vertex -3.96578 -0.522105 0
      vertex -3.8637 1.03528 0
      vertex -3.8637 -1.03528 0
    endloop
  endfacet
  facet normal 0 0 -1
    outer loop
      vertex -3.96578 -0.522105 0
      vertex -3.96578 0.522105 0
      vertex -3.8637 1.03528 0
    endloop
  endfacet
  facet normal 0 -0 -1
    outer loop
      vertex -3.96578 0.522105 0
      vertex -3.96578 -0.522105 0
      vertex -4 -0 0
    endloop
  endfacet
  facet normal 0 0 1
    outer loop
      vertex 3.96578 0.522105 3
      vertex 3.96578 -0.522105 3
      vertex 4 0 3
    endloop
  endfacet
  facet normal 0 0 1
    outer loop
      vertex 3.8637 1.03528 3
      vertex 3.96578 -0.522105 3
      vertex 3.96578 0.522105 3
    endloop
  endfacet
  facet normal 0 0 1
    outer loop
      vertex 3.8637 1.03528 3
      vertex 3.8637 -1.03528 3
      vertex 3.96578 -0.522105 3
    endloop
  endfacet
  facet normal 0 0 1
    outer loop
      vertex 3.69552 1.53073 3
      vertex 3.8637 -1.03528 3
      vertex 3.8637 1.03528 3
    endloop
  endfacet
  facet normal 0 0 1
    outer loop
      vertex 3.69552 1.53073 3
      vertex 3.69552 -1.53073 3
      vertex 3.8637 -1.03528 3
    endloop
  endfacet
  facet normal 0 0 1
    outer loop
      vertex 3.4641 2 3
      vertex 3.69552 -1.53073 3
      vertex 3.69552 1.53073 3
    endloop
  endfacet
  facet normal 0 0 1
    outer loop
      vertex 3.4641 2 3
      vertex 3.4641 -2 3
      vertex 3.69552 -1.53073 3
    endloop
  endfacet
  facet normal 0 0 1
    outer loop
      vertex 3.17341 2.43505 3
      vertex 3.4641 -2 3
      vertex 3.4641 2 3
    endloop
  endfacet
  facet normal 0 0 1
    outer loop
      vertex 3.17341 2.43505 3
      vertex 3.17341 -2.43505 3
      vertex 3.4641 -2 3
    endloop
  endfacet
  facet normal 0 0 1
    outer loop
      vertex 2.82843 2.82843 3
      vertex 3.17341 -2.43505 3
      vertex 3.17341 2.43505 3
    endloop
  endfacet
  facet normal 0 0 1
    outer loop
      vertex 2.82843 2.82843 3
      vertex 2.82843 -2.82843 3
      vertex 3.17341 -2.43505 3
    endloop
  endfacet
  facet normal 0 0 1
    outer loop
      vertex 2.43505 3.17341 3
      vertex 2.82843 -2.82843 3
      vertex 2.82843 2.82843 3
    endloop
  endfacet
  facet normal 0 0 1
    outer loop
      vertex 2.43505 3.17341 3
      vertex 2.43505 -3.17341 3
      vertex 2.82843 -2.82843 3
    endloop
  endfacet
  facet normal 0 0 1
    outer loop
      vertex 2 3.4641 3
      vertex 2.43505 -3.17341 3
      vertex 2.43505 3.17341 3
    endloop
  endfacet
  facet normal 0 0 1
    outer loop
      vertex 2 3.4641 3
      vertex 2 -3.4641 3
      vertex 2.43505 -3.17341 3
    endloop
  endfacet
  facet normal 0 0 1
    outer loop
      vertex 1.53073 3.69552 3
      vertex 2 -3.4641 3
      vertex 2 3.4641 3
    endloop
  endfacet
  facet normal 0 0 1
    outer loop
      vertex 1.53073 3.69552 3
      vertex 1.53073 -3.69552 3
      vertex 2 -3.4641 3
    endloop
  endfacet
  facet normal 0 0 1
    outer loop
      vertex 1.03528 3.8637 3
      vertex 1.53073 -3.69552 3
      vertex 1.53073 3.69552 3
    endloop
  endfacet
  facet normal 0 0 1
    outer loop
      vertex 1.03528 3.8637 3
      vertex 1.03528 -3.8637 3
      vertex 1.53073 -3.69552 3
    endloop
  endfacet
  facet normal 0 0 1
    outer loop
      vertex 0.522105 3.96578 3
      vertex 1.03528 -3.8637 3
      vertex 1.03528 3.8637 3
    endloop
  endfacet
  facet normal 0 0 1
    outer loop
      vertex 0.522105 3.96578 3
      vertex 0.522105 -3.96578 3
      vertex 1.03528 -3.8637 3
    endloop
  endfacet
  facet normal 0 0 1
    outer loop
      vertex 0 4 3
      vertex 0.522105 -3.96578 3
      vertex 0.522105 3.96578 3
    endloop
  endfacet
  facet normal 0 0 1
    outer loop
      vertex 0 4 3
      vertex -0 -4 3
      vertex 0.522105 -3.96578 3
    endloop
  endfacet
  facet normal -0 0 1
    outer loop
      vertex -0.522105 3.96578 3
      vertex -0 -4 3
      vertex 0 4 3
    endloop
  endfacet
  facet normal 0 0 1
    outer loop
      vertex -0.522105 3.96578 3
      vertex -0.522105 -3.96578 3
      vertex -0 -4 3
    endloop
  endfacet
  facet normal -0 0 1
    outer loop
      vertex -1.03528 3.8637 3
      vertex -0.522105 -3.96578 3
      vertex -0.522105 3.96578 3
    endloop
  endfacet
  facet normal 0 0 1
    outer loop
      vertex -1.03528 3.8637 3
      vertex -1.03528 -3.8637 3
      vertex -0.522105 -3.96578 3
    endloop
  endfacet
  facet normal -0 0 1
    outer loop
      vertex -1.53073 3.69552 3
      vertex -1.03528 -3.8637 3
      vertex -1.03528 3.8637 3
    endloop
  endfacet
  facet normal 0 0 1
    outer loop
      vertex -1.53073 3.69552 3
      vertex -1.53073 -3.69552 3
      vertex -1.03528 -3.8637 3
    endloop
  endfacet
  facet normal -0 0 1
    outer loop
      vertex -2 3.4641 3
      vertex -1.53073 -3.69552 3
      vertex -1.53073 3.69552 3
    endloop
  endfacet
  facet normal 0 0 1
    outer loop
      vertex -2 3.4641 3
      vertex -2 -3.4641 3
      vertex -1.53073 -3.69552 3
    endloop
  endfacet
  facet normal -0 0 1
    outer loop
      vertex -2.43505 3.17341 3
      vertex -2 -3.4641 3
      vertex -2 3.4641 3
    endloop
  endfacet
  facet normal 0 0 1
    outer loop
      vertex -2.43505 3.17341 3
      vertex -2.43505 -3.17341 3
      vertex -2 -3.4641 3
    endloop
  endfacet
  facet normal -0 0 1
    outer loop
      vertex -2.82843 2.82843 3
      vertex -2.43505 -3.17341 3
      vertex -2.43505 3.17341 3
    endloop
  endfacet
  facet normal 0 0 1
    outer loop
      vertex -2.82843 2.82843 3
      vertex -2.82843 -2.82843 3
      vertex -2.43505 -3.17341 3
    endloop
  endfacet
  facet normal -0 0 1
    outer loop
      vertex -3.17341 2.43505 3
      vertex -2.82843 -2.82843 3
      vertex -2.82843 2.82843 3
    endloop
  endfacet
  facet normal 0 0 1
    outer loop
      vertex -3.17341 2.43505 3
      vertex -3.17341 -2.43505 3
      vertex -2.82843 -2.82843 3
    endloop
  endfacet
  facet normal -0 0 1
    outer loop
      vertex -3.4641 2 3
      vertex -3.17341 -2.43505 3
      vertex -3.17341 2.43505 3
    endloop
  endfacet
  facet normal 0 0 1
    outer loop
      vertex -3.4641 2 3
      vertex -3.4641 -2 3
      vertex -3.17341 -2.43505 3
    endloop
  endfacet
  facet normal -0 0 1
    outer loop
      vertex -3.69552 1.53073 3
      vertex -3.4641 -2 3
      vertex -3.4641 2 3
    endloop
  endfacet
  facet normal 0 0 1
    outer loop
      vertex -3.69552 1.53073 3
      vertex -3.69552 -1.53073 3
      vertex -3.4641 -2 3
    endloop
  endfacet
  facet normal -0 0 1
    outer loop
      vertex -3.8637 1.03528 3
      vertex -3.69552 -1.53073 3
      vertex -3.69552 1.53073 3
    endloop
  endfacet
  facet normal 0 0 1
    outer loop
      vertex -3.8637 1.03528 3
      vertex -3.8637 -1.03528 3
      vertex -3.69552 -1.53073 3
    endloop
  endfacet
  facet normal -0 0 1
    outer loop
      vertex -3.96578 0.522105 3
      vertex -3.8637 -1.03528 3
      vertex -3.8637 1.03528 3
    endloop
  endfacet
  facet normal 0 0 1
    outer loop
      vertex -3.96578 0.522105 3
      vertex -3.96578 -0.522105 3
      vertex -3.8637 -1.03528 3
    endloop
  endfacet
  facet normal 0 -0 1
    outer loop
      vertex -3.96578 -0.522105 3
      vertex -3.96578 0.522105 3
      vertex -4 -0 3
    endloop
  endfacet
endsolid OpenSCAD_Model
