solid OpenSCAD_Model
  facet normal 1 -0 0
    outer loop
      vertex 7 -4 2
      vertex 7 4 -0.863123
      vertex 7 4 2
    endloop
  endfacet
  facet normal 1 0 0
    outer loop
      vertex 7 4 -0.863123
      vertex 7 -4 2
      vertex 7 -4 -0.863123
    endloop
  endfacet
  facet normal 0 0 1
    outer loop
      vertex -2.94736 2.18069 2
      vertex 7 4 2
      vertex -2.92114 2.2854 2
    endloop
  endfacet
  facet normal 0 0 1
    outer loop
      vertex 7 -4 2
      vertex -2.9053 -2.39218 2
      vertex -2.9 -2.5 2
    endloop
  endfacet
  facet normal 0 0 1
    outer loop
      vertex -2.98373 2.07905 2
      vertex 7 4 2
      vertex -2.94736 2.18069 2
    endloop
  endfacet
  facet normal 0 0 1
    outer loop
      vertex 7 -4 2
      vertex -2.92114 -2.2854 2
      vertex -2.9053 -2.39218 2
    endloop
  endfacet
  facet normal 0 0 1
    outer loop
      vertex 7 4 2
      vertex -2.98373 2.07905 2
      vertex 7 -4 2
    endloop
  endfacet
  facet normal 0 0 1
    outer loop
      vertex 7 -4 2
      vertex -2.94736 -2.18069 2
      vertex -2.92114 -2.2854 2
    endloop
  endfacet
  facet normal -0 0 1
    outer loop
      vertex -2.98373 -2.07905 2
      vertex 7 -4 2
      vertex -2.98373 2.07905 2
    endloop
  endfacet
  facet normal 0 0 1
    outer loop
      vertex 7 -4 2
      vertex -2.98373 -2.07905 2
      vertex -2.94736 -2.18069 2
    endloop
  endfacet
  facet normal -0 0 1
    outer loop
      vertex -3.02989 1.98146 2
      vertex -2.98373 -2.07905 2
      vertex -2.98373 2.07905 2
    endloop
  endfacet
  facet normal 0 0 1
    outer loop
      vertex -3.02989 1.98146 2
      vertex -3.02989 -1.98146 2
      vertex -2.98373 -2.07905 2
    endloop
  endfacet
  facet normal -0 0 1
    outer loop
      vertex -3.08538 1.88887 2
      vertex -3.02989 -1.98146 2
      vertex -3.02989 1.98146 2
    endloop
  endfacet
  facet normal 0 0 1
    outer loop
      vertex -3.08538 1.88887 2
      vertex -3.08538 -1.88887 2
      vertex -3.02989 -1.98146 2
    endloop
  endfacet
  facet normal -0 0 1
    outer loop
      vertex -3.14969 1.80217 2
      vertex -3.08538 -1.88887 2
      vertex -3.08538 1.88887 2
    endloop
  endfacet
  facet normal 0 0 1
    outer loop
      vertex -3.14969 1.80217 2
      vertex -3.14969 -1.80217 2
      vertex -3.08538 -1.88887 2
    endloop
  endfacet
  facet normal -0 0 1
    outer loop
      vertex -3.22218 1.72218 2
      vertex -3.14969 -1.80217 2
      vertex -3.14969 1.80217 2
    endloop
  endfacet
  facet normal 0 0 1
    outer loop
      vertex -3.22218 1.72218 2
      vertex -3.22218 -1.72218 2
      vertex -3.14969 -1.80217 2
    endloop
  endfacet
  facet normal -0 0 1
    outer loop
      vertex -3.30217 1.64969 2
      vertex -3.22218 -1.72218 2
      vertex -3.22218 1.72218 2
    endloop
  endfacet
  facet normal 0 0 1
    outer loop
      vertex -3.30217 1.64969 2
      vertex -3.30217 -1.64969 2
      vertex -3.22218 -1.72218 2
    endloop
  endfacet
  facet normal -0 0 1
    outer loop
      vertex -3.38887 1.58538 2
      vertex -3.30217 -1.64969 2
      vertex -3.30217 1.64969 2
    endloop
  endfacet
  facet normal 0 0 1
    outer loop
      vertex -3.38887 1.58538 2
      vertex -3.38887 -1.58538 2
      vertex -3.30217 -1.64969 2
    endloop
  endfacet
  facet normal -0 0 1
    outer loop
      vertex -3.48146 1.52989 2
      vertex -3.38887 -1.58538 2
      vertex -3.38887 1.58538 2
    endloop
  endfacet
  facet normal 0 0 1
    outer loop
      vertex -3.48146 1.52989 2
      vertex -3.48146 -1.52989 2
      vertex -3.38887 -1.58538 2
    endloop
  endfacet
  facet normal -0 0 1
    outer loop
      vertex -3.57905 1.48373 2
      vertex -3.48146 -1.52989 2
      vertex -3.48146 1.52989 2
    endloop
  endfacet
  facet normal 0 0 1
    outer loop
      vertex -3.57905 1.48373 2
      vertex -3.57905 -1.48373 2
      vertex -3.48146 -1.52989 2
    endloop
  endfacet
  facet normal -0 0 1
    outer loop
      vertex -3.68069 1.44736 2
      vertex -3.57905 -1.48373 2
      vertex -3.57905 1.48373 2
    endloop
  endfacet
  facet normal 0 0 1
    outer loop
      vertex -3.68069 1.44736 2
      vertex -3.68069 -1.44736 2
      vertex -3.57905 -1.48373 2
    endloop
  endfacet
  facet normal -0 0 1
    outer loop
      vertex -3.7854 1.42114 2
      vertex -3.68069 -1.44736 2
      vertex -3.68069 1.44736 2
    endloop
  endfacet
  facet normal 0 0 1
    outer loop
      vertex -3.7854 1.42114 2
      vertex -3.7854 -1.42114 2
      vertex -3.68069 -1.44736 2
    endloop
  endfacet
  facet normal -0 0 1
    outer loop
      vertex -3.89218 1.4053 2
      vertex -3.7854 -1.42114 2
      vertex -3.7854 1.42114 2
    endloop
  endfacet
  facet normal 0 0 1
    outer loop
      vertex -3.89218 1.4053 2
      vertex -3.89218 -1.4053 2
      vertex -3.7854 -1.42114 2
    endloop
  endfacet
  facet normal -0 0 1
    outer loop
      vertex -4 1.4 2
      vertex -3.89218 -1.4053 2
      vertex -3.89218 1.4053 2
    endloop
  endfacet
  facet normal 0 0 1
    outer loop
      vertex -4 1.4 2
      vertex -4 -1.4 2
      vertex -3.89218 -1.4053 2
    endloop
  endfacet
  facet normal 0 0 1
    outer loop
      vertex -4.10782 1.4053 2
      vertex -4 -1.4 2
      vertex -4 1.4 2
    endloop
  endfacet
  facet normal 0 0 1
    outer loop
      vertex -4.10782 1.4053 2
      vertex -4.10782 -1.4053 2
      vertex -4 -1.4 2
    endloop
  endfacet
  facet normal 0 0 1
    outer loop
      vertex -4.2146 1.42114 2
      vertex -4.10782 -1.4053 2
      vertex -4.10782 1.4053 2
    endloop
  endfacet
  facet normal 0 0 1
    outer loop
      vertex -4.2146 1.42114 2
      vertex -4.2146 -1.42114 2
      vertex -4.10782 -1.4053 2
    endloop
  endfacet
  facet normal 0 0 1
    outer loop
      vertex -4.31931 1.44736 2
      vertex -4.2146 -1.42114 2
      vertex -4.2146 1.42114 2
    endloop
  endfacet
  facet normal 0 0 1
    outer loop
      vertex -4.31931 1.44736 2
      vertex -4.31931 -1.44736 2
      vertex -4.2146 -1.42114 2
    endloop
  endfacet
  facet normal 0 0 1
    outer loop
      vertex -4.42095 1.48373 2
      vertex -4.31931 -1.44736 2
      vertex -4.31931 1.44736 2
    endloop
  endfacet
  facet normal 0 0 1
    outer loop
      vertex -4.42095 1.48373 2
      vertex -4.42095 -1.48373 2
      vertex -4.31931 -1.44736 2
    endloop
  endfacet
  facet normal 0 0 1
    outer loop
      vertex -4.51854 1.52989 2
      vertex -4.42095 -1.48373 2
      vertex -4.42095 1.48373 2
    endloop
  endfacet
  facet normal 0 0 1
    outer loop
      vertex -4.51854 1.52989 2
      vertex -4.51854 -1.52989 2
      vertex -4.42095 -1.48373 2
    endloop
  endfacet
  facet normal 0 0 1
    outer loop
      vertex -4.61113 1.58538 2
      vertex -4.51854 -1.52989 2
      vertex -4.51854 1.52989 2
    endloop
  endfacet
  facet normal 0 0 1
    outer loop
      vertex -4.61113 1.58538 2
      vertex -4.61113 -1.58538 2
      vertex -4.51854 -1.52989 2
    endloop
  endfacet
  facet normal 0 0 1
    outer loop
      vertex -4.69783 1.64969 2
      vertex -4.61113 -1.58538 2
      vertex -4.61113 1.58538 2
    endloop
  endfacet
  facet normal 0 0 1
    outer loop
      vertex -4.69783 1.64969 2
      vertex -4.69783 -1.64969 2
      vertex -4.61113 -1.58538 2
    endloop
  endfacet
  facet normal 0 0 1
    outer loop
      vertex -4.77782 1.72218 2
      vertex -4.69783 -1.64969 2
      vertex -4.69783 1.64969 2
    endloop
  endfacet
  facet normal 0 0 1
    outer loop
      vertex -4.77782 1.72218 2
      vertex -4.77782 -1.72218 2
      vertex -4.69783 -1.64969 2
    endloop
  endfacet
  facet normal 0 0 1
    outer loop
      vertex -4.85031 1.80217 2
      vertex -4.77782 -1.72218 2
      vertex -4.77782 1.72218 2
    endloop
  endfacet
  facet normal 0 0 1
    outer loop
      vertex -4.85031 1.80217 2
      vertex -4.85031 -1.80217 2
      vertex -4.77782 -1.72218 2
    endloop
  endfacet
  facet normal 0 0 1
    outer loop
      vertex -4.91462 1.88887 2
      vertex -4.85031 -1.80217 2
      vertex -4.85031 1.80217 2
    endloop
  endfacet
  facet normal 0 0 1
    outer loop
      vertex -4.91462 1.88887 2
      vertex -4.91462 -1.88887 2
      vertex -4.85031 -1.80217 2
    endloop
  endfacet
  facet normal 0 0 1
    outer loop
      vertex -4.97011 1.98146 2
      vertex -4.91462 -1.88887 2
      vertex -4.91462 1.88887 2
    endloop
  endfacet
  facet normal 0 0 1
    outer loop
      vertex -4.97011 1.98146 2
      vertex -4.97011 -1.98146 2
      vertex -4.91462 -1.88887 2
    endloop
  endfacet
  facet normal 0 0 1
    outer loop
      vertex -7 4 2
      vertex -4.97011 1.98146 2
      vertex -5.01627 2.07905 2
    endloop
  endfacet
  facet normal 0 0 1
    outer loop
      vertex -4.97011 1.98146 2
      vertex -7 4 2
      vertex -4.97011 -1.98146 2
    endloop
  endfacet
  facet normal 0 0 1
    outer loop
      vertex -7 4 2
      vertex -5.01627 2.07905 2
      vertex -5.05263 2.18069 2
    endloop
  endfacet
  facet normal 0 0 1
    outer loop
      vertex -7 -4 2
      vertex -4.97011 -1.98146 2
      vertex -7 4 2
    endloop
  endfacet
  facet normal 0 0 1
    outer loop
      vertex -7 4 2
      vertex -5.05263 2.18069 2
      vertex -5.07886 2.2854 2
    endloop
  endfacet
  facet normal 0 0 1
    outer loop
      vertex -4.97011 -1.98146 2
      vertex -7 -4 2
      vertex -5.01627 -2.07905 2
    endloop
  endfacet
  facet normal 0 0 1
    outer loop
      vertex -7 4 2
      vertex -5.07886 2.2854 2
      vertex -5.0947 2.39218 2
    endloop
  endfacet
  facet normal 0 0 1
    outer loop
      vertex -5.01627 -2.07905 2
      vertex -7 -4 2
      vertex -5.05263 -2.18069 2
    endloop
  endfacet
  facet normal 0 0 1
    outer loop
      vertex -7 4 2
      vertex -5.0947 2.39218 2
      vertex -5.1 2.5 2
    endloop
  endfacet
  facet normal 0 0 1
    outer loop
      vertex -5.05263 -2.18069 2
      vertex -7 -4 2
      vertex -5.07886 -2.2854 2
    endloop
  endfacet
  facet normal 0 0 1
    outer loop
      vertex -2.9053 2.39218 2
      vertex 7 4 2
      vertex -2.9 2.5 2
    endloop
  endfacet
  facet normal 0 0 1
    outer loop
      vertex 7 4 2
      vertex -2.9053 2.60782 2
      vertex -2.9 2.5 2
    endloop
  endfacet
  facet normal 0 0 1
    outer loop
      vertex 7 4 2
      vertex -2.92114 2.7146 2
      vertex -2.9053 2.60782 2
    endloop
  endfacet
  facet normal 0 0 1
    outer loop
      vertex 7 4 2
      vertex -2.94736 2.81931 2
      vertex -2.92114 2.7146 2
    endloop
  endfacet
  facet normal 0 0 1
    outer loop
      vertex 7 4 2
      vertex -2.98373 2.92095 2
      vertex -2.94736 2.81931 2
    endloop
  endfacet
  facet normal 0 0 1
    outer loop
      vertex 7 4 2
      vertex -3.02989 3.01854 2
      vertex -2.98373 2.92095 2
    endloop
  endfacet
  facet normal 0 0 1
    outer loop
      vertex 7 4 2
      vertex -3.08538 3.11113 2
      vertex -3.02989 3.01854 2
    endloop
  endfacet
  facet normal 0 0 1
    outer loop
      vertex 7 4 2
      vertex -3.14969 3.19783 2
      vertex -3.08538 3.11113 2
    endloop
  endfacet
  facet normal 0 0 1
    outer loop
      vertex 7 4 2
      vertex -3.22218 3.27782 2
      vertex -3.14969 3.19783 2
    endloop
  endfacet
  facet normal 0 0 1
    outer loop
      vertex 7 4 2
      vertex -3.30217 3.35031 2
      vertex -3.22218 3.27782 2
    endloop
  endfacet
  facet normal 0 0 1
    outer loop
      vertex 7 4 2
      vertex -3.38887 3.41462 2
      vertex -3.30217 3.35031 2
    endloop
  endfacet
  facet normal 0 0 1
    outer loop
      vertex 7 4 2
      vertex -3.48146 3.47011 2
      vertex -3.38887 3.41462 2
    endloop
  endfacet
  facet normal 0 0 1
    outer loop
      vertex 7 4 2
      vertex -3.57905 3.51627 2
      vertex -3.48146 3.47011 2
    endloop
  endfacet
  facet normal 0 0 1
    outer loop
      vertex 7 4 2
      vertex -3.68069 3.55263 2
      vertex -3.57905 3.51627 2
    endloop
  endfacet
  facet normal 0 0 1
    outer loop
      vertex 7 4 2
      vertex -3.7854 3.57886 2
      vertex -3.68069 3.55263 2
    endloop
  endfacet
  facet normal 0 0 1
    outer loop
      vertex 7 4 2
      vertex -3.89218 3.5947 2
      vertex -3.7854 3.57886 2
    endloop
  endfacet
  facet normal -0 0 1
    outer loop
      vertex -7 4 2
      vertex -3.89218 3.5947 2
      vertex 7 4 2
    endloop
  endfacet
  facet normal 0 0 1
    outer loop
      vertex -5.07886 -2.2854 2
      vertex -7 -4 2
      vertex -5.0947 -2.39218 2
    endloop
  endfacet
  facet normal 0 0 1
    outer loop
      vertex -5.0947 2.60782 2
      vertex -7 4 2
      vertex -5.1 2.5 2
    endloop
  endfacet
  facet normal 0 0 1
    outer loop
      vertex -5.07886 2.7146 2
      vertex -7 4 2
      vertex -5.0947 2.60782 2
    endloop
  endfacet
  facet normal 0 0 1
    outer loop
      vertex -5.05263 2.81931 2
      vertex -7 4 2
      vertex -5.07886 2.7146 2
    endloop
  endfacet
  facet normal 0 0 1
    outer loop
      vertex -5.01627 2.92095 2
      vertex -7 4 2
      vertex -5.05263 2.81931 2
    endloop
  endfacet
  facet normal 0 0 1
    outer loop
      vertex -4.97011 3.01854 2
      vertex -7 4 2
      vertex -5.01627 2.92095 2
    endloop
  endfacet
  facet normal 0 0 1
    outer loop
      vertex -4.91462 3.11113 2
      vertex -7 4 2
      vertex -4.97011 3.01854 2
    endloop
  endfacet
  facet normal 0 0 1
    outer loop
      vertex -4.85031 3.19783 2
      vertex -7 4 2
      vertex -4.91462 3.11113 2
    endloop
  endfacet
  facet normal 0 0 1
    outer loop
      vertex -4.77782 3.27782 2
      vertex -7 4 2
      vertex -4.85031 3.19783 2
    endloop
  endfacet
  facet normal 0 0 1
    outer loop
      vertex -4.69783 3.35031 2
      vertex -7 4 2
      vertex -4.77782 3.27782 2
    endloop
  endfacet
  facet normal 0 0 1
    outer loop
      vertex -4.61113 3.41462 2
      vertex -7 4 2
      vertex -4.69783 3.35031 2
    endloop
  endfacet
  facet normal 0 0 1
    outer loop
      vertex -4.51854 3.47011 2
      vertex -7 4 2
      vertex -4.61113 3.41462 2
    endloop
  endfacet
  facet normal 0 0 1
    outer loop
      vertex -4.42095 3.51627 2
      vertex -7 4 2
      vertex -4.51854 3.47011 2
    endloop
  endfacet
  facet normal 0 0 1
    outer loop
      vertex -4.31931 3.55263 2
      vertex -7 4 2
      vertex -4.42095 3.51627 2
    endloop
  endfacet
  facet normal 0 0 1
    outer loop
      vertex -4.2146 3.57886 2
      vertex -7 4 2
      vertex -4.31931 3.55263 2
    endloop
  endfacet
  facet normal 0 0 1
    outer loop
      vertex -4.10782 3.5947 2
      vertex -7 4 2
      vertex -4.2146 3.57886 2
    endloop
  endfacet
  facet normal 0 0 1
    outer loop
      vertex -4 3.6 2
      vertex -7 4 2
      vertex -4.10782 3.5947 2
    endloop
  endfacet
  facet normal 0 0 1
    outer loop
      vertex -3.89218 3.5947 2
      vertex -7 4 2
      vertex -4 3.6 2
    endloop
  endfacet
  facet normal 0 0 1
    outer loop
      vertex -2.92114 2.2854 2
      vertex 7 4 2
      vertex -2.9053 2.39218 2
    endloop
  endfacet
  facet normal -0 0 1
    outer loop
      vertex -2.9053 -2.60782 2
      vertex 7 -4 2
      vertex -2.9 -2.5 2
    endloop
  endfacet
  facet normal -0 0 1
    outer loop
      vertex -2.92114 -2.7146 2
      vertex 7 -4 2
      vertex -2.9053 -2.60782 2
    endloop
  endfacet
  facet normal -0 0 1
    outer loop
      vertex -2.94736 -2.81931 2
      vertex 7 -4 2
      vertex -2.92114 -2.7146 2
    endloop
  endfacet
  facet normal -0 0 1
    outer loop
      vertex -2.98373 -2.92095 2
      vertex 7 -4 2
      vertex -2.94736 -2.81931 2
    endloop
  endfacet
  facet normal -0 0 1
    outer loop
      vertex -3.02989 -3.01854 2
      vertex 7 -4 2
      vertex -2.98373 -2.92095 2
    endloop
  endfacet
  facet normal -0 0 1
    outer loop
      vertex -3.08538 -3.11113 2
      vertex 7 -4 2
      vertex -3.02989 -3.01854 2
    endloop
  endfacet
  facet normal -0 0 1
    outer loop
      vertex -3.14969 -3.19783 2
      vertex 7 -4 2
      vertex -3.08538 -3.11113 2
    endloop
  endfacet
  facet normal -0 0 1
    outer loop
      vertex -3.22218 -3.27782 2
      vertex 7 -4 2
      vertex -3.14969 -3.19783 2
    endloop
  endfacet
  facet normal -0 0 1
    outer loop
      vertex -3.30217 -3.35031 2
      vertex 7 -4 2
      vertex -3.22218 -3.27782 2
    endloop
  endfacet
  facet normal -0 0 1
    outer loop
      vertex -3.38887 -3.41462 2
      vertex 7 -4 2
      vertex -3.30217 -3.35031 2
    endloop
  endfacet
  facet normal -0 0 1
    outer loop
      vertex -3.48146 -3.47011 2
      vertex 7 -4 2
      vertex -3.38887 -3.41462 2
    endloop
  endfacet
  facet normal -0 0 1
    outer loop
      vertex -3.57905 -3.51627 2
      vertex 7 -4 2
      vertex -3.48146 -3.47011 2
    endloop
  endfacet
  facet normal -0 0 1
    outer loop
      vertex -3.68069 -3.55263 2
      vertex 7 -4 2
      vertex -3.57905 -3.51627 2
    endloop
  endfacet
  facet normal -0 0 1
    outer loop
      vertex -3.7854 -3.57886 2
      vertex 7 -4 2
      vertex -3.68069 -3.55263 2
    endloop
  endfacet
  facet normal -0 0 1
    outer loop
      vertex -3.89218 -3.5947 2
      vertex 7 -4 2
      vertex -3.7854 -3.57886 2
    endloop
  endfacet
  facet normal 0 0 1
    outer loop
      vertex -7 -4 2
      vertex -3.89218 -3.5947 2
      vertex -4 -3.6 2
    endloop
  endfacet
  facet normal 0 0 1
    outer loop
      vertex -5.0947 -2.39218 2
      vertex -7 -4 2
      vertex -5.1 -2.5 2
    endloop
  endfacet
  facet normal 0 0 1
    outer loop
      vertex -5.1 -2.5 2
      vertex -7 -4 2
      vertex -5.0947 -2.60782 2
    endloop
  endfacet
  facet normal 0 0 1
    outer loop
      vertex -5.0947 -2.60782 2
      vertex -7 -4 2
      vertex -5.07886 -2.7146 2
    endloop
  endfacet
  facet normal 0 0 1
    outer loop
      vertex -3.89218 -3.5947 2
      vertex -7 -4 2
      vertex 7 -4 2
    endloop
  endfacet
  facet normal 0 0 1
    outer loop
      vertex -4.10782 -3.5947 2
      vertex -7 -4 2
      vertex -4 -3.6 2
    endloop
  endfacet
  facet normal 0 0 1
    outer loop
      vertex -4.2146 -3.57886 2
      vertex -7 -4 2
      vertex -4.10782 -3.5947 2
    endloop
  endfacet
  facet normal 0 0 1
    outer loop
      vertex -4.31931 -3.55263 2
      vertex -7 -4 2
      vertex -4.2146 -3.57886 2
    endloop
  endfacet
  facet normal 0 0 1
    outer loop
      vertex -4.42095 -3.51627 2
      vertex -7 -4 2
      vertex -4.31931 -3.55263 2
    endloop
  endfacet
  facet normal 0 0 1
    outer loop
      vertex -4.51854 -3.47011 2
      vertex -7 -4 2
      vertex -4.42095 -3.51627 2
    endloop
  endfacet
  facet normal 0 0 1
    outer loop
      vertex -4.61113 -3.41462 2
      vertex -7 -4 2
      vertex -4.51854 -3.47011 2
    endloop
  endfacet
  facet normal 0 0 1
    outer loop
      vertex -4.69783 -3.35031 2
      vertex -7 -4 2
      vertex -4.61113 -3.41462 2
    endloop
  endfacet
  facet normal 0 0 1
    outer loop
      vertex -4.77782 -3.27782 2
      vertex -7 -4 2
      vertex -4.69783 -3.35031 2
    endloop
  endfacet
  facet normal 0 0 1
    outer loop
      vertex -4.85031 -3.19783 2
      vertex -7 -4 2
      vertex -4.77782 -3.27782 2
    endloop
  endfacet
  facet normal 0 0 1
    outer loop
      vertex -4.91462 -3.11113 2
      vertex -7 -4 2
      vertex -4.85031 -3.19783 2
    endloop
  endfacet
  facet normal 0 0 1
    outer loop
      vertex -4.97011 -3.01854 2
      vertex -7 -4 2
      vertex -4.91462 -3.11113 2
    endloop
  endfacet
  facet normal 0 0 1
    outer loop
      vertex -5.01627 -2.92095 2
      vertex -7 -4 2
      vertex -4.97011 -3.01854 2
    endloop
  endfacet
  facet normal 0 0 1
    outer loop
      vertex -5.05263 -2.81931 2
      vertex -7 -4 2
      vertex -5.01627 -2.92095 2
    endloop
  endfacet
  facet normal 0 0 1
    outer loop
      vertex -5.07886 -2.7146 2
      vertex -7 -4 2
      vertex -5.05263 -2.81931 2
    endloop
  endfacet
  facet normal 0 0 -1
    outer loop
      vertex -2.94736 -2.18069 -2
      vertex -0.373496 -4 -2
      vertex -2.92114 -2.2854 -2
    endloop
  endfacet
  facet normal 0 0 -1
    outer loop
      vertex -0.373496 4 -2
      vertex -2.9053 2.39218 -2
      vertex -2.9 2.5 -2
    endloop
  endfacet
  facet normal 0 0 -1
    outer loop
      vertex -2.98373 -2.07905 -2
      vertex -0.373496 -4 -2
      vertex -2.94736 -2.18069 -2
    endloop
  endfacet
  facet normal 0 0 -1
    outer loop
      vertex -0.373496 4 -2
      vertex -2.92114 2.2854 -2
      vertex -2.9053 2.39218 -2
    endloop
  endfacet
  facet normal 0 0 -1
    outer loop
      vertex -3.02989 -1.98146 -2
      vertex -0.373496 -4 -2
      vertex -2.98373 -2.07905 -2
    endloop
  endfacet
  facet normal 0 0 -1
    outer loop
      vertex -0.373496 4 -2
      vertex -2.94736 2.18069 -2
      vertex -2.92114 2.2854 -2
    endloop
  endfacet
  facet normal 0 0 -1
    outer loop
      vertex -0.373496 -4 -2
      vertex -3.02989 -1.98146 -2
      vertex -0.373496 4 -2
    endloop
  endfacet
  facet normal 0 0 -1
    outer loop
      vertex -0.373496 4 -2
      vertex -2.98373 2.07905 -2
      vertex -2.94736 2.18069 -2
    endloop
  endfacet
  facet normal 0 0 -1
    outer loop
      vertex -3.02989 1.98146 -2
      vertex -0.373496 4 -2
      vertex -3.02989 -1.98146 -2
    endloop
  endfacet
  facet normal 0 0 -1
    outer loop
      vertex -0.373496 4 -2
      vertex -3.02989 1.98146 -2
      vertex -2.98373 2.07905 -2
    endloop
  endfacet
  facet normal 0 0 -1
    outer loop
      vertex -3.08538 -1.88887 -2
      vertex -3.02989 1.98146 -2
      vertex -3.02989 -1.98146 -2
    endloop
  endfacet
  facet normal 0 0 -1
    outer loop
      vertex -3.08538 -1.88887 -2
      vertex -3.08538 1.88887 -2
      vertex -3.02989 1.98146 -2
    endloop
  endfacet
  facet normal 0 0 -1
    outer loop
      vertex -3.14969 -1.80217 -2
      vertex -3.08538 1.88887 -2
      vertex -3.08538 -1.88887 -2
    endloop
  endfacet
  facet normal 0 0 -1
    outer loop
      vertex -3.14969 -1.80217 -2
      vertex -3.14969 1.80217 -2
      vertex -3.08538 1.88887 -2
    endloop
  endfacet
  facet normal 0 0 -1
    outer loop
      vertex -3.22218 -1.72218 -2
      vertex -3.14969 1.80217 -2
      vertex -3.14969 -1.80217 -2
    endloop
  endfacet
  facet normal 0 0 -1
    outer loop
      vertex -3.22218 -1.72218 -2
      vertex -3.22218 1.72218 -2
      vertex -3.14969 1.80217 -2
    endloop
  endfacet
  facet normal 0 0 -1
    outer loop
      vertex -3.30217 -1.64969 -2
      vertex -3.22218 1.72218 -2
      vertex -3.22218 -1.72218 -2
    endloop
  endfacet
  facet normal 0 0 -1
    outer loop
      vertex -3.30217 -1.64969 -2
      vertex -3.30217 1.64969 -2
      vertex -3.22218 1.72218 -2
    endloop
  endfacet
  facet normal 0 0 -1
    outer loop
      vertex -3.38887 -1.58538 -2
      vertex -3.30217 1.64969 -2
      vertex -3.30217 -1.64969 -2
    endloop
  endfacet
  facet normal 0 0 -1
    outer loop
      vertex -3.38887 -1.58538 -2
      vertex -3.38887 1.58538 -2
      vertex -3.30217 1.64969 -2
    endloop
  endfacet
  facet normal 0 0 -1
    outer loop
      vertex -3.48146 -1.52989 -2
      vertex -3.38887 1.58538 -2
      vertex -3.38887 -1.58538 -2
    endloop
  endfacet
  facet normal 0 0 -1
    outer loop
      vertex -3.48146 -1.52989 -2
      vertex -3.48146 1.52989 -2
      vertex -3.38887 1.58538 -2
    endloop
  endfacet
  facet normal 0 0 -1
    outer loop
      vertex -3.57905 -1.48373 -2
      vertex -3.48146 1.52989 -2
      vertex -3.48146 -1.52989 -2
    endloop
  endfacet
  facet normal 0 0 -1
    outer loop
      vertex -3.57905 -1.48373 -2
      vertex -3.57905 1.48373 -2
      vertex -3.48146 1.52989 -2
    endloop
  endfacet
  facet normal 0 0 -1
    outer loop
      vertex -3.68069 -1.44736 -2
      vertex -3.57905 1.48373 -2
      vertex -3.57905 -1.48373 -2
    endloop
  endfacet
  facet normal 0 0 -1
    outer loop
      vertex -3.68069 -1.44736 -2
      vertex -3.68069 1.44736 -2
      vertex -3.57905 1.48373 -2
    endloop
  endfacet
  facet normal 0 0 -1
    outer loop
      vertex -3.7854 -1.42114 -2
      vertex -3.68069 1.44736 -2
      vertex -3.68069 -1.44736 -2
    endloop
  endfacet
  facet normal 0 0 -1
    outer loop
      vertex -3.7854 -1.42114 -2
      vertex -3.7854 1.42114 -2
      vertex -3.68069 1.44736 -2
    endloop
  endfacet
  facet normal 0 0 -1
    outer loop
      vertex -3.89218 -1.4053 -2
      vertex -3.7854 1.42114 -2
      vertex -3.7854 -1.42114 -2
    endloop
  endfacet
  facet normal 0 0 -1
    outer loop
      vertex -3.89218 -1.4053 -2
      vertex -3.89218 1.4053 -2
      vertex -3.7854 1.42114 -2
    endloop
  endfacet
  facet normal 0 0 -1
    outer loop
      vertex -4 -1.4 -2
      vertex -3.89218 1.4053 -2
      vertex -3.89218 -1.4053 -2
    endloop
  endfacet
  facet normal 0 0 -1
    outer loop
      vertex -4 -1.4 -2
      vertex -4 1.4 -2
      vertex -3.89218 1.4053 -2
    endloop
  endfacet
  facet normal 0 0 -1
    outer loop
      vertex -4.10782 -1.4053 -2
      vertex -4 1.4 -2
      vertex -4 -1.4 -2
    endloop
  endfacet
  facet normal 0 0 -1
    outer loop
      vertex -4.10782 -1.4053 -2
      vertex -4.10782 1.4053 -2
      vertex -4 1.4 -2
    endloop
  endfacet
  facet normal 0 0 -1
    outer loop
      vertex -4.2146 -1.42114 -2
      vertex -4.10782 1.4053 -2
      vertex -4.10782 -1.4053 -2
    endloop
  endfacet
  facet normal 0 0 -1
    outer loop
      vertex -4.2146 -1.42114 -2
      vertex -4.2146 1.42114 -2
      vertex -4.10782 1.4053 -2
    endloop
  endfacet
  facet normal 0 0 -1
    outer loop
      vertex -4.31931 -1.44736 -2
      vertex -4.2146 1.42114 -2
      vertex -4.2146 -1.42114 -2
    endloop
  endfacet
  facet normal 0 0 -1
    outer loop
      vertex -4.31931 -1.44736 -2
      vertex -4.31931 1.44736 -2
      vertex -4.2146 1.42114 -2
    endloop
  endfacet
  facet normal 0 0 -1
    outer loop
      vertex -4.42095 -1.48373 -2
      vertex -4.31931 1.44736 -2
      vertex -4.31931 -1.44736 -2
    endloop
  endfacet
  facet normal 0 0 -1
    outer loop
      vertex -4.42095 -1.48373 -2
      vertex -4.42095 1.48373 -2
      vertex -4.31931 1.44736 -2
    endloop
  endfacet
  facet normal 0 0 -1
    outer loop
      vertex -4.51854 -1.52989 -2
      vertex -4.42095 1.48373 -2
      vertex -4.42095 -1.48373 -2
    endloop
  endfacet
  facet normal 0 0 -1
    outer loop
      vertex -4.51854 -1.52989 -2
      vertex -4.51854 1.52989 -2
      vertex -4.42095 1.48373 -2
    endloop
  endfacet
  facet normal 0 0 -1
    outer loop
      vertex -4.61113 -1.58538 -2
      vertex -4.51854 1.52989 -2
      vertex -4.51854 -1.52989 -2
    endloop
  endfacet
  facet normal 0 0 -1
    outer loop
      vertex -4.61113 -1.58538 -2
      vertex -4.61113 1.58538 -2
      vertex -4.51854 1.52989 -2
    endloop
  endfacet
  facet normal 0 0 -1
    outer loop
      vertex -4.69783 -1.64969 -2
      vertex -4.61113 1.58538 -2
      vertex -4.61113 -1.58538 -2
    endloop
  endfacet
  facet normal 0 0 -1
    outer loop
      vertex -4.69783 -1.64969 -2
      vertex -4.69783 1.64969 -2
      vertex -4.61113 1.58538 -2
    endloop
  endfacet
  facet normal 0 0 -1
    outer loop
      vertex -4.77782 -1.72218 -2
      vertex -4.69783 1.64969 -2
      vertex -4.69783 -1.64969 -2
    endloop
  endfacet
  facet normal 0 0 -1
    outer loop
      vertex -4.77782 -1.72218 -2
      vertex -4.77782 1.72218 -2
      vertex -4.69783 1.64969 -2
    endloop
  endfacet
  facet normal 0 0 -1
    outer loop
      vertex -4.85031 -1.80217 -2
      vertex -4.77782 1.72218 -2
      vertex -4.77782 -1.72218 -2
    endloop
  endfacet
  facet normal 0 0 -1
    outer loop
      vertex -4.85031 -1.80217 -2
      vertex -4.85031 1.80217 -2
      vertex -4.77782 1.72218 -2
    endloop
  endfacet
  facet normal 0 0 -1
    outer loop
      vertex -4.91462 -1.88887 -2
      vertex -4.85031 1.80217 -2
      vertex -4.85031 -1.80217 -2
    endloop
  endfacet
  facet normal 0 0 -1
    outer loop
      vertex -4.91462 -1.88887 -2
      vertex -4.91462 1.88887 -2
      vertex -4.85031 1.80217 -2
    endloop
  endfacet
  facet normal 0 0 -1
    outer loop
      vertex -4.97011 -1.98146 -2
      vertex -4.91462 1.88887 -2
      vertex -4.91462 -1.88887 -2
    endloop
  endfacet
  facet normal 0 0 -1
    outer loop
      vertex -4.97011 -1.98146 -2
      vertex -4.97011 1.98146 -2
      vertex -4.91462 1.88887 -2
    endloop
  endfacet
  facet normal 0 0 -1
    outer loop
      vertex -7 -4 -2
      vertex -4.97011 -1.98146 -2
      vertex -5.01627 -2.07905 -2
    endloop
  endfacet
  facet normal -0 0 -1
    outer loop
      vertex -4.97011 -1.98146 -2
      vertex -7 -4 -2
      vertex -4.97011 1.98146 -2
    endloop
  endfacet
  facet normal 0 0 -1
    outer loop
      vertex -7 -4 -2
      vertex -5.01627 -2.07905 -2
      vertex -5.05263 -2.18069 -2
    endloop
  endfacet
  facet normal 0 0 -1
    outer loop
      vertex -7 4 -2
      vertex -4.97011 1.98146 -2
      vertex -7 -4 -2
    endloop
  endfacet
  facet normal 0 0 -1
    outer loop
      vertex -7 -4 -2
      vertex -5.05263 -2.18069 -2
      vertex -5.07886 -2.2854 -2
    endloop
  endfacet
  facet normal 0 0 -1
    outer loop
      vertex -4.97011 1.98146 -2
      vertex -7 4 -2
      vertex -5.01627 2.07905 -2
    endloop
  endfacet
  facet normal 0 0 -1
    outer loop
      vertex -7 -4 -2
      vertex -5.07886 -2.2854 -2
      vertex -5.0947 -2.39218 -2
    endloop
  endfacet
  facet normal 0 0 -1
    outer loop
      vertex -5.01627 2.07905 -2
      vertex -7 4 -2
      vertex -5.05263 2.18069 -2
    endloop
  endfacet
  facet normal 0 0 -1
    outer loop
      vertex -7 -4 -2
      vertex -5.0947 -2.39218 -2
      vertex -5.1 -2.5 -2
    endloop
  endfacet
  facet normal 0 0 -1
    outer loop
      vertex -5.05263 2.18069 -2
      vertex -7 4 -2
      vertex -5.07886 2.2854 -2
    endloop
  endfacet
  facet normal 0 0 -1
    outer loop
      vertex -2.9053 -2.39218 -2
      vertex -0.373496 -4 -2
      vertex -2.9 -2.5 -2
    endloop
  endfacet
  facet normal 0 0 -1
    outer loop
      vertex -0.373496 -4 -2
      vertex -2.9053 -2.60782 -2
      vertex -2.9 -2.5 -2
    endloop
  endfacet
  facet normal 0 0 -1
    outer loop
      vertex -0.373496 -4 -2
      vertex -2.92114 -2.7146 -2
      vertex -2.9053 -2.60782 -2
    endloop
  endfacet
  facet normal 0 0 -1
    outer loop
      vertex -0.373496 -4 -2
      vertex -2.94736 -2.81931 -2
      vertex -2.92114 -2.7146 -2
    endloop
  endfacet
  facet normal 0 0 -1
    outer loop
      vertex -0.373496 -4 -2
      vertex -2.98373 -2.92095 -2
      vertex -2.94736 -2.81931 -2
    endloop
  endfacet
  facet normal 0 0 -1
    outer loop
      vertex -0.373496 -4 -2
      vertex -3.02989 -3.01854 -2
      vertex -2.98373 -2.92095 -2
    endloop
  endfacet
  facet normal 0 0 -1
    outer loop
      vertex -0.373496 -4 -2
      vertex -3.08538 -3.11113 -2
      vertex -3.02989 -3.01854 -2
    endloop
  endfacet
  facet normal 0 0 -1
    outer loop
      vertex -0.373496 -4 -2
      vertex -3.14969 -3.19783 -2
      vertex -3.08538 -3.11113 -2
    endloop
  endfacet
  facet normal 0 0 -1
    outer loop
      vertex -0.373496 -4 -2
      vertex -3.22218 -3.27782 -2
      vertex -3.14969 -3.19783 -2
    endloop
  endfacet
  facet normal 0 0 -1
    outer loop
      vertex -0.373496 -4 -2
      vertex -3.30217 -3.35031 -2
      vertex -3.22218 -3.27782 -2
    endloop
  endfacet
  facet normal 0 0 -1
    outer loop
      vertex -0.373496 -4 -2
      vertex -3.38887 -3.41462 -2
      vertex -3.30217 -3.35031 -2
    endloop
  endfacet
  facet normal 0 0 -1
    outer loop
      vertex -0.373496 -4 -2
      vertex -3.48146 -3.47011 -2
      vertex -3.38887 -3.41462 -2
    endloop
  endfacet
  facet normal 0 0 -1
    outer loop
      vertex -0.373496 -4 -2
      vertex -3.57905 -3.51627 -2
      vertex -3.48146 -3.47011 -2
    endloop
  endfacet
  facet normal 0 0 -1
    outer loop
      vertex -0.373496 -4 -2
      vertex -3.68069 -3.55263 -2
      vertex -3.57905 -3.51627 -2
    endloop
  endfacet
  facet normal 0 0 -1
    outer loop
      vertex -0.373496 -4 -2
      vertex -3.7854 -3.57886 -2
      vertex -3.68069 -3.55263 -2
    endloop
  endfacet
  facet normal 0 0 -1
    outer loop
      vertex -0.373496 -4 -2
      vertex -3.89218 -3.5947 -2
      vertex -3.7854 -3.57886 -2
    endloop
  endfacet
  facet normal 0 0 -1
    outer loop
      vertex -0.373496 -4 -2
      vertex -4 -3.6 -2
      vertex -3.89218 -3.5947 -2
    endloop
  endfacet
  facet normal 0 0 -1
    outer loop
      vertex -7 -4 -2
      vertex -4 -3.6 -2
      vertex -0.373496 -4 -2
    endloop
  endfacet
  facet normal 0 0 -1
    outer loop
      vertex -5.07886 2.2854 -2
      vertex -7 4 -2
      vertex -5.0947 2.39218 -2
    endloop
  endfacet
  facet normal -0 0 -1
    outer loop
      vertex -5.0947 -2.60782 -2
      vertex -7 -4 -2
      vertex -5.1 -2.5 -2
    endloop
  endfacet
  facet normal -0 0 -1
    outer loop
      vertex -5.07886 -2.7146 -2
      vertex -7 -4 -2
      vertex -5.0947 -2.60782 -2
    endloop
  endfacet
  facet normal -0 0 -1
    outer loop
      vertex -5.05263 -2.81931 -2
      vertex -7 -4 -2
      vertex -5.07886 -2.7146 -2
    endloop
  endfacet
  facet normal -0 0 -1
    outer loop
      vertex -5.01627 -2.92095 -2
      vertex -7 -4 -2
      vertex -5.05263 -2.81931 -2
    endloop
  endfacet
  facet normal -0 0 -1
    outer loop
      vertex -4.97011 -3.01854 -2
      vertex -7 -4 -2
      vertex -5.01627 -2.92095 -2
    endloop
  endfacet
  facet normal -0 0 -1
    outer loop
      vertex -4.91462 -3.11113 -2
      vertex -7 -4 -2
      vertex -4.97011 -3.01854 -2
    endloop
  endfacet
  facet normal -0 0 -1
    outer loop
      vertex -4.85031 -3.19783 -2
      vertex -7 -4 -2
      vertex -4.91462 -3.11113 -2
    endloop
  endfacet
  facet normal -0 0 -1
    outer loop
      vertex -4.77782 -3.27782 -2
      vertex -7 -4 -2
      vertex -4.85031 -3.19783 -2
    endloop
  endfacet
  facet normal -0 0 -1
    outer loop
      vertex -4.69783 -3.35031 -2
      vertex -7 -4 -2
      vertex -4.77782 -3.27782 -2
    endloop
  endfacet
  facet normal -0 0 -1
    outer loop
      vertex -4.61113 -3.41462 -2
      vertex -7 -4 -2
      vertex -4.69783 -3.35031 -2
    endloop
  endfacet
  facet normal -0 0 -1
    outer loop
      vertex -4.51854 -3.47011 -2
      vertex -7 -4 -2
      vertex -4.61113 -3.41462 -2
    endloop
  endfacet
  facet normal -0 0 -1
    outer loop
      vertex -4.42095 -3.51627 -2
      vertex -7 -4 -2
      vertex -4.51854 -3.47011 -2
    endloop
  endfacet
  facet normal -0 0 -1
    outer loop
      vertex -4.31931 -3.55263 -2
      vertex -7 -4 -2
      vertex -4.42095 -3.51627 -2
    endloop
  endfacet
  facet normal -0 0 -1
    outer loop
      vertex -4.2146 -3.57886 -2
      vertex -7 -4 -2
      vertex -4.31931 -3.55263 -2
    endloop
  endfacet
  facet normal -0 0 -1
    outer loop
      vertex -4.10782 -3.5947 -2
      vertex -7 -4 -2
      vertex -4.2146 -3.57886 -2
    endloop
  endfacet
  facet normal -0 0 -1
    outer loop
      vertex -4 -3.6 -2
      vertex -7 -4 -2
      vertex -4.10782 -3.5947 -2
    endloop
  endfacet
  facet normal 0 0 -1
    outer loop
      vertex -2.92114 -2.2854 -2
      vertex -0.373496 -4 -2
      vertex -2.9053 -2.39218 -2
    endloop
  endfacet
  facet normal 0 0 -1
    outer loop
      vertex -2.9053 2.60782 -2
      vertex -0.373496 4 -2
      vertex -2.9 2.5 -2
    endloop
  endfacet
  facet normal 0 0 -1
    outer loop
      vertex -2.92114 2.7146 -2
      vertex -0.373496 4 -2
      vertex -2.9053 2.60782 -2
    endloop
  endfacet
  facet normal 0 0 -1
    outer loop
      vertex -2.94736 2.81931 -2
      vertex -0.373496 4 -2
      vertex -2.92114 2.7146 -2
    endloop
  endfacet
  facet normal 0 0 -1
    outer loop
      vertex -2.98373 2.92095 -2
      vertex -0.373496 4 -2
      vertex -2.94736 2.81931 -2
    endloop
  endfacet
  facet normal 0 0 -1
    outer loop
      vertex -3.02989 3.01854 -2
      vertex -0.373496 4 -2
      vertex -2.98373 2.92095 -2
    endloop
  endfacet
  facet normal 0 0 -1
    outer loop
      vertex -3.08538 3.11113 -2
      vertex -0.373496 4 -2
      vertex -3.02989 3.01854 -2
    endloop
  endfacet
  facet normal 0 0 -1
    outer loop
      vertex -3.14969 3.19783 -2
      vertex -0.373496 4 -2
      vertex -3.08538 3.11113 -2
    endloop
  endfacet
  facet normal 0 0 -1
    outer loop
      vertex -3.22218 3.27782 -2
      vertex -0.373496 4 -2
      vertex -3.14969 3.19783 -2
    endloop
  endfacet
  facet normal 0 0 -1
    outer loop
      vertex -3.30217 3.35031 -2
      vertex -0.373496 4 -2
      vertex -3.22218 3.27782 -2
    endloop
  endfacet
  facet normal 0 0 -1
    outer loop
      vertex -3.38887 3.41462 -2
      vertex -0.373496 4 -2
      vertex -3.30217 3.35031 -2
    endloop
  endfacet
  facet normal 0 0 -1
    outer loop
      vertex -3.48146 3.47011 -2
      vertex -0.373496 4 -2
      vertex -3.38887 3.41462 -2
    endloop
  endfacet
  facet normal 0 0 -1
    outer loop
      vertex -3.57905 3.51627 -2
      vertex -0.373496 4 -2
      vertex -3.48146 3.47011 -2
    endloop
  endfacet
  facet normal 0 0 -1
    outer loop
      vertex -3.68069 3.55263 -2
      vertex -0.373496 4 -2
      vertex -3.57905 3.51627 -2
    endloop
  endfacet
  facet normal 0 0 -1
    outer loop
      vertex -3.7854 3.57886 -2
      vertex -0.373496 4 -2
      vertex -3.68069 3.55263 -2
    endloop
  endfacet
  facet normal 0 0 -1
    outer loop
      vertex -3.89218 3.5947 -2
      vertex -0.373496 4 -2
      vertex -3.7854 3.57886 -2
    endloop
  endfacet
  facet normal 0 0 -1
    outer loop
      vertex -4 3.6 -2
      vertex -0.373496 4 -2
      vertex -3.89218 3.5947 -2
    endloop
  endfacet
  facet normal 0 0 -1
    outer loop
      vertex -7 4 -2
      vertex -4 3.6 -2
      vertex -4.10782 3.5947 -2
    endloop
  endfacet
  facet normal 0 0 -1
    outer loop
      vertex -5.0947 2.39218 -2
      vertex -7 4 -2
      vertex -5.1 2.5 -2
    endloop
  endfacet
  facet normal 0 0 -1
    outer loop
      vertex -5.1 2.5 -2
      vertex -7 4 -2
      vertex -5.0947 2.60782 -2
    endloop
  endfacet
  facet normal 0 0 -1
    outer loop
      vertex -5.0947 2.60782 -2
      vertex -7 4 -2
      vertex -5.07886 2.7146 -2
    endloop
  endfacet
  facet normal 0 0 -1
    outer loop
      vertex -4 3.6 -2
      vertex -7 4 -2
      vertex -0.373496 4 -2
    endloop
  endfacet
  facet normal 0 0 -1
    outer loop
      vertex -4.2146 3.57886 -2
      vertex -7 4 -2
      vertex -4.10782 3.5947 -2
    endloop
  endfacet
  facet normal 0 0 -1
    outer loop
      vertex -4.31931 3.55263 -2
      vertex -7 4 -2
      vertex -4.2146 3.57886 -2
    endloop
  endfacet
  facet normal 0 0 -1
    outer loop
      vertex -4.42095 3.51627 -2
      vertex -7 4 -2
      vertex -4.31931 3.55263 -2
    endloop
  endfacet
  facet normal 0 0 -1
    outer loop
      vertex -4.51854 3.47011 -2
      vertex -7 4 -2
      vertex -4.42095 3.51627 -2
    endloop
  endfacet
  facet normal 0 0 -1
    outer loop
      vertex -4.61113 3.41462 -2
      vertex -7 4 -2
      vertex -4.51854 3.47011 -2
    endloop
  endfacet
  facet normal 0 0 -1
    outer loop
      vertex -4.69783 3.35031 -2
      vertex -7 4 -2
      vertex -4.61113 3.41462 -2
    endloop
  endfacet
  facet normal 0 0 -1
    outer loop
      vertex -4.77782 3.27782 -2
      vertex -7 4 -2
      vertex -4.69783 3.35031 -2
    endloop
  endfacet
  facet normal 0 0 -1
    outer loop
      vertex -4.85031 3.19783 -2
      vertex -7 4 -2
      vertex -4.77782 3.27782 -2
    endloop
  endfacet
  facet normal 0 0 -1
    outer loop
      vertex -4.91462 3.11113 -2
      vertex -7 4 -2
      vertex -4.85031 3.19783 -2
    endloop
  endfacet
  facet normal 0 0 -1
    outer loop
      vertex -4.97011 3.01854 -2
      vertex -7 4 -2
      vertex -4.91462 3.11113 -2
    endloop
  endfacet
  facet normal 0 0 -1
    outer loop
      vertex -5.01627 2.92095 -2
      vertex -7 4 -2
      vertex -4.97011 3.01854 -2
    endloop
  endfacet
  facet normal 0 0 -1
    outer loop
      vertex -5.05263 2.81931 -2
      vertex -7 4 -2
      vertex -5.01627 2.92095 -2
    endloop
  endfacet
  facet normal 0 0 -1
    outer loop
      vertex -5.07886 2.7146 -2
      vertex -7 4 -2
      vertex -5.05263 2.81931 -2
    endloop
  endfacet
  facet normal -1 0 0
    outer loop
      vertex -7 -4 -2
      vertex -7 4 2
      vertex -7 4 -2
    endloop
  endfacet
  facet normal -1 -0 0
    outer loop
      vertex -7 4 2
      vertex -7 -4 -2
      vertex -7 -4 2
    endloop
  endfacet
  facet normal 0 1 0
    outer loop
      vertex 7 4 -0.863123
      vertex 7.70047 4 -3.42366
      vertex -0.373496 4 -2
    endloop
  endfacet
  facet normal 0 1 0
    outer loop
      vertex -0.373496 4 -2
      vertex 7 4 2
      vertex 7 4 -0.863123
    endloop
  endfacet
  facet normal 0 1 -0
    outer loop
      vertex 7.70047 4 -3.42366
      vertex 7 4 -0.863123
      vertex 8.11722 4 -1.06012
    endloop
  endfacet
  facet normal 0 1 0
    outer loop
      vertex 7 4 2
      vertex -0.373496 4 -2
      vertex -7 4 2
    endloop
  endfacet
  facet normal 0 1 0
    outer loop
      vertex -7 4 2
      vertex -0.373496 4 -2
      vertex -7 4 -2
    endloop
  endfacet
  facet normal 0 -1 0
    outer loop
      vertex -0.373496 -4 -2
      vertex 7 -4 2
      vertex -7 -4 2
    endloop
  endfacet
  facet normal 0 -1 0
    outer loop
      vertex -0.373496 -4 -2
      vertex -7 -4 2
      vertex -7 -4 -2
    endloop
  endfacet
  facet normal 0 -1 -0
    outer loop
      vertex 7 -4 2
      vertex -0.373496 -4 -2
      vertex 7 -4 -0.863123
    endloop
  endfacet
  facet normal 0 -1 0
    outer loop
      vertex 7.70047 -4 -3.42366
      vertex 7 -4 -0.863123
      vertex -0.373496 -4 -2
    endloop
  endfacet
  facet normal 0 -1 0
    outer loop
      vertex 7 -4 -0.863123
      vertex 7.70047 -4 -3.42366
      vertex 8.11722 -4 -1.06012
    endloop
  endfacet
  facet normal 0.984808 0 -0.173646
    outer loop
      vertex 8.11722 -4 -1.06012
      vertex 7.70047 4 -3.42366
      vertex 8.11722 4 -1.06012
    endloop
  endfacet
  facet normal 0.984808 0 -0.173646
    outer loop
      vertex 7.70047 4 -3.42366
      vertex 8.11722 -4 -1.06012
      vertex 7.70047 -4 -3.42366
    endloop
  endfacet
  facet normal 0.173649 0 0.984808
    outer loop
      vertex 7 4 -0.863123
      vertex 8.11722 -4 -1.06012
      vertex 8.11722 4 -1.06012
    endloop
  endfacet
  facet normal 0.173649 0 0.984808
    outer loop
      vertex 8.11722 -4 -1.06012
      vertex 7 4 -0.863123
      vertex 7 -4 -0.863123
    endloop
  endfacet
  facet normal -0.173648 0 -0.984808
    outer loop
      vertex -0.373496 -4 -2
      vertex 7.70047 4 -3.42366
      vertex 7.70047 -4 -3.42366
    endloop
  endfacet
  facet normal -0.173648 0 -0.984808
    outer loop
      vertex 7.70047 4 -3.42366
      vertex -0.373496 -4 -2
      vertex -0.373496 4 -2
    endloop
  endfacet
  facet normal -0.903977 -0.427581 0
    outer loop
      vertex -2.98373 -2.07905 -2
      vertex -3.02989 -1.98146 2
      vertex -3.02989 -1.98146 -2
    endloop
  endfacet
  facet normal -0.903977 -0.427581 0
    outer loop
      vertex -3.02989 -1.98146 2
      vertex -2.98373 -2.07905 -2
      vertex -2.98373 -2.07905 2
    endloop
  endfacet
  facet normal -0.941536 0.336911 0
    outer loop
      vertex -2.98373 -2.92095 -2
      vertex -2.94736 -2.81931 2
      vertex -2.94736 -2.81931 -2
    endloop
  endfacet
  facet normal -0.941536 0.336911 0
    outer loop
      vertex -2.94736 -2.81931 2
      vertex -2.98373 -2.92095 -2
      vertex -2.98373 -2.92095 2
    endloop
  endfacet
  facet normal -0.998794 -0.0490967 0
    outer loop
      vertex -2.9 -2.5 -2
      vertex -2.9053 -2.39218 2
      vertex -2.9053 -2.39218 -2
    endloop
  endfacet
  facet normal -0.998794 -0.0490967 0
    outer loop
      vertex -2.9053 -2.39218 2
      vertex -2.9 -2.5 -2
      vertex -2.9 -2.5 2
    endloop
  endfacet
  facet normal -0.427581 -0.903977 0
    outer loop
      vertex -3.57905 -1.48373 -2
      vertex -3.48146 -1.52989 2
      vertex -3.57905 -1.48373 2
    endloop
  endfacet
  facet normal -0.427581 -0.903977 -0
    outer loop
      vertex -3.48146 -1.52989 2
      vertex -3.57905 -1.48373 -2
      vertex -3.48146 -1.52989 -2
    endloop
  endfacet
  facet normal 0.998794 -0.0490967 0
    outer loop
      vertex -5.1 -2.5 2
      vertex -5.0947 -2.39218 -2
      vertex -5.0947 -2.39218 2
    endloop
  endfacet
  facet normal 0.998794 -0.0490967 0
    outer loop
      vertex -5.0947 -2.39218 -2
      vertex -5.1 -2.5 2
      vertex -5.1 -2.5 -2
    endloop
  endfacet
  facet normal 0.595752 -0.803168 0
    outer loop
      vertex -4.69783 -1.64969 -2
      vertex -4.61113 -1.58538 2
      vertex -4.69783 -1.64969 2
    endloop
  endfacet
  facet normal 0.595752 -0.803168 0
    outer loop
      vertex -4.61113 -1.58538 2
      vertex -4.69783 -1.64969 -2
      vertex -4.61113 -1.58538 -2
    endloop
  endfacet
  facet normal 0.857754 0.51406 0
    outer loop
      vertex -4.91462 -3.11113 2
      vertex -4.97011 -3.01854 -2
      vertex -4.97011 -3.01854 2
    endloop
  endfacet
  facet normal 0.857754 0.51406 0
    outer loop
      vertex -4.97011 -3.01854 -2
      vertex -4.91462 -3.11113 2
      vertex -4.91462 -3.11113 -2
    endloop
  endfacet
  facet normal -0.998794 0.0490967 0
    outer loop
      vertex -2.9053 -2.60782 -2
      vertex -2.9 -2.5 2
      vertex -2.9 -2.5 -2
    endloop
  endfacet
  facet normal -0.998794 0.0490967 0
    outer loop
      vertex -2.9 -2.5 2
      vertex -2.9053 -2.60782 -2
      vertex -2.9053 -2.60782 2
    endloop
  endfacet
  facet normal -0.803168 -0.595752 0
    outer loop
      vertex -3.08538 -1.88887 -2
      vertex -3.14969 -1.80217 2
      vertex -3.14969 -1.80217 -2
    endloop
  endfacet
  facet normal -0.803168 -0.595752 0
    outer loop
      vertex -3.14969 -1.80217 2
      vertex -3.08538 -1.88887 -2
      vertex -3.08538 -1.88887 2
    endloop
  endfacet
  facet normal -0.857754 -0.51406 0
    outer loop
      vertex -3.02989 -1.98146 -2
      vertex -3.08538 -1.88887 2
      vertex -3.08538 -1.88887 -2
    endloop
  endfacet
  facet normal -0.857754 -0.51406 0
    outer loop
      vertex -3.08538 -1.88887 2
      vertex -3.02989 -1.98146 -2
      vertex -3.02989 -1.98146 2
    endloop
  endfacet
  facet normal -0.671515 -0.740991 0
    outer loop
      vertex -3.30217 -1.64969 -2
      vertex -3.22218 -1.72218 2
      vertex -3.30217 -1.64969 2
    endloop
  endfacet
  facet normal -0.671515 -0.740991 -0
    outer loop
      vertex -3.22218 -1.72218 2
      vertex -3.30217 -1.64969 -2
      vertex -3.22218 -1.72218 -2
    endloop
  endfacet
  facet normal -0.671515 0.740991 0
    outer loop
      vertex -3.22218 -3.27782 -2
      vertex -3.30217 -3.35031 2
      vertex -3.22218 -3.27782 2
    endloop
  endfacet
  facet normal -0.671515 0.740991 0
    outer loop
      vertex -3.30217 -3.35031 2
      vertex -3.22218 -3.27782 -2
      vertex -3.30217 -3.35031 -2
    endloop
  endfacet
  facet normal -0.51406 -0.857754 0
    outer loop
      vertex -3.48146 -1.52989 -2
      vertex -3.38887 -1.58538 2
      vertex -3.48146 -1.52989 2
    endloop
  endfacet
  facet normal -0.51406 -0.857754 -0
    outer loop
      vertex -3.38887 -1.58538 2
      vertex -3.48146 -1.52989 -2
      vertex -3.38887 -1.58538 -2
    endloop
  endfacet
  facet normal -0.97005 -0.242906 0
    outer loop
      vertex -2.92114 -2.2854 -2
      vertex -2.94736 -2.18069 2
      vertex -2.94736 -2.18069 -2
    endloop
  endfacet
  facet normal -0.97005 -0.242906 0
    outer loop
      vertex -2.94736 -2.18069 2
      vertex -2.92114 -2.2854 -2
      vertex -2.92114 -2.2854 2
    endloop
  endfacet
  facet normal -0.989176 -0.146737 0
    outer loop
      vertex -2.9053 -2.39218 -2
      vertex -2.92114 -2.2854 2
      vertex -2.92114 -2.2854 -2
    endloop
  endfacet
  facet normal -0.989176 -0.146737 0
    outer loop
      vertex -2.92114 -2.2854 2
      vertex -2.9053 -2.39218 -2
      vertex -2.9053 -2.39218 2
    endloop
  endfacet
  facet normal -0.941536 -0.336911 0
    outer loop
      vertex -2.94736 -2.18069 -2
      vertex -2.98373 -2.07905 2
      vertex -2.98373 -2.07905 -2
    endloop
  endfacet
  facet normal -0.941536 -0.336911 0
    outer loop
      vertex -2.98373 -2.07905 2
      vertex -2.94736 -2.18069 -2
      vertex -2.94736 -2.18069 2
    endloop
  endfacet
  facet normal -0.595752 0.803168 0
    outer loop
      vertex -3.30217 -3.35031 -2
      vertex -3.38887 -3.41462 2
      vertex -3.30217 -3.35031 2
    endloop
  endfacet
  facet normal -0.595752 0.803168 0
    outer loop
      vertex -3.38887 -3.41462 2
      vertex -3.30217 -3.35031 -2
      vertex -3.38887 -3.41462 -2
    endloop
  endfacet
  facet normal 0.803168 0.595752 0
    outer loop
      vertex -4.85031 -3.19783 2
      vertex -4.91462 -3.11113 -2
      vertex -4.91462 -3.11113 2
    endloop
  endfacet
  facet normal 0.803168 0.595752 0
    outer loop
      vertex -4.91462 -3.11113 -2
      vertex -4.85031 -3.19783 2
      vertex -4.85031 -3.19783 -2
    endloop
  endfacet
  facet normal -0.740991 0.671515 0
    outer loop
      vertex -3.22218 -3.27782 -2
      vertex -3.14969 -3.19783 2
      vertex -3.14969 -3.19783 -2
    endloop
  endfacet
  facet normal -0.740991 0.671515 0
    outer loop
      vertex -3.14969 -3.19783 2
      vertex -3.22218 -3.27782 -2
      vertex -3.22218 -3.27782 2
    endloop
  endfacet
  facet normal 0.0490967 -0.998794 0
    outer loop
      vertex -4.10782 -1.4053 -2
      vertex -4 -1.4 2
      vertex -4.10782 -1.4053 2
    endloop
  endfacet
  facet normal 0.0490967 -0.998794 0
    outer loop
      vertex -4 -1.4 2
      vertex -4.10782 -1.4053 -2
      vertex -4 -1.4 -2
    endloop
  endfacet
  facet normal -0.97005 0.242906 0
    outer loop
      vertex -2.94736 -2.81931 -2
      vertex -2.92114 -2.7146 2
      vertex -2.92114 -2.7146 -2
    endloop
  endfacet
  facet normal -0.97005 0.242906 0
    outer loop
      vertex -2.92114 -2.7146 2
      vertex -2.94736 -2.81931 -2
      vertex -2.94736 -2.81931 2
    endloop
  endfacet
  facet normal 0.941566 -0.336829 0
    outer loop
      vertex -5.05263 -2.18069 2
      vertex -5.01627 -2.07905 -2
      vertex -5.01627 -2.07905 2
    endloop
  endfacet
  facet normal 0.941566 -0.336829 0
    outer loop
      vertex -5.01627 -2.07905 -2
      vertex -5.05263 -2.18069 2
      vertex -5.05263 -2.18069 -2
    endloop
  endfacet
  facet normal 0.903977 -0.427581 0
    outer loop
      vertex -5.01627 -2.07905 2
      vertex -4.97011 -1.98146 -2
      vertex -4.97011 -1.98146 2
    endloop
  endfacet
  facet normal 0.903977 -0.427581 0
    outer loop
      vertex -4.97011 -1.98146 -2
      vertex -5.01627 -2.07905 2
      vertex -5.01627 -2.07905 -2
    endloop
  endfacet
  facet normal 0.51406 -0.857754 0
    outer loop
      vertex -4.61113 -1.58538 -2
      vertex -4.51854 -1.52989 2
      vertex -4.61113 -1.58538 2
    endloop
  endfacet
  facet normal 0.51406 -0.857754 0
    outer loop
      vertex -4.51854 -1.52989 2
      vertex -4.61113 -1.58538 -2
      vertex -4.51854 -1.52989 -2
    endloop
  endfacet
  facet normal 0.336911 -0.941536 0
    outer loop
      vertex -4.42095 -1.48373 -2
      vertex -4.31931 -1.44736 2
      vertex -4.42095 -1.48373 2
    endloop
  endfacet
  facet normal 0.336911 -0.941536 0
    outer loop
      vertex -4.31931 -1.44736 2
      vertex -4.42095 -1.48373 -2
      vertex -4.31931 -1.44736 -2
    endloop
  endfacet
  facet normal 0.989176 -0.146737 0
    outer loop
      vertex -5.0947 -2.39218 2
      vertex -5.07886 -2.2854 -2
      vertex -5.07886 -2.2854 2
    endloop
  endfacet
  facet normal 0.989176 -0.146737 0
    outer loop
      vertex -5.07886 -2.2854 -2
      vertex -5.0947 -2.39218 2
      vertex -5.0947 -2.39218 -2
    endloop
  endfacet
  facet normal -0.146737 0.989176 0
    outer loop
      vertex -3.7854 -3.57886 -2
      vertex -3.89218 -3.5947 2
      vertex -3.7854 -3.57886 2
    endloop
  endfacet
  facet normal -0.146737 0.989176 0
    outer loop
      vertex -3.89218 -3.5947 2
      vertex -3.7854 -3.57886 -2
      vertex -3.89218 -3.5947 -2
    endloop
  endfacet
  facet normal -0.146737 -0.989176 0
    outer loop
      vertex -3.89218 -1.4053 -2
      vertex -3.7854 -1.42114 2
      vertex -3.89218 -1.4053 2
    endloop
  endfacet
  facet normal -0.146737 -0.989176 -0
    outer loop
      vertex -3.7854 -1.42114 2
      vertex -3.89218 -1.4053 -2
      vertex -3.7854 -1.42114 -2
    endloop
  endfacet
  facet normal -0.336829 0.941566 0
    outer loop
      vertex -3.57905 -3.51627 -2
      vertex -3.68069 -3.55263 2
      vertex -3.57905 -3.51627 2
    endloop
  endfacet
  facet normal -0.336829 0.941566 0
    outer loop
      vertex -3.68069 -3.55263 2
      vertex -3.57905 -3.51627 -2
      vertex -3.68069 -3.55263 -2
    endloop
  endfacet
  facet normal 0.671515 -0.740991 0
    outer loop
      vertex -4.77782 -1.72218 -2
      vertex -4.69783 -1.64969 2
      vertex -4.77782 -1.72218 2
    endloop
  endfacet
  facet normal 0.671515 -0.740991 0
    outer loop
      vertex -4.69783 -1.64969 2
      vertex -4.77782 -1.72218 -2
      vertex -4.69783 -1.64969 -2
    endloop
  endfacet
  facet normal -0.0490967 -0.998794 0
    outer loop
      vertex -4 -1.4 -2
      vertex -3.89218 -1.4053 2
      vertex -4 -1.4 2
    endloop
  endfacet
  facet normal -0.0490967 -0.998794 -0
    outer loop
      vertex -3.89218 -1.4053 2
      vertex -4 -1.4 -2
      vertex -3.89218 -1.4053 -2
    endloop
  endfacet
  facet normal 0.970028 -0.242993 0
    outer loop
      vertex -5.07886 -2.2854 2
      vertex -5.05263 -2.18069 -2
      vertex -5.05263 -2.18069 2
    endloop
  endfacet
  facet normal 0.970028 -0.242993 0
    outer loop
      vertex -5.05263 -2.18069 -2
      vertex -5.07886 -2.2854 2
      vertex -5.07886 -2.2854 -2
    endloop
  endfacet
  facet normal 0.0490967 0.998794 -0
    outer loop
      vertex -4 -3.6 -2
      vertex -4.10782 -3.5947 2
      vertex -4 -3.6 2
    endloop
  endfacet
  facet normal 0.0490967 0.998794 0
    outer loop
      vertex -4.10782 -3.5947 2
      vertex -4 -3.6 -2
      vertex -4.10782 -3.5947 -2
    endloop
  endfacet
  facet normal 0.740991 0.671515 0
    outer loop
      vertex -4.77782 -3.27782 2
      vertex -4.85031 -3.19783 -2
      vertex -4.85031 -3.19783 2
    endloop
  endfacet
  facet normal 0.740991 0.671515 0
    outer loop
      vertex -4.85031 -3.19783 -2
      vertex -4.77782 -3.27782 2
      vertex -4.77782 -3.27782 -2
    endloop
  endfacet
  facet normal -0.0490967 0.998794 0
    outer loop
      vertex -3.89218 -3.5947 -2
      vertex -4 -3.6 2
      vertex -3.89218 -3.5947 2
    endloop
  endfacet
  facet normal -0.0490967 0.998794 0
    outer loop
      vertex -4 -3.6 2
      vertex -3.89218 -3.5947 -2
      vertex -4 -3.6 -2
    endloop
  endfacet
  facet normal -0.903977 0.427581 0
    outer loop
      vertex -3.02989 -3.01854 -2
      vertex -2.98373 -2.92095 2
      vertex -2.98373 -2.92095 -2
    endloop
  endfacet
  facet normal -0.903977 0.427581 0
    outer loop
      vertex -2.98373 -2.92095 2
      vertex -3.02989 -3.01854 -2
      vertex -3.02989 -3.01854 2
    endloop
  endfacet
  facet normal -0.740991 -0.671515 0
    outer loop
      vertex -3.14969 -1.80217 -2
      vertex -3.22218 -1.72218 2
      vertex -3.22218 -1.72218 -2
    endloop
  endfacet
  facet normal -0.740991 -0.671515 0
    outer loop
      vertex -3.22218 -1.72218 2
      vertex -3.14969 -1.80217 -2
      vertex -3.14969 -1.80217 2
    endloop
  endfacet
  facet normal 0.427581 -0.903977 0
    outer loop
      vertex -4.51854 -1.52989 -2
      vertex -4.42095 -1.48373 2
      vertex -4.51854 -1.52989 2
    endloop
  endfacet
  facet normal 0.427581 -0.903977 0
    outer loop
      vertex -4.42095 -1.48373 2
      vertex -4.51854 -1.52989 -2
      vertex -4.42095 -1.48373 -2
    endloop
  endfacet
  facet normal -0.427581 0.903977 0
    outer loop
      vertex -3.48146 -3.47011 -2
      vertex -3.57905 -3.51627 2
      vertex -3.48146 -3.47011 2
    endloop
  endfacet
  facet normal -0.427581 0.903977 0
    outer loop
      vertex -3.57905 -3.51627 2
      vertex -3.48146 -3.47011 -2
      vertex -3.57905 -3.51627 -2
    endloop
  endfacet
  facet normal -0.595752 -0.803168 0
    outer loop
      vertex -3.38887 -1.58538 -2
      vertex -3.30217 -1.64969 2
      vertex -3.38887 -1.58538 2
    endloop
  endfacet
  facet normal -0.595752 -0.803168 -0
    outer loop
      vertex -3.30217 -1.64969 2
      vertex -3.38887 -1.58538 -2
      vertex -3.30217 -1.64969 -2
    endloop
  endfacet
  facet normal 0.242906 -0.97005 0
    outer loop
      vertex -4.31931 -1.44736 -2
      vertex -4.2146 -1.42114 2
      vertex -4.31931 -1.44736 2
    endloop
  endfacet
  facet normal 0.242906 -0.97005 0
    outer loop
      vertex -4.2146 -1.42114 2
      vertex -4.31931 -1.44736 -2
      vertex -4.2146 -1.42114 -2
    endloop
  endfacet
  facet normal -0.336911 -0.941536 0
    outer loop
      vertex -3.68069 -1.44736 -2
      vertex -3.57905 -1.48373 2
      vertex -3.68069 -1.44736 2
    endloop
  endfacet
  facet normal -0.336911 -0.941536 -0
    outer loop
      vertex -3.57905 -1.48373 2
      vertex -3.68069 -1.44736 -2
      vertex -3.57905 -1.48373 -2
    endloop
  endfacet
  facet normal -0.989176 0.146737 0
    outer loop
      vertex -2.92114 -2.7146 -2
      vertex -2.9053 -2.60782 2
      vertex -2.9053 -2.60782 -2
    endloop
  endfacet
  facet normal -0.989176 0.146737 0
    outer loop
      vertex -2.9053 -2.60782 2
      vertex -2.92114 -2.7146 -2
      vertex -2.92114 -2.7146 2
    endloop
  endfacet
  facet normal 0.740991 -0.671515 0
    outer loop
      vertex -4.85031 -1.80217 2
      vertex -4.77782 -1.72218 -2
      vertex -4.77782 -1.72218 2
    endloop
  endfacet
  facet normal 0.740991 -0.671515 0
    outer loop
      vertex -4.77782 -1.72218 -2
      vertex -4.85031 -1.80217 2
      vertex -4.85031 -1.80217 -2
    endloop
  endfacet
  facet normal 0.146737 -0.989176 0
    outer loop
      vertex -4.2146 -1.42114 -2
      vertex -4.10782 -1.4053 2
      vertex -4.2146 -1.42114 2
    endloop
  endfacet
  facet normal 0.146737 -0.989176 0
    outer loop
      vertex -4.10782 -1.4053 2
      vertex -4.2146 -1.42114 -2
      vertex -4.10782 -1.4053 -2
    endloop
  endfacet
  facet normal -0.803168 0.595752 0
    outer loop
      vertex -3.14969 -3.19783 -2
      vertex -3.08538 -3.11113 2
      vertex -3.08538 -3.11113 -2
    endloop
  endfacet
  facet normal -0.803168 0.595752 0
    outer loop
      vertex -3.08538 -3.11113 2
      vertex -3.14969 -3.19783 -2
      vertex -3.14969 -3.19783 2
    endloop
  endfacet
  facet normal 0.970028 0.242993 0
    outer loop
      vertex -5.05263 -2.81931 2
      vertex -5.07886 -2.7146 -2
      vertex -5.07886 -2.7146 2
    endloop
  endfacet
  facet normal 0.970028 0.242993 0
    outer loop
      vertex -5.07886 -2.7146 -2
      vertex -5.05263 -2.81931 2
      vertex -5.05263 -2.81931 -2
    endloop
  endfacet
  facet normal 0.903977 0.427581 0
    outer loop
      vertex -4.97011 -3.01854 2
      vertex -5.01627 -2.92095 -2
      vertex -5.01627 -2.92095 2
    endloop
  endfacet
  facet normal 0.903977 0.427581 0
    outer loop
      vertex -5.01627 -2.92095 -2
      vertex -4.97011 -3.01854 2
      vertex -4.97011 -3.01854 -2
    endloop
  endfacet
  facet normal 0.941566 0.336829 0
    outer loop
      vertex -5.01627 -2.92095 2
      vertex -5.05263 -2.81931 -2
      vertex -5.05263 -2.81931 2
    endloop
  endfacet
  facet normal 0.941566 0.336829 0
    outer loop
      vertex -5.05263 -2.81931 -2
      vertex -5.01627 -2.92095 2
      vertex -5.01627 -2.92095 -2
    endloop
  endfacet
  facet normal 0.803168 -0.595752 0
    outer loop
      vertex -4.91462 -1.88887 2
      vertex -4.85031 -1.80217 -2
      vertex -4.85031 -1.80217 2
    endloop
  endfacet
  facet normal 0.803168 -0.595752 0
    outer loop
      vertex -4.85031 -1.80217 -2
      vertex -4.91462 -1.88887 2
      vertex -4.91462 -1.88887 -2
    endloop
  endfacet
  facet normal -0.242993 0.970028 0
    outer loop
      vertex -3.68069 -3.55263 -2
      vertex -3.7854 -3.57886 2
      vertex -3.68069 -3.55263 2
    endloop
  endfacet
  facet normal -0.242993 0.970028 0
    outer loop
      vertex -3.7854 -3.57886 2
      vertex -3.68069 -3.55263 -2
      vertex -3.7854 -3.57886 -2
    endloop
  endfacet
  facet normal 0.51406 0.857754 -0
    outer loop
      vertex -4.51854 -3.47011 -2
      vertex -4.61113 -3.41462 2
      vertex -4.51854 -3.47011 2
    endloop
  endfacet
  facet normal 0.51406 0.857754 0
    outer loop
      vertex -4.61113 -3.41462 2
      vertex -4.51854 -3.47011 -2
      vertex -4.61113 -3.41462 -2
    endloop
  endfacet
  facet normal 0.146737 0.989176 -0
    outer loop
      vertex -4.10782 -3.5947 -2
      vertex -4.2146 -3.57886 2
      vertex -4.10782 -3.5947 2
    endloop
  endfacet
  facet normal 0.146737 0.989176 0
    outer loop
      vertex -4.2146 -3.57886 2
      vertex -4.10782 -3.5947 -2
      vertex -4.2146 -3.57886 -2
    endloop
  endfacet
  facet normal 0.336829 0.941566 -0
    outer loop
      vertex -4.31931 -3.55263 -2
      vertex -4.42095 -3.51627 2
      vertex -4.31931 -3.55263 2
    endloop
  endfacet
  facet normal 0.336829 0.941566 0
    outer loop
      vertex -4.42095 -3.51627 2
      vertex -4.31931 -3.55263 -2
      vertex -4.42095 -3.51627 -2
    endloop
  endfacet
  facet normal -0.857754 0.51406 0
    outer loop
      vertex -3.08538 -3.11113 -2
      vertex -3.02989 -3.01854 2
      vertex -3.02989 -3.01854 -2
    endloop
  endfacet
  facet normal -0.857754 0.51406 0
    outer loop
      vertex -3.02989 -3.01854 2
      vertex -3.08538 -3.11113 -2
      vertex -3.08538 -3.11113 2
    endloop
  endfacet
  facet normal -0.51406 0.857754 0
    outer loop
      vertex -3.38887 -3.41462 -2
      vertex -3.48146 -3.47011 2
      vertex -3.38887 -3.41462 2
    endloop
  endfacet
  facet normal -0.51406 0.857754 0
    outer loop
      vertex -3.48146 -3.47011 2
      vertex -3.38887 -3.41462 -2
      vertex -3.48146 -3.47011 -2
    endloop
  endfacet
  facet normal 0.998794 0.0490967 0
    outer loop
      vertex -5.0947 -2.60782 2
      vertex -5.1 -2.5 -2
      vertex -5.1 -2.5 2
    endloop
  endfacet
  facet normal 0.998794 0.0490967 0
    outer loop
      vertex -5.1 -2.5 -2
      vertex -5.0947 -2.60782 2
      vertex -5.0947 -2.60782 -2
    endloop
  endfacet
  facet normal 0.989176 0.146737 0
    outer loop
      vertex -5.07886 -2.7146 2
      vertex -5.0947 -2.60782 -2
      vertex -5.0947 -2.60782 2
    endloop
  endfacet
  facet normal 0.989176 0.146737 0
    outer loop
      vertex -5.0947 -2.60782 -2
      vertex -5.07886 -2.7146 2
      vertex -5.07886 -2.7146 -2
    endloop
  endfacet
  facet normal 0.671515 0.740991 -0
    outer loop
      vertex -4.69783 -3.35031 -2
      vertex -4.77782 -3.27782 2
      vertex -4.69783 -3.35031 2
    endloop
  endfacet
  facet normal 0.671515 0.740991 0
    outer loop
      vertex -4.77782 -3.27782 2
      vertex -4.69783 -3.35031 -2
      vertex -4.77782 -3.27782 -2
    endloop
  endfacet
  facet normal -0.242906 -0.97005 0
    outer loop
      vertex -3.7854 -1.42114 -2
      vertex -3.68069 -1.44736 2
      vertex -3.7854 -1.42114 2
    endloop
  endfacet
  facet normal -0.242906 -0.97005 -0
    outer loop
      vertex -3.68069 -1.44736 2
      vertex -3.7854 -1.42114 -2
      vertex -3.68069 -1.44736 -2
    endloop
  endfacet
  facet normal 0.427581 0.903977 -0
    outer loop
      vertex -4.42095 -3.51627 -2
      vertex -4.51854 -3.47011 2
      vertex -4.42095 -3.51627 2
    endloop
  endfacet
  facet normal 0.427581 0.903977 0
    outer loop
      vertex -4.51854 -3.47011 2
      vertex -4.42095 -3.51627 -2
      vertex -4.51854 -3.47011 -2
    endloop
  endfacet
  facet normal 0.242993 0.970028 -0
    outer loop
      vertex -4.2146 -3.57886 -2
      vertex -4.31931 -3.55263 2
      vertex -4.2146 -3.57886 2
    endloop
  endfacet
  facet normal 0.242993 0.970028 0
    outer loop
      vertex -4.31931 -3.55263 2
      vertex -4.2146 -3.57886 -2
      vertex -4.31931 -3.55263 -2
    endloop
  endfacet
  facet normal 0.857754 -0.51406 0
    outer loop
      vertex -4.97011 -1.98146 2
      vertex -4.91462 -1.88887 -2
      vertex -4.91462 -1.88887 2
    endloop
  endfacet
  facet normal 0.857754 -0.51406 0
    outer loop
      vertex -4.91462 -1.88887 -2
      vertex -4.97011 -1.98146 2
      vertex -4.97011 -1.98146 -2
    endloop
  endfacet
  facet normal 0.595752 0.803168 -0
    outer loop
      vertex -4.61113 -3.41462 -2
      vertex -4.69783 -3.35031 2
      vertex -4.61113 -3.41462 2
    endloop
  endfacet
  facet normal 0.595752 0.803168 0
    outer loop
      vertex -4.69783 -3.35031 2
      vertex -4.61113 -3.41462 -2
      vertex -4.69783 -3.35031 -2
    endloop
  endfacet
  facet normal 0.336911 0.941536 -0
    outer loop
      vertex -4.31931 1.44736 -2
      vertex -4.42095 1.48373 2
      vertex -4.31931 1.44736 2
    endloop
  endfacet
  facet normal 0.336911 0.941536 0
    outer loop
      vertex -4.42095 1.48373 2
      vertex -4.31931 1.44736 -2
      vertex -4.42095 1.48373 -2
    endloop
  endfacet
  facet normal -0.989176 -0.146737 0
    outer loop
      vertex -2.9053 2.60782 -2
      vertex -2.92114 2.7146 2
      vertex -2.92114 2.7146 -2
    endloop
  endfacet
  facet normal -0.989176 -0.146737 0
    outer loop
      vertex -2.92114 2.7146 2
      vertex -2.9053 2.60782 -2
      vertex -2.9053 2.60782 2
    endloop
  endfacet
  facet normal -0.998794 -0.0490967 0
    outer loop
      vertex -2.9 2.5 -2
      vertex -2.9053 2.60782 2
      vertex -2.9053 2.60782 -2
    endloop
  endfacet
  facet normal -0.998794 -0.0490967 0
    outer loop
      vertex -2.9053 2.60782 2
      vertex -2.9 2.5 -2
      vertex -2.9 2.5 2
    endloop
  endfacet
  facet normal -0.97005 -0.242906 0
    outer loop
      vertex -2.92114 2.7146 -2
      vertex -2.94736 2.81931 2
      vertex -2.94736 2.81931 -2
    endloop
  endfacet
  facet normal -0.97005 -0.242906 0
    outer loop
      vertex -2.94736 2.81931 2
      vertex -2.92114 2.7146 -2
      vertex -2.92114 2.7146 2
    endloop
  endfacet
  facet normal 0.989176 -0.146737 0
    outer loop
      vertex -5.0947 2.60782 2
      vertex -5.07886 2.7146 -2
      vertex -5.07886 2.7146 2
    endloop
  endfacet
  facet normal 0.989176 -0.146737 0
    outer loop
      vertex -5.07886 2.7146 -2
      vertex -5.0947 2.60782 2
      vertex -5.0947 2.60782 -2
    endloop
  endfacet
  facet normal 0.242906 0.97005 -0
    outer loop
      vertex -4.2146 1.42114 -2
      vertex -4.31931 1.44736 2
      vertex -4.2146 1.42114 2
    endloop
  endfacet
  facet normal 0.242906 0.97005 0
    outer loop
      vertex -4.31931 1.44736 2
      vertex -4.2146 1.42114 -2
      vertex -4.31931 1.44736 -2
    endloop
  endfacet
  facet normal -0.336829 -0.941566 0
    outer loop
      vertex -3.68069 3.55263 -2
      vertex -3.57905 3.51627 2
      vertex -3.68069 3.55263 2
    endloop
  endfacet
  facet normal -0.336829 -0.941566 -0
    outer loop
      vertex -3.57905 3.51627 2
      vertex -3.68069 3.55263 -2
      vertex -3.57905 3.51627 -2
    endloop
  endfacet
  facet normal 0.51406 -0.857754 0
    outer loop
      vertex -4.61113 3.41462 -2
      vertex -4.51854 3.47011 2
      vertex -4.61113 3.41462 2
    endloop
  endfacet
  facet normal 0.51406 -0.857754 0
    outer loop
      vertex -4.51854 3.47011 2
      vertex -4.61113 3.41462 -2
      vertex -4.51854 3.47011 -2
    endloop
  endfacet
  facet normal 0.903977 0.427581 0
    outer loop
      vertex -4.97011 1.98146 2
      vertex -5.01627 2.07905 -2
      vertex -5.01627 2.07905 2
    endloop
  endfacet
  facet normal 0.903977 0.427581 0
    outer loop
      vertex -5.01627 2.07905 -2
      vertex -4.97011 1.98146 2
      vertex -4.97011 1.98146 -2
    endloop
  endfacet
  facet normal 0.242993 -0.970028 0
    outer loop
      vertex -4.31931 3.55263 -2
      vertex -4.2146 3.57886 2
      vertex -4.31931 3.55263 2
    endloop
  endfacet
  facet normal 0.242993 -0.970028 0
    outer loop
      vertex -4.2146 3.57886 2
      vertex -4.31931 3.55263 -2
      vertex -4.2146 3.57886 -2
    endloop
  endfacet
  facet normal 0.857754 0.51406 0
    outer loop
      vertex -4.91462 1.88887 2
      vertex -4.97011 1.98146 -2
      vertex -4.97011 1.98146 2
    endloop
  endfacet
  facet normal 0.857754 0.51406 0
    outer loop
      vertex -4.97011 1.98146 -2
      vertex -4.91462 1.88887 2
      vertex -4.91462 1.88887 -2
    endloop
  endfacet
  facet normal -0.242906 0.97005 0
    outer loop
      vertex -3.68069 1.44736 -2
      vertex -3.7854 1.42114 2
      vertex -3.68069 1.44736 2
    endloop
  endfacet
  facet normal -0.242906 0.97005 0
    outer loop
      vertex -3.7854 1.42114 2
      vertex -3.68069 1.44736 -2
      vertex -3.7854 1.42114 -2
    endloop
  endfacet
  facet normal 0.595752 0.803168 -0
    outer loop
      vertex -4.61113 1.58538 -2
      vertex -4.69783 1.64969 2
      vertex -4.61113 1.58538 2
    endloop
  endfacet
  facet normal 0.595752 0.803168 0
    outer loop
      vertex -4.69783 1.64969 2
      vertex -4.61113 1.58538 -2
      vertex -4.69783 1.64969 -2
    endloop
  endfacet
  facet normal -0.51406 0.857754 0
    outer loop
      vertex -3.38887 1.58538 -2
      vertex -3.48146 1.52989 2
      vertex -3.38887 1.58538 2
    endloop
  endfacet
  facet normal -0.51406 0.857754 0
    outer loop
      vertex -3.48146 1.52989 2
      vertex -3.38887 1.58538 -2
      vertex -3.48146 1.52989 -2
    endloop
  endfacet
  facet normal -0.803168 0.595752 0
    outer loop
      vertex -3.14969 1.80217 -2
      vertex -3.08538 1.88887 2
      vertex -3.08538 1.88887 -2
    endloop
  endfacet
  facet normal -0.803168 0.595752 0
    outer loop
      vertex -3.08538 1.88887 2
      vertex -3.14969 1.80217 -2
      vertex -3.14969 1.80217 2
    endloop
  endfacet
  facet normal -0.146737 -0.989176 0
    outer loop
      vertex -3.89218 3.5947 -2
      vertex -3.7854 3.57886 2
      vertex -3.89218 3.5947 2
    endloop
  endfacet
  facet normal -0.146737 -0.989176 -0
    outer loop
      vertex -3.7854 3.57886 2
      vertex -3.89218 3.5947 -2
      vertex -3.7854 3.57886 -2
    endloop
  endfacet
  facet normal 0.595752 -0.803168 0
    outer loop
      vertex -4.69783 3.35031 -2
      vertex -4.61113 3.41462 2
      vertex -4.69783 3.35031 2
    endloop
  endfacet
  facet normal 0.595752 -0.803168 0
    outer loop
      vertex -4.61113 3.41462 2
      vertex -4.69783 3.35031 -2
      vertex -4.61113 3.41462 -2
    endloop
  endfacet
  facet normal -0.427581 0.903977 0
    outer loop
      vertex -3.48146 1.52989 -2
      vertex -3.57905 1.48373 2
      vertex -3.48146 1.52989 2
    endloop
  endfacet
  facet normal -0.427581 0.903977 0
    outer loop
      vertex -3.57905 1.48373 2
      vertex -3.48146 1.52989 -2
      vertex -3.57905 1.48373 -2
    endloop
  endfacet
  facet normal 0.803168 -0.595752 0
    outer loop
      vertex -4.91462 3.11113 2
      vertex -4.85031 3.19783 -2
      vertex -4.85031 3.19783 2
    endloop
  endfacet
  facet normal 0.803168 -0.595752 0
    outer loop
      vertex -4.85031 3.19783 -2
      vertex -4.91462 3.11113 2
      vertex -4.91462 3.11113 -2
    endloop
  endfacet
  facet normal -0.989176 0.146737 0
    outer loop
      vertex -2.92114 2.2854 -2
      vertex -2.9053 2.39218 2
      vertex -2.9053 2.39218 -2
    endloop
  endfacet
  facet normal -0.989176 0.146737 0
    outer loop
      vertex -2.9053 2.39218 2
      vertex -2.92114 2.2854 -2
      vertex -2.92114 2.2854 2
    endloop
  endfacet
  facet normal 0.941566 -0.336829 0
    outer loop
      vertex -5.05263 2.81931 2
      vertex -5.01627 2.92095 -2
      vertex -5.01627 2.92095 2
    endloop
  endfacet
  facet normal 0.941566 -0.336829 0
    outer loop
      vertex -5.01627 2.92095 -2
      vertex -5.05263 2.81931 2
      vertex -5.05263 2.81931 -2
    endloop
  endfacet
  facet normal -0.427581 -0.903977 0
    outer loop
      vertex -3.57905 3.51627 -2
      vertex -3.48146 3.47011 2
      vertex -3.57905 3.51627 2
    endloop
  endfacet
  facet normal -0.427581 -0.903977 -0
    outer loop
      vertex -3.48146 3.47011 2
      vertex -3.57905 3.51627 -2
      vertex -3.48146 3.47011 -2
    endloop
  endfacet
  facet normal 0.941566 0.336829 0
    outer loop
      vertex -5.01627 2.07905 2
      vertex -5.05263 2.18069 -2
      vertex -5.05263 2.18069 2
    endloop
  endfacet
  facet normal 0.941566 0.336829 0
    outer loop
      vertex -5.05263 2.18069 -2
      vertex -5.01627 2.07905 2
      vertex -5.01627 2.07905 -2
    endloop
  endfacet
  facet normal -0.97005 0.242906 0
    outer loop
      vertex -2.94736 2.18069 -2
      vertex -2.92114 2.2854 2
      vertex -2.92114 2.2854 -2
    endloop
  endfacet
  facet normal -0.97005 0.242906 0
    outer loop
      vertex -2.92114 2.2854 2
      vertex -2.94736 2.18069 -2
      vertex -2.94736 2.18069 2
    endloop
  endfacet
  facet normal 0.0490967 -0.998794 0
    outer loop
      vertex -4.10782 3.5947 -2
      vertex -4 3.6 2
      vertex -4.10782 3.5947 2
    endloop
  endfacet
  facet normal 0.0490967 -0.998794 0
    outer loop
      vertex -4 3.6 2
      vertex -4.10782 3.5947 -2
      vertex -4 3.6 -2
    endloop
  endfacet
  facet normal -0.671515 -0.740991 0
    outer loop
      vertex -3.30217 3.35031 -2
      vertex -3.22218 3.27782 2
      vertex -3.30217 3.35031 2
    endloop
  endfacet
  facet normal -0.671515 -0.740991 -0
    outer loop
      vertex -3.22218 3.27782 2
      vertex -3.30217 3.35031 -2
      vertex -3.22218 3.27782 -2
    endloop
  endfacet
  facet normal 0.427581 -0.903977 0
    outer loop
      vertex -4.51854 3.47011 -2
      vertex -4.42095 3.51627 2
      vertex -4.51854 3.47011 2
    endloop
  endfacet
  facet normal 0.427581 -0.903977 0
    outer loop
      vertex -4.42095 3.51627 2
      vertex -4.51854 3.47011 -2
      vertex -4.42095 3.51627 -2
    endloop
  endfacet
  facet normal 0.671515 -0.740991 0
    outer loop
      vertex -4.77782 3.27782 -2
      vertex -4.69783 3.35031 2
      vertex -4.77782 3.27782 2
    endloop
  endfacet
  facet normal 0.671515 -0.740991 0
    outer loop
      vertex -4.69783 3.35031 2
      vertex -4.77782 3.27782 -2
      vertex -4.69783 3.35031 -2
    endloop
  endfacet
  facet normal -0.336911 0.941536 0
    outer loop
      vertex -3.57905 1.48373 -2
      vertex -3.68069 1.44736 2
      vertex -3.57905 1.48373 2
    endloop
  endfacet
  facet normal -0.336911 0.941536 0
    outer loop
      vertex -3.68069 1.44736 2
      vertex -3.57905 1.48373 -2
      vertex -3.68069 1.44736 -2
    endloop
  endfacet
  facet normal 0.336829 -0.941566 0
    outer loop
      vertex -4.42095 3.51627 -2
      vertex -4.31931 3.55263 2
      vertex -4.42095 3.51627 2
    endloop
  endfacet
  facet normal 0.336829 -0.941566 0
    outer loop
      vertex -4.31931 3.55263 2
      vertex -4.42095 3.51627 -2
      vertex -4.31931 3.55263 -2
    endloop
  endfacet
  facet normal -0.803168 -0.595752 0
    outer loop
      vertex -3.08538 3.11113 -2
      vertex -3.14969 3.19783 2
      vertex -3.14969 3.19783 -2
    endloop
  endfacet
  facet normal -0.803168 -0.595752 0
    outer loop
      vertex -3.14969 3.19783 2
      vertex -3.08538 3.11113 -2
      vertex -3.08538 3.11113 2
    endloop
  endfacet
  facet normal 0.857754 -0.51406 0
    outer loop
      vertex -4.97011 3.01854 2
      vertex -4.91462 3.11113 -2
      vertex -4.91462 3.11113 2
    endloop
  endfacet
  facet normal 0.857754 -0.51406 0
    outer loop
      vertex -4.91462 3.11113 -2
      vertex -4.97011 3.01854 2
      vertex -4.97011 3.01854 -2
    endloop
  endfacet
  facet normal -0.998794 0.0490967 0
    outer loop
      vertex -2.9053 2.39218 -2
      vertex -2.9 2.5 2
      vertex -2.9 2.5 -2
    endloop
  endfacet
  facet normal -0.998794 0.0490967 0
    outer loop
      vertex -2.9 2.5 2
      vertex -2.9053 2.39218 -2
      vertex -2.9053 2.39218 2
    endloop
  endfacet
  facet normal -0.903977 0.427581 0
    outer loop
      vertex -3.02989 1.98146 -2
      vertex -2.98373 2.07905 2
      vertex -2.98373 2.07905 -2
    endloop
  endfacet
  facet normal -0.903977 0.427581 0
    outer loop
      vertex -2.98373 2.07905 2
      vertex -3.02989 1.98146 -2
      vertex -3.02989 1.98146 2
    endloop
  endfacet
  facet normal 0.671515 0.740991 -0
    outer loop
      vertex -4.69783 1.64969 -2
      vertex -4.77782 1.72218 2
      vertex -4.69783 1.64969 2
    endloop
  endfacet
  facet normal 0.671515 0.740991 0
    outer loop
      vertex -4.77782 1.72218 2
      vertex -4.69783 1.64969 -2
      vertex -4.77782 1.72218 -2
    endloop
  endfacet
  facet normal -0.595752 -0.803168 0
    outer loop
      vertex -3.38887 3.41462 -2
      vertex -3.30217 3.35031 2
      vertex -3.38887 3.41462 2
    endloop
  endfacet
  facet normal -0.595752 -0.803168 -0
    outer loop
      vertex -3.30217 3.35031 2
      vertex -3.38887 3.41462 -2
      vertex -3.30217 3.35031 -2
    endloop
  endfacet
  facet normal 0.51406 0.857754 -0
    outer loop
      vertex -4.51854 1.52989 -2
      vertex -4.61113 1.58538 2
      vertex -4.51854 1.52989 2
    endloop
  endfacet
  facet normal 0.51406 0.857754 0
    outer loop
      vertex -4.61113 1.58538 2
      vertex -4.51854 1.52989 -2
      vertex -4.61113 1.58538 -2
    endloop
  endfacet
  facet normal -0.51406 -0.857754 0
    outer loop
      vertex -3.48146 3.47011 -2
      vertex -3.38887 3.41462 2
      vertex -3.48146 3.47011 2
    endloop
  endfacet
  facet normal -0.51406 -0.857754 -0
    outer loop
      vertex -3.38887 3.41462 2
      vertex -3.48146 3.47011 -2
      vertex -3.38887 3.41462 -2
    endloop
  endfacet
  facet normal -0.146737 0.989176 0
    outer loop
      vertex -3.7854 1.42114 -2
      vertex -3.89218 1.4053 2
      vertex -3.7854 1.42114 2
    endloop
  endfacet
  facet normal -0.146737 0.989176 0
    outer loop
      vertex -3.89218 1.4053 2
      vertex -3.7854 1.42114 -2
      vertex -3.89218 1.4053 -2
    endloop
  endfacet
  facet normal -0.941536 -0.336911 0
    outer loop
      vertex -2.94736 2.81931 -2
      vertex -2.98373 2.92095 2
      vertex -2.98373 2.92095 -2
    endloop
  endfacet
  facet normal -0.941536 -0.336911 0
    outer loop
      vertex -2.98373 2.92095 2
      vertex -2.94736 2.81931 -2
      vertex -2.94736 2.81931 2
    endloop
  endfacet
  facet normal -0.857754 0.51406 0
    outer loop
      vertex -3.08538 1.88887 -2
      vertex -3.02989 1.98146 2
      vertex -3.02989 1.98146 -2
    endloop
  endfacet
  facet normal -0.857754 0.51406 0
    outer loop
      vertex -3.02989 1.98146 2
      vertex -3.08538 1.88887 -2
      vertex -3.08538 1.88887 2
    endloop
  endfacet
  facet normal 0.998794 0.0490967 0
    outer loop
      vertex -5.0947 2.39218 2
      vertex -5.1 2.5 -2
      vertex -5.1 2.5 2
    endloop
  endfacet
  facet normal 0.998794 0.0490967 0
    outer loop
      vertex -5.1 2.5 -2
      vertex -5.0947 2.39218 2
      vertex -5.0947 2.39218 -2
    endloop
  endfacet
  facet normal -0.941536 0.336911 0
    outer loop
      vertex -2.98373 2.07905 -2
      vertex -2.94736 2.18069 2
      vertex -2.94736 2.18069 -2
    endloop
  endfacet
  facet normal -0.941536 0.336911 0
    outer loop
      vertex -2.94736 2.18069 2
      vertex -2.98373 2.07905 -2
      vertex -2.98373 2.07905 2
    endloop
  endfacet
  facet normal 0.146737 -0.989176 0
    outer loop
      vertex -4.2146 3.57886 -2
      vertex -4.10782 3.5947 2
      vertex -4.2146 3.57886 2
    endloop
  endfacet
  facet normal 0.146737 -0.989176 0
    outer loop
      vertex -4.10782 3.5947 2
      vertex -4.2146 3.57886 -2
      vertex -4.10782 3.5947 -2
    endloop
  endfacet
  facet normal -0.740991 -0.671515 0
    outer loop
      vertex -3.14969 3.19783 -2
      vertex -3.22218 3.27782 2
      vertex -3.22218 3.27782 -2
    endloop
  endfacet
  facet normal -0.740991 -0.671515 0
    outer loop
      vertex -3.22218 3.27782 2
      vertex -3.14969 3.19783 -2
      vertex -3.14969 3.19783 2
    endloop
  endfacet
  facet normal -0.0490967 -0.998794 0
    outer loop
      vertex -4 3.6 -2
      vertex -3.89218 3.5947 2
      vertex -4 3.6 2
    endloop
  endfacet
  facet normal -0.0490967 -0.998794 -0
    outer loop
      vertex -3.89218 3.5947 2
      vertex -4 3.6 -2
      vertex -3.89218 3.5947 -2
    endloop
  endfacet
  facet normal -0.903977 -0.427581 0
    outer loop
      vertex -2.98373 2.92095 -2
      vertex -3.02989 3.01854 2
      vertex -3.02989 3.01854 -2
    endloop
  endfacet
  facet normal -0.903977 -0.427581 0
    outer loop
      vertex -3.02989 3.01854 2
      vertex -2.98373 2.92095 -2
      vertex -2.98373 2.92095 2
    endloop
  endfacet
  facet normal 0.146737 0.989176 -0
    outer loop
      vertex -4.10782 1.4053 -2
      vertex -4.2146 1.42114 2
      vertex -4.10782 1.4053 2
    endloop
  endfacet
  facet normal 0.146737 0.989176 0
    outer loop
      vertex -4.2146 1.42114 2
      vertex -4.10782 1.4053 -2
      vertex -4.2146 1.42114 -2
    endloop
  endfacet
  facet normal -0.671515 0.740991 0
    outer loop
      vertex -3.22218 1.72218 -2
      vertex -3.30217 1.64969 2
      vertex -3.22218 1.72218 2
    endloop
  endfacet
  facet normal -0.671515 0.740991 0
    outer loop
      vertex -3.30217 1.64969 2
      vertex -3.22218 1.72218 -2
      vertex -3.30217 1.64969 -2
    endloop
  endfacet
  facet normal -0.857754 -0.51406 0
    outer loop
      vertex -3.02989 3.01854 -2
      vertex -3.08538 3.11113 2
      vertex -3.08538 3.11113 -2
    endloop
  endfacet
  facet normal -0.857754 -0.51406 0
    outer loop
      vertex -3.08538 3.11113 2
      vertex -3.02989 3.01854 -2
      vertex -3.02989 3.01854 2
    endloop
  endfacet
  facet normal 0.0490967 0.998794 -0
    outer loop
      vertex -4 1.4 -2
      vertex -4.10782 1.4053 2
      vertex -4 1.4 2
    endloop
  endfacet
  facet normal 0.0490967 0.998794 0
    outer loop
      vertex -4.10782 1.4053 2
      vertex -4 1.4 -2
      vertex -4.10782 1.4053 -2
    endloop
  endfacet
  facet normal 0.740991 -0.671515 0
    outer loop
      vertex -4.85031 3.19783 2
      vertex -4.77782 3.27782 -2
      vertex -4.77782 3.27782 2
    endloop
  endfacet
  facet normal 0.740991 -0.671515 0
    outer loop
      vertex -4.77782 3.27782 -2
      vertex -4.85031 3.19783 2
      vertex -4.85031 3.19783 -2
    endloop
  endfacet
  facet normal 0.903977 -0.427581 0
    outer loop
      vertex -5.01627 2.92095 2
      vertex -4.97011 3.01854 -2
      vertex -4.97011 3.01854 2
    endloop
  endfacet
  facet normal 0.903977 -0.427581 0
    outer loop
      vertex -4.97011 3.01854 -2
      vertex -5.01627 2.92095 2
      vertex -5.01627 2.92095 -2
    endloop
  endfacet
  facet normal 0.970028 -0.242993 0
    outer loop
      vertex -5.07886 2.7146 2
      vertex -5.05263 2.81931 -2
      vertex -5.05263 2.81931 2
    endloop
  endfacet
  facet normal 0.970028 -0.242993 0
    outer loop
      vertex -5.05263 2.81931 -2
      vertex -5.07886 2.7146 2
      vertex -5.07886 2.7146 -2
    endloop
  endfacet
  facet normal -0.242993 -0.970028 0
    outer loop
      vertex -3.7854 3.57886 -2
      vertex -3.68069 3.55263 2
      vertex -3.7854 3.57886 2
    endloop
  endfacet
  facet normal -0.242993 -0.970028 -0
    outer loop
      vertex -3.68069 3.55263 2
      vertex -3.7854 3.57886 -2
      vertex -3.68069 3.55263 -2
    endloop
  endfacet
  facet normal 0.970028 0.242993 0
    outer loop
      vertex -5.05263 2.18069 2
      vertex -5.07886 2.2854 -2
      vertex -5.07886 2.2854 2
    endloop
  endfacet
  facet normal 0.970028 0.242993 0
    outer loop
      vertex -5.07886 2.2854 -2
      vertex -5.05263 2.18069 2
      vertex -5.05263 2.18069 -2
    endloop
  endfacet
  facet normal 0.427581 0.903977 -0
    outer loop
      vertex -4.42095 1.48373 -2
      vertex -4.51854 1.52989 2
      vertex -4.42095 1.48373 2
    endloop
  endfacet
  facet normal 0.427581 0.903977 0
    outer loop
      vertex -4.51854 1.52989 2
      vertex -4.42095 1.48373 -2
      vertex -4.51854 1.52989 -2
    endloop
  endfacet
  facet normal 0.740991 0.671515 0
    outer loop
      vertex -4.77782 1.72218 2
      vertex -4.85031 1.80217 -2
      vertex -4.85031 1.80217 2
    endloop
  endfacet
  facet normal 0.740991 0.671515 0
    outer loop
      vertex -4.85031 1.80217 -2
      vertex -4.77782 1.72218 2
      vertex -4.77782 1.72218 -2
    endloop
  endfacet
  facet normal -0.0490967 0.998794 0
    outer loop
      vertex -3.89218 1.4053 -2
      vertex -4 1.4 2
      vertex -3.89218 1.4053 2
    endloop
  endfacet
  facet normal -0.0490967 0.998794 0
    outer loop
      vertex -4 1.4 2
      vertex -3.89218 1.4053 -2
      vertex -4 1.4 -2
    endloop
  endfacet
  facet normal 0.989176 0.146737 0
    outer loop
      vertex -5.07886 2.2854 2
      vertex -5.0947 2.39218 -2
      vertex -5.0947 2.39218 2
    endloop
  endfacet
  facet normal 0.989176 0.146737 0
    outer loop
      vertex -5.0947 2.39218 -2
      vertex -5.07886 2.2854 2
      vertex -5.07886 2.2854 -2
    endloop
  endfacet
  facet normal -0.595752 0.803168 0
    outer loop
      vertex -3.30217 1.64969 -2
      vertex -3.38887 1.58538 2
      vertex -3.30217 1.64969 2
    endloop
  endfacet
  facet normal -0.595752 0.803168 0
    outer loop
      vertex -3.38887 1.58538 2
      vertex -3.30217 1.64969 -2
      vertex -3.38887 1.58538 -2
    endloop
  endfacet
  facet normal 0.803168 0.595752 0
    outer loop
      vertex -4.85031 1.80217 2
      vertex -4.91462 1.88887 -2
      vertex -4.91462 1.88887 2
    endloop
  endfacet
  facet normal 0.803168 0.595752 0
    outer loop
      vertex -4.91462 1.88887 -2
      vertex -4.85031 1.80217 2
      vertex -4.85031 1.80217 -2
    endloop
  endfacet
  facet normal 0.998794 -0.0490967 0
    outer loop
      vertex -5.1 2.5 2
      vertex -5.0947 2.60782 -2
      vertex -5.0947 2.60782 2
    endloop
  endfacet
  facet normal 0.998794 -0.0490967 0
    outer loop
      vertex -5.0947 2.60782 -2
      vertex -5.1 2.5 2
      vertex -5.1 2.5 -2
    endloop
  endfacet
  facet normal -0.740991 0.671515 0
    outer loop
      vertex -3.22218 1.72218 -2
      vertex -3.14969 1.80217 2
      vertex -3.14969 1.80217 -2
    endloop
  endfacet
  facet normal -0.740991 0.671515 0
    outer loop
      vertex -3.14969 1.80217 2
      vertex -3.22218 1.72218 -2
      vertex -3.22218 1.72218 2
    endloop
  endfacet
endsolid OpenSCAD_Model
