solid OpenSCAD_Model
  facet normal 0.752103 0.659046 0
    outer loop
      vertex 11.8243 5.82426 1
      vertex 11.876 5.76526 0
      vertex 11.8243 5.82426 0
    endloop
  endfacet
  facet normal -0.997859 -0.0653986 -0
    outer loop
      vertex 0.00513268 0.521684 1
      vertex 0 0.599999 1
      vertex 0.00513268 0.521684 0
    endloop
  endfacet
  facet normal 0 0 -1
    outer loop
      vertex 11.4783 0.00513268 0
      vertex 0.234743 5.87601 0
      vertex 11.5553 0.0204439 0
    endloop
  endfacet
  facet normal 0.831501 0.555523 -0
    outer loop
      vertex 11.9196 5.7 0
      vertex 11.876 5.76526 0
      vertex 11.9196 5.7 1
    endloop
  endfacet
  facet normal 0.195029 -0.980798 0
    outer loop
      vertex 11.4783 0.00513268 1
      vertex 11.5553 0.0204439 0
      vertex 11.5553 0.0204439 1
    endloop
  endfacet
  facet normal 0 -1 0
    outer loop
      vertex 0.599999 0 0
      vertex 11.4 0 1
      vertex 0.599999 0 1
    endloop
  endfacet
  facet normal 0 -0 1
    outer loop
      vertex 0.0456715 0.37039 1
      vertex 0.234743 5.87601 1
      vertex 0.0204439 0.444708 1
    endloop
  endfacet
  facet normal -0.0653986 -0.997859 0
    outer loop
      vertex 0.599999 0 0
      vertex 0.521684 0.00513268 1
      vertex 0.521684 0.00513268 0
    endloop
  endfacet
  facet normal 0 0 1
    outer loop
      vertex 11.8243 0.175735 1
      vertex 0.234743 5.87601 1
      vertex 11.7653 0.123987 1
    endloop
  endfacet
  facet normal 0 0 1
    outer loop
      vertex 11.7653 0.123987 1
      vertex 0.234743 5.87601 1
      vertex 11.7 0.0803843 1
    endloop
  endfacet
  facet normal -0.0653986 -0.997859 -0
    outer loop
      vertex 0.599999 0 1
      vertex 0.521684 0.00513268 1
      vertex 0.599999 0 0
    endloop
  endfacet
  facet normal 0 0 -1
    outer loop
      vertex 0 0.599999 0
      vertex 0.234743 5.87601 0
      vertex 0.00513268 0.521684 0
    endloop
  endfacet
  facet normal -0.751844 -0.659341 -0
    outer loop
      vertex 0.175735 0.175735 1
      vertex 0.123987 0.234743 1
      vertex 0.175735 0.175735 0
    endloop
  endfacet
  facet normal 0.752147 -0.658995 0
    outer loop
      vertex 11.8243 0.175735 0
      vertex 11.876 0.234743 1
      vertex 11.8243 0.175735 1
    endloop
  endfacet
  facet normal -0.659341 -0.751844 -0
    outer loop
      vertex 0.234743 0.123987 1
      vertex 0.175735 0.175735 0
      vertex 0.234743 0.123987 0
    endloop
  endfacet
  facet normal -0.555547 0.831485 0
    outer loop
      vertex 0.299999 5.91961 0
      vertex 0.234743 5.87601 1
      vertex 0.299999 5.91961 1
    endloop
  endfacet
  facet normal 0 0 -1
    outer loop
      vertex 0.521684 5.99487 0
      vertex 0.234743 5.87601 0
      vertex 0.444708 5.97956 0
    endloop
  endfacet
  facet normal 0 1 0
    outer loop
      vertex 0.599999 6 0
      vertex 0.599999 6 1
      vertex 11.4 6 0
    endloop
  endfacet
  facet normal -0.32144 -0.94693 0
    outer loop
      vertex 0.444708 0.0204439 0
      vertex 0.37039 0.0456715 1
      vertex 0.37039 0.0456715 0
    endloop
  endfacet
  facet normal 0 -1 0
    outer loop
      vertex 11.4 0 0
      vertex 11.4 0 1
      vertex 0.599999 0 0
    endloop
  endfacet
  facet normal 0 0 1
    outer loop
      vertex 0.123987 5.76526 1
      vertex 0.234743 5.87601 1
      vertex 0.175735 5.82426 1
    endloop
  endfacet
  facet normal 0 0 1
    outer loop
      vertex 12 0.599999 1
      vertex 0.234743 5.87601 1
      vertex 11.9949 0.521684 1
    endloop
  endfacet
  facet normal 0 0 1
    outer loop
      vertex 11.4783 5.99487 1
      vertex 0.234743 5.87601 1
      vertex 11.5553 5.97956 1
    endloop
  endfacet
  facet normal 0.98081 0.194964 -0
    outer loop
      vertex 11.9949 5.47832 0
      vertex 11.9796 5.55529 1
      vertex 11.9949 5.47832 1
    endloop
  endfacet
  facet normal 0.195014 0.980801 -0
    outer loop
      vertex 11.5553 5.97956 0
      vertex 11.4783 5.99487 1
      vertex 11.5553 5.97956 1
    endloop
  endfacet
  facet normal -0 0 1
    outer loop
      vertex 0.521684 5.99487 1
      vertex 0.234743 5.87601 1
      vertex 0.599999 6 1
    endloop
  endfacet
  facet normal -0.896874 -0.442287 -0
    outer loop
      vertex 0.0803843 0.299999 1
      vertex 0.0456715 0.37039 1
      vertex 0.0803843 0.299999 0
    endloop
  endfacet
  facet normal 0.659392 -0.751799 0
    outer loop
      vertex 11.8243 0.175735 1
      vertex 11.7653 0.123987 1
      vertex 11.8243 0.175735 0
    endloop
  endfacet
  facet normal 0.831501 0.555523 0
    outer loop
      vertex 11.9196 5.7 1
      vertex 11.876 5.76526 0
      vertex 11.876 5.76526 1
    endloop
  endfacet
  facet normal 0.997886 -0.064984 0
    outer loop
      vertex 12 0.599999 0
      vertex 11.9949 0.521684 1
      vertex 11.9949 0.521684 0
    endloop
  endfacet
  facet normal -0.195087 -0.980786 0
    outer loop
      vertex 0.444708 0.0204439 0
      vertex 0.521684 0.00513268 1
      vertex 0.444708 0.0204439 1
    endloop
  endfacet
  facet normal -0.195087 -0.980786 0
    outer loop
      vertex 0.521684 0.00513268 0
      vertex 0.521684 0.00513268 1
      vertex 0.444708 0.0204439 0
    endloop
  endfacet
  facet normal -1 -0 -0
    outer loop
      vertex 0 5.4 1
      vertex 0 5.4 0
      vertex 0 0.599999 1
    endloop
  endfacet
  facet normal 0.997887 0.0649798 0
    outer loop
      vertex 12 5.4 1
      vertex 12 5.4 0
      vertex 11.9949 5.47832 1
    endloop
  endfacet
  facet normal 0 0 -1
    outer loop
      vertex 11.7653 5.87601 0
      vertex 0.234743 5.87601 0
      vertex 11.7 5.91961 0
    endloop
  endfacet
  facet normal 0.659392 -0.751799 0
    outer loop
      vertex 11.8243 0.175735 0
      vertex 11.7653 0.123987 1
      vertex 11.7653 0.123987 0
    endloop
  endfacet
  facet normal 0.555312 -0.831642 0
    outer loop
      vertex 11.7 0.0803843 0
      vertex 11.7653 0.123987 1
      vertex 11.7 0.0803843 1
    endloop
  endfacet
  facet normal 0 0 1
    outer loop
      vertex 11.4 6 1
      vertex 0.234743 5.87601 1
      vertex 11.4783 5.99487 1
    endloop
  endfacet
  facet normal -0.980783 0.195102 0
    outer loop
      vertex 0.00513268 5.47832 1
      vertex 0.0204439 5.55529 1
      vertex 0.00513268 5.47832 0
    endloop
  endfacet
  facet normal 1 0 0
    outer loop
      vertex 12 0.599999 0
      vertex 12 5.4 0
      vertex 12 0.599999 1
    endloop
  endfacet
  facet normal 0 1 -0
    outer loop
      vertex 11.4 6 0
      vertex 0.599999 6 1
      vertex 11.4 6 1
    endloop
  endfacet
  facet normal 0.980813 -0.19495 0
    outer loop
      vertex 11.9796 0.444708 0
      vertex 11.9949 0.521684 1
      vertex 11.9796 0.444708 1
    endloop
  endfacet
  facet normal 0.442315 0.89686 0
    outer loop
      vertex 11.6296 5.95433 0
      vertex 11.7 5.91961 1
      vertex 11.7 5.91961 0
    endloop
  endfacet
  facet normal 0.195014 0.980801 -0
    outer loop
      vertex 11.4783 5.99487 0
      vertex 11.4783 5.99487 1
      vertex 11.5553 5.97956 0
    endloop
  endfacet
  facet normal 0 0 -1
    outer loop
      vertex 11.4 0 0
      vertex 0.234743 5.87601 0
      vertex 11.4783 0.00513268 0
    endloop
  endfacet
  facet normal -0 0 -1
    outer loop
      vertex 11.4 6 0
      vertex 0.234743 5.87601 0
      vertex 0.599999 6 0
    endloop
  endfacet
  facet normal 0 0 1
    outer loop
      vertex 11.876 0.234743 1
      vertex 0.234743 5.87601 1
      vertex 11.8243 0.175735 1
    endloop
  endfacet
  facet normal 0 0 -1
    outer loop
      vertex 0.599999 0 0
      vertex 0.234743 5.87601 0
      vertex 11.4 0 0
    endloop
  endfacet
  facet normal -0.555571 -0.831469 -0
    outer loop
      vertex 0.299999 0.0803843 1
      vertex 0.234743 0.123987 1
      vertex 0.299999 0.0803843 0
    endloop
  endfacet
  facet normal -0.0653646 0.997861 0
    outer loop
      vertex 0.521684 5.99487 0
      vertex 0.521684 5.99487 1
      vertex 0.599999 6 0
    endloop
  endfacet
  facet normal 0 0 -1
    outer loop
      vertex 11.876 5.76526 0
      vertex 0.234743 5.87601 0
      vertex 11.8243 5.82426 0
    endloop
  endfacet
  facet normal -0.997859 -0.0653986 0
    outer loop
      vertex 0.00513268 0.521684 0
      vertex 0 0.599999 1
      vertex 0 0.599999 0
    endloop
  endfacet
  facet normal 0 0 -1
    outer loop
      vertex 11.9196 0.299999 0
      vertex 0.234743 5.87601 0
      vertex 11.9543 0.37039 0
    endloop
  endfacet
  facet normal 0 0 -1
    outer loop
      vertex 0.599999 6 0
      vertex 0.234743 5.87601 0
      vertex 0.521684 5.99487 0
    endloop
  endfacet
  facet normal -0.751799 0.659392 0
    outer loop
      vertex 0.175735 5.82426 0
      vertex 0.123987 5.76526 1
      vertex 0.175735 5.82426 1
    endloop
  endfacet
  facet normal 0 -0 1
    outer loop
      vertex 0.0204439 0.444708 1
      vertex 0.234743 5.87601 1
      vertex 0.00513268 0.521684 1
    endloop
  endfacet
  facet normal -0.896871 0.442292 0
    outer loop
      vertex 0.0456715 5.62961 0
      vertex 0.0456715 5.62961 1
      vertex 0.0803843 5.7 0
    endloop
  endfacet
  facet normal 0 0 -1
    outer loop
      vertex 0.37039 5.95433 0
      vertex 0.234743 5.87601 0
      vertex 0.299999 5.91961 0
    endloop
  endfacet
  facet normal 0 0 1
    outer loop
      vertex 11.6296 5.95433 1
      vertex 0.234743 5.87601 1
      vertex 11.7 5.91961 1
    endloop
  endfacet
  facet normal 0 0 1
    outer loop
      vertex 11.6296 0.0456715 1
      vertex 0.234743 5.87601 1
      vertex 11.5553 0.0204439 1
    endloop
  endfacet
  facet normal 0.997887 0.0649798 0
    outer loop
      vertex 11.9949 5.47832 1
      vertex 12 5.4 0
      vertex 11.9949 5.47832 0
    endloop
  endfacet
  facet normal 0 0 -1
    outer loop
      vertex 0.444708 0.0204439 0
      vertex 0.234743 5.87601 0
      vertex 0.521684 0.00513268 0
    endloop
  endfacet
  facet normal -0.0653646 0.997861 0
    outer loop
      vertex 0.599999 6 0
      vertex 0.521684 5.99487 1
      vertex 0.599999 6 1
    endloop
  endfacet
  facet normal 0 0 -1
    outer loop
      vertex 11.8243 0.175735 0
      vertex 0.234743 5.87601 0
      vertex 11.876 0.234743 0
    endloop
  endfacet
  facet normal 0.0654111 -0.997858 0
    outer loop
      vertex 11.4 0 1
      vertex 11.4783 0.00513268 0
      vertex 11.4783 0.00513268 1
    endloop
  endfacet
  facet normal -0.896874 -0.442287 0
    outer loop
      vertex 0.0803843 0.299999 0
      vertex 0.0456715 0.37039 1
      vertex 0.0456715 0.37039 0
    endloop
  endfacet
  facet normal 0 0 1
    outer loop
      vertex 11.8243 5.82426 1
      vertex 0.234743 5.87601 1
      vertex 11.876 5.76526 1
    endloop
  endfacet
  facet normal -0.32144 -0.94693 -0
    outer loop
      vertex 0.444708 0.0204439 1
      vertex 0.37039 0.0456715 1
      vertex 0.444708 0.0204439 0
    endloop
  endfacet
  facet normal 0 0 -1
    outer loop
      vertex 11.9196 5.7 0
      vertex 0.234743 5.87601 0
      vertex 11.876 5.76526 0
    endloop
  endfacet
  facet normal 0 0 -1
    outer loop
      vertex 11.7653 0.123987 0
      vertex 0.234743 5.87601 0
      vertex 11.8243 0.175735 0
    endloop
  endfacet
  facet normal -0.659356 0.751831 0
    outer loop
      vertex 0.175735 5.82426 0
      vertex 0.234743 5.87601 1
      vertex 0.234743 5.87601 0
    endloop
  endfacet
  facet normal -0.980786 -0.195087 0
    outer loop
      vertex 0.00513268 0.521684 1
      vertex 0.0204439 0.444708 0
      vertex 0.0204439 0.444708 1
    endloop
  endfacet
  facet normal 0 0 -1
    outer loop
      vertex 11.9796 0.444708 0
      vertex 0.234743 5.87601 0
      vertex 11.9949 0.521684 0
    endloop
  endfacet
  facet normal 0.752103 0.659046 0
    outer loop
      vertex 11.876 5.76526 1
      vertex 11.876 5.76526 0
      vertex 11.8243 5.82426 1
    endloop
  endfacet
  facet normal 0.946652 0.322259 0
    outer loop
      vertex 11.9796 5.55529 1
      vertex 11.9543 5.62961 0
      vertex 11.9543 5.62961 1
    endloop
  endfacet
  facet normal 0 0 -1
    outer loop
      vertex 0.521684 0.00513268 0
      vertex 0.234743 5.87601 0
      vertex 0.599999 0 0
    endloop
  endfacet
  facet normal -0.831469 -0.555571 -0
    outer loop
      vertex 0.123987 0.234743 1
      vertex 0.0803843 0.299999 0
      vertex 0.123987 0.234743 0
    endloop
  endfacet
  facet normal 0 0 -1
    outer loop
      vertex 11.9949 5.47832 0
      vertex 0.234743 5.87601 0
      vertex 11.9796 5.55529 0
    endloop
  endfacet
  facet normal 0.442315 0.89686 0
    outer loop
      vertex 11.6296 5.95433 1
      vertex 11.7 5.91961 1
      vertex 11.6296 5.95433 0
    endloop
  endfacet
  facet normal 0 0 1
    outer loop
      vertex 0 0.599999 1
      vertex 0.234743 5.87601 1
      vertex 0 5.4 1
    endloop
  endfacet
  facet normal 0 0 -1
    outer loop
      vertex 12 0.599999 0
      vertex 0.234743 5.87601 0
      vertex 12 5.4 0
    endloop
  endfacet
  facet normal 0 -0 -1
    outer loop
      vertex 0.123987 5.76526 0
      vertex 0.234743 5.87601 0
      vertex 0.0803843 5.7 0
    endloop
  endfacet
  facet normal 0 0 1
    outer loop
      vertex 11.5553 5.97956 1
      vertex 0.234743 5.87601 1
      vertex 11.6296 5.95433 1
    endloop
  endfacet
  facet normal 0 0 -1
    outer loop
      vertex 0.37039 0.0456715 0
      vertex 0.234743 5.87601 0
      vertex 0.444708 0.0204439 0
    endloop
  endfacet
  facet normal -0.831485 0.555547 0
    outer loop
      vertex 0.0803843 5.7 1
      vertex 0.123987 5.76526 1
      vertex 0.0803843 5.7 0
    endloop
  endfacet
  facet normal -0.94693 -0.32144 -0
    outer loop
      vertex 0.0456715 0.37039 1
      vertex 0.0204439 0.444708 0
      vertex 0.0456715 0.37039 0
    endloop
  endfacet
  facet normal -0 0 1
    outer loop
      vertex 0.599999 6 1
      vertex 0.234743 5.87601 1
      vertex 11.4 6 1
    endloop
  endfacet
  facet normal -0.831485 0.555547 0
    outer loop
      vertex 0.0803843 5.7 0
      vertex 0.123987 5.76526 1
      vertex 0.123987 5.76526 0
    endloop
  endfacet
  facet normal 0.896938 -0.442155 0
    outer loop
      vertex 11.9543 0.37039 0
      vertex 11.9196 0.299999 1
      vertex 11.9196 0.299999 0
    endloop
  endfacet
  facet normal 0.896938 -0.442155 0
    outer loop
      vertex 11.9543 0.37039 1
      vertex 11.9196 0.299999 1
      vertex 11.9543 0.37039 0
    endloop
  endfacet
  facet normal 0 -0 -1
    outer loop
      vertex 0.0456715 5.62961 0
      vertex 0.234743 5.87601 0
      vertex 0.0204439 5.55529 0
    endloop
  endfacet
  facet normal -0.195072 0.980789 0
    outer loop
      vertex 0.444708 5.97956 0
      vertex 0.521684 5.99487 1
      vertex 0.521684 5.99487 0
    endloop
  endfacet
  facet normal 0 0 1
    outer loop
      vertex 11.9949 5.47832 1
      vertex 0.234743 5.87601 1
      vertex 12 5.4 1
    endloop
  endfacet
  facet normal 0 0 -1
    outer loop
      vertex 11.9949 0.521684 0
      vertex 0.234743 5.87601 0
      vertex 12 0.599999 0
    endloop
  endfacet
  facet normal -0 0 1
    outer loop
      vertex 0.299999 5.91961 1
      vertex 0.234743 5.87601 1
      vertex 0.37039 5.95433 1
    endloop
  endfacet
  facet normal 0 -0 -1
    outer loop
      vertex 0.0204439 5.55529 0
      vertex 0.234743 5.87601 0
      vertex 0.00513268 5.47832 0
    endloop
  endfacet
  facet normal 0 0 1
    outer loop
      vertex 11.7 5.91961 1
      vertex 0.234743 5.87601 1
      vertex 11.7653 5.87601 1
    endloop
  endfacet
  facet normal -0.751844 -0.659341 0
    outer loop
      vertex 0.175735 0.175735 0
      vertex 0.123987 0.234743 1
      vertex 0.123987 0.234743 0
    endloop
  endfacet
  facet normal 0.0654111 -0.997858 0
    outer loop
      vertex 11.4 0 0
      vertex 11.4783 0.00513268 0
      vertex 11.4 0 1
    endloop
  endfacet
  facet normal 1 -0 0
    outer loop
      vertex 12 0.599999 1
      vertex 12 5.4 0
      vertex 12 5.4 1
    endloop
  endfacet
  facet normal -0.44236 0.896837 0
    outer loop
      vertex 0.37039 5.95433 1
      vertex 0.299999 5.91961 0
      vertex 0.299999 5.91961 1
    endloop
  endfacet
  facet normal 0 0 -1
    outer loop
      vertex 0.123987 0.234743 0
      vertex 0.234743 5.87601 0
      vertex 0.175735 0.175735 0
    endloop
  endfacet
  facet normal 0.98081 0.194964 -0
    outer loop
      vertex 11.9796 5.55529 0
      vertex 11.9796 5.55529 1
      vertex 11.9949 5.47832 0
    endloop
  endfacet
  facet normal 0 -0 1
    outer loop
      vertex 0.234743 0.123987 1
      vertex 0.234743 5.87601 1
      vertex 0.175735 0.175735 1
    endloop
  endfacet
  facet normal 0 0 1
    outer loop
      vertex 11.4 0 1
      vertex 0.234743 5.87601 1
      vertex 0.599999 0 1
    endloop
  endfacet
  facet normal 0 0 1
    outer loop
      vertex 0.37039 0.0456715 1
      vertex 0.234743 5.87601 1
      vertex 0.299999 0.0803843 1
    endloop
  endfacet
  facet normal 0.896936 0.44216 0
    outer loop
      vertex 11.9543 5.62961 1
      vertex 11.9543 5.62961 0
      vertex 11.9196 5.7 1
    endloop
  endfacet
  facet normal -0.442287 -0.896874 -0
    outer loop
      vertex 0.37039 0.0456715 1
      vertex 0.299999 0.0803843 0
      vertex 0.37039 0.0456715 0
    endloop
  endfacet
  facet normal -0.442287 -0.896874 -0
    outer loop
      vertex 0.299999 0.0803843 1
      vertex 0.299999 0.0803843 0
      vertex 0.37039 0.0456715 1
    endloop
  endfacet
  facet normal 0.659406 0.751787 -0
    outer loop
      vertex 11.8243 5.82426 0
      vertex 11.7653 5.87601 1
      vertex 11.8243 5.82426 1
    endloop
  endfacet
  facet normal 0 0 -1
    outer loop
      vertex 12 5.4 0
      vertex 0.234743 5.87601 0
      vertex 11.9949 5.47832 0
    endloop
  endfacet
  facet normal -0.555571 -0.831469 0
    outer loop
      vertex 0.299999 0.0803843 0
      vertex 0.234743 0.123987 1
      vertex 0.234743 0.123987 0
    endloop
  endfacet
  facet normal 0.946652 0.322259 -0
    outer loop
      vertex 11.9796 5.55529 0
      vertex 11.9543 5.62961 0
      vertex 11.9796 5.55529 1
    endloop
  endfacet
  facet normal 0 0 -1
    outer loop
      vertex 11.876 0.234743 0
      vertex 0.234743 5.87601 0
      vertex 11.9196 0.299999 0
    endloop
  endfacet
  facet normal -0.321467 0.946921 0
    outer loop
      vertex 0.37039 5.95433 1
      vertex 0.444708 5.97956 1
      vertex 0.37039 5.95433 0
    endloop
  endfacet
  facet normal 0 0 -1
    outer loop
      vertex 11.9796 5.55529 0
      vertex 0.234743 5.87601 0
      vertex 11.9543 5.62961 0
    endloop
  endfacet
  facet normal 0.831485 -0.555547 0
    outer loop
      vertex 11.9196 0.299999 0
      vertex 11.876 0.234743 1
      vertex 11.876 0.234743 0
    endloop
  endfacet
  facet normal -0.896871 0.442292 0
    outer loop
      vertex 0.0803843 5.7 0
      vertex 0.0456715 5.62961 1
      vertex 0.0803843 5.7 1
    endloop
  endfacet
  facet normal 0.442241 -0.896896 0
    outer loop
      vertex 11.7 0.0803843 0
      vertex 11.7 0.0803843 1
      vertex 11.6296 0.0456715 0
    endloop
  endfacet
  facet normal 0 0 -1
    outer loop
      vertex 0.0204439 0.444708 0
      vertex 0.234743 5.87601 0
      vertex 0.0456715 0.37039 0
    endloop
  endfacet
  facet normal 0 0 1
    outer loop
      vertex 11.9543 0.37039 1
      vertex 0.234743 5.87601 1
      vertex 11.9196 0.299999 1
    endloop
  endfacet
  facet normal 0 0 -1
    outer loop
      vertex 11.8243 5.82426 0
      vertex 0.234743 5.87601 0
      vertex 11.7653 5.87601 0
    endloop
  endfacet
  facet normal -1 0 0
    outer loop
      vertex 0 0.599999 1
      vertex 0 5.4 0
      vertex 0 0.599999 0
    endloop
  endfacet
  facet normal 0 0 -1
    outer loop
      vertex 0.299999 0.0803843 0
      vertex 0.234743 5.87601 0
      vertex 0.37039 0.0456715 0
    endloop
  endfacet
  facet normal 0.32151 -0.946906 0
    outer loop
      vertex 11.6296 0.0456715 1
      vertex 11.5553 0.0204439 0
      vertex 11.6296 0.0456715 0
    endloop
  endfacet
  facet normal -0.44236 0.896837 0
    outer loop
      vertex 0.37039 5.95433 0
      vertex 0.299999 5.91961 0
      vertex 0.37039 5.95433 1
    endloop
  endfacet
  facet normal 0 0 1
    outer loop
      vertex 0.0803843 5.7 1
      vertex 0.234743 5.87601 1
      vertex 0.123987 5.76526 1
    endloop
  endfacet
  facet normal -0.946933 0.321432 0
    outer loop
      vertex 0.0204439 5.55529 1
      vertex 0.0456715 5.62961 1
      vertex 0.0204439 5.55529 0
    endloop
  endfacet
  facet normal 0.321537 0.946897 -0
    outer loop
      vertex 11.6296 5.95433 0
      vertex 11.5553 5.97956 1
      vertex 11.6296 5.95433 1
    endloop
  endfacet
  facet normal 0.321537 0.946897 -0
    outer loop
      vertex 11.5553 5.97956 0
      vertex 11.5553 5.97956 1
      vertex 11.6296 5.95433 0
    endloop
  endfacet
  facet normal 0.32151 -0.946906 0
    outer loop
      vertex 11.5553 0.0204439 1
      vertex 11.5553 0.0204439 0
      vertex 11.6296 0.0456715 1
    endloop
  endfacet
  facet normal 0.195029 -0.980798 0
    outer loop
      vertex 11.4783 0.00513268 0
      vertex 11.5553 0.0204439 0
      vertex 11.4783 0.00513268 1
    endloop
  endfacet
  facet normal 0 0 1
    outer loop
      vertex 11.876 5.76526 1
      vertex 0.234743 5.87601 1
      vertex 11.9196 5.7 1
    endloop
  endfacet
  facet normal -0.946933 0.321432 0
    outer loop
      vertex 0.0204439 5.55529 0
      vertex 0.0456715 5.62961 1
      vertex 0.0456715 5.62961 0
    endloop
  endfacet
  facet normal 0.752147 -0.658995 0
    outer loop
      vertex 11.876 0.234743 0
      vertex 11.876 0.234743 1
      vertex 11.8243 0.175735 0
    endloop
  endfacet
  facet normal 0.442241 -0.896896 0
    outer loop
      vertex 11.6296 0.0456715 0
      vertex 11.7 0.0803843 1
      vertex 11.6296 0.0456715 1
    endloop
  endfacet
  facet normal -0.831469 -0.555571 -0
    outer loop
      vertex 0.0803843 0.299999 1
      vertex 0.0803843 0.299999 0
      vertex 0.123987 0.234743 1
    endloop
  endfacet
  facet normal -0 0 1
    outer loop
      vertex 0.444708 5.97956 1
      vertex 0.234743 5.87601 1
      vertex 0.521684 5.99487 1
    endloop
  endfacet
  facet normal 0 0 1
    outer loop
      vertex 11.9543 5.62961 1
      vertex 0.234743 5.87601 1
      vertex 11.9796 5.55529 1
    endloop
  endfacet
  facet normal 0 0 1
    outer loop
      vertex 11.9196 5.7 1
      vertex 0.234743 5.87601 1
      vertex 11.9543 5.62961 1
    endloop
  endfacet
  facet normal 0 0 1
    outer loop
      vertex 0.00513268 5.47832 1
      vertex 0.234743 5.87601 1
      vertex 0.0204439 5.55529 1
    endloop
  endfacet
  facet normal -0.321467 0.946921 0
    outer loop
      vertex 0.37039 5.95433 0
      vertex 0.444708 5.97956 1
      vertex 0.444708 5.97956 0
    endloop
  endfacet
  facet normal 0 0 -1
    outer loop
      vertex 11.6296 0.0456715 0
      vertex 0.234743 5.87601 0
      vertex 11.7 0.0803843 0
    endloop
  endfacet
  facet normal 0 0 -1
    outer loop
      vertex 0.00513268 0.521684 0
      vertex 0.234743 5.87601 0
      vertex 0.0204439 0.444708 0
    endloop
  endfacet
  facet normal 0.980813 -0.19495 0
    outer loop
      vertex 11.9949 0.521684 0
      vertex 11.9949 0.521684 1
      vertex 11.9796 0.444708 0
    endloop
  endfacet
  facet normal -0.751799 0.659392 0
    outer loop
      vertex 0.123987 5.76526 0
      vertex 0.123987 5.76526 1
      vertex 0.175735 5.82426 0
    endloop
  endfacet
  facet normal 0.946649 -0.322267 0
    outer loop
      vertex 11.9543 0.37039 0
      vertex 11.9796 0.444708 0
      vertex 11.9543 0.37039 1
    endloop
  endfacet
  facet normal 0 0 -1
    outer loop
      vertex 11.9543 0.37039 0
      vertex 0.234743 5.87601 0
      vertex 11.9796 0.444708 0
    endloop
  endfacet
  facet normal 0 -0 1
    outer loop
      vertex 0.00513268 0.521684 1
      vertex 0.234743 5.87601 1
      vertex 0 0.599999 1
    endloop
  endfacet
  facet normal 0.946649 -0.322267 0
    outer loop
      vertex 11.9543 0.37039 1
      vertex 11.9796 0.444708 0
      vertex 11.9796 0.444708 1
    endloop
  endfacet
  facet normal 0.0653771 0.997861 0
    outer loop
      vertex 11.4 6 0
      vertex 11.4783 5.99487 1
      vertex 11.4783 5.99487 0
    endloop
  endfacet
  facet normal 0.831485 -0.555547 0
    outer loop
      vertex 11.9196 0.299999 1
      vertex 11.876 0.234743 1
      vertex 11.9196 0.299999 0
    endloop
  endfacet
  facet normal 0.659406 0.751787 -0
    outer loop
      vertex 11.7653 5.87601 0
      vertex 11.7653 5.87601 1
      vertex 11.8243 5.82426 0
    endloop
  endfacet
  facet normal 0.555288 0.831658 0
    outer loop
      vertex 11.7 5.91961 0
      vertex 11.7653 5.87601 1
      vertex 11.7653 5.87601 0
    endloop
  endfacet
  facet normal 0 -0 1
    outer loop
      vertex 0.0803843 0.299999 1
      vertex 0.234743 5.87601 1
      vertex 0.0456715 0.37039 1
    endloop
  endfacet
  facet normal 0.0653771 0.997861 0
    outer loop
      vertex 11.4 6 1
      vertex 11.4783 5.99487 1
      vertex 11.4 6 0
    endloop
  endfacet
  facet normal -0 0 -1
    outer loop
      vertex 11.4783 5.99487 0
      vertex 0.234743 5.87601 0
      vertex 11.4 6 0
    endloop
  endfacet
  facet normal -0.659341 -0.751844 -0
    outer loop
      vertex 0.175735 0.175735 1
      vertex 0.175735 0.175735 0
      vertex 0.234743 0.123987 1
    endloop
  endfacet
  facet normal 0.997886 -0.064984 0
    outer loop
      vertex 12 0.599999 1
      vertex 11.9949 0.521684 1
      vertex 12 0.599999 0
    endloop
  endfacet
  facet normal -0.980783 0.195102 0
    outer loop
      vertex 0.00513268 5.47832 0
      vertex 0.0204439 5.55529 1
      vertex 0.0204439 5.55529 0
    endloop
  endfacet
  facet normal -0.997859 0.0653945 0
    outer loop
      vertex 0.00513268 5.47832 1
      vertex 0 5.4 0
      vertex 0 5.4 1
    endloop
  endfacet
  facet normal -0.997859 0.0653945 0
    outer loop
      vertex 0.00513268 5.47832 0
      vertex 0 5.4 0
      vertex 0.00513268 5.47832 1
    endloop
  endfacet
  facet normal -0 0 -1
    outer loop
      vertex 11.6296 5.95433 0
      vertex 0.234743 5.87601 0
      vertex 11.5553 5.97956 0
    endloop
  endfacet
  facet normal 0 0 1
    outer loop
      vertex 11.5553 0.0204439 1
      vertex 0.234743 5.87601 1
      vertex 11.4783 0.00513268 1
    endloop
  endfacet
  facet normal 0 0 1
    outer loop
      vertex 11.9796 0.444708 1
      vertex 0.234743 5.87601 1
      vertex 11.9543 0.37039 1
    endloop
  endfacet
  facet normal 0 -0 1
    outer loop
      vertex 0.123987 0.234743 1
      vertex 0.234743 5.87601 1
      vertex 0.0803843 0.299999 1
    endloop
  endfacet
  facet normal 0 0 -1
    outer loop
      vertex 11.9543 5.62961 0
      vertex 0.234743 5.87601 0
      vertex 11.9196 5.7 0
    endloop
  endfacet
  facet normal 0.896936 0.44216 0
    outer loop
      vertex 11.9196 5.7 1
      vertex 11.9543 5.62961 0
      vertex 11.9196 5.7 0
    endloop
  endfacet
  facet normal 0.555288 0.831658 0
    outer loop
      vertex 11.7 5.91961 1
      vertex 11.7653 5.87601 1
      vertex 11.7 5.91961 0
    endloop
  endfacet
  facet normal 0.555312 -0.831642 0
    outer loop
      vertex 11.7653 0.123987 0
      vertex 11.7653 0.123987 1
      vertex 11.7 0.0803843 0
    endloop
  endfacet
  facet normal 0 -0 -1
    outer loop
      vertex 0.0803843 5.7 0
      vertex 0.234743 5.87601 0
      vertex 0.0456715 5.62961 0
    endloop
  endfacet
  facet normal 0 0 1
    outer loop
      vertex 11.4783 0.00513268 1
      vertex 0.234743 5.87601 1
      vertex 11.4 0 1
    endloop
  endfacet
  facet normal 0 0 1
    outer loop
      vertex 0.0456715 5.62961 1
      vertex 0.234743 5.87601 1
      vertex 0.0803843 5.7 1
    endloop
  endfacet
  facet normal 0 0 1
    outer loop
      vertex 11.7 0.0803843 1
      vertex 0.234743 5.87601 1
      vertex 11.6296 0.0456715 1
    endloop
  endfacet
  facet normal -0.94693 -0.32144 -0
    outer loop
      vertex 0.0204439 0.444708 1
      vertex 0.0204439 0.444708 0
      vertex 0.0456715 0.37039 1
    endloop
  endfacet
  facet normal -0.980786 -0.195087 0
    outer loop
      vertex 0.00513268 0.521684 0
      vertex 0.0204439 0.444708 0
      vertex 0.00513268 0.521684 1
    endloop
  endfacet
  facet normal 0 0 1
    outer loop
      vertex 12 5.4 1
      vertex 0.234743 5.87601 1
      vertex 12 0.599999 1
    endloop
  endfacet
  facet normal -0 0 1
    outer loop
      vertex 0.37039 5.95433 1
      vertex 0.234743 5.87601 1
      vertex 0.444708 5.97956 1
    endloop
  endfacet
  facet normal 0 -0 1
    outer loop
      vertex 0.175735 0.175735 1
      vertex 0.234743 5.87601 1
      vertex 0.123987 0.234743 1
    endloop
  endfacet
  facet normal -0.195072 0.980789 0
    outer loop
      vertex 0.444708 5.97956 1
      vertex 0.521684 5.99487 1
      vertex 0.444708 5.97956 0
    endloop
  endfacet
  facet normal 0 0 1
    outer loop
      vertex 11.9196 0.299999 1
      vertex 0.234743 5.87601 1
      vertex 11.876 0.234743 1
    endloop
  endfacet
  facet normal 0 0 1
    outer loop
      vertex 11.7653 5.87601 1
      vertex 0.234743 5.87601 1
      vertex 11.8243 5.82426 1
    endloop
  endfacet
  facet normal -0.555547 0.831485 0
    outer loop
      vertex 0.234743 5.87601 0
      vertex 0.234743 5.87601 1
      vertex 0.299999 5.91961 0
    endloop
  endfacet
  facet normal -0.659356 0.751831 0
    outer loop
      vertex 0.175735 5.82426 1
      vertex 0.234743 5.87601 1
      vertex 0.175735 5.82426 0
    endloop
  endfacet
  facet normal 0 -0 -1
    outer loop
      vertex 0.175735 5.82426 0
      vertex 0.234743 5.87601 0
      vertex 0.123987 5.76526 0
    endloop
  endfacet
  facet normal 0 0 -1
    outer loop
      vertex 0.444708 5.97956 0
      vertex 0.234743 5.87601 0
      vertex 0.37039 5.95433 0
    endloop
  endfacet
  facet normal 0 0 1
    outer loop
      vertex 0.299999 0.0803843 1
      vertex 0.234743 5.87601 1
      vertex 0.234743 0.123987 1
    endloop
  endfacet
  facet normal 0 0 1
    outer loop
      vertex 0.444708 0.0204439 1
      vertex 0.234743 5.87601 1
      vertex 0.37039 0.0456715 1
    endloop
  endfacet
  facet normal 0 0 -1
    outer loop
      vertex 11.5553 0.0204439 0
      vertex 0.234743 5.87601 0
      vertex 11.6296 0.0456715 0
    endloop
  endfacet
  facet normal 0 0 -1
    outer loop
      vertex 11.7 0.0803843 0
      vertex 0.234743 5.87601 0
      vertex 11.7653 0.123987 0
    endloop
  endfacet
  facet normal 0 0 1
    outer loop
      vertex 11.9949 0.521684 1
      vertex 0.234743 5.87601 1
      vertex 11.9796 0.444708 1
    endloop
  endfacet
  facet normal 0 0 1
    outer loop
      vertex 11.9796 5.55529 1
      vertex 0.234743 5.87601 1
      vertex 11.9949 5.47832 1
    endloop
  endfacet
  facet normal 0 0 -1
    outer loop
      vertex 0.175735 0.175735 0
      vertex 0.234743 5.87601 0
      vertex 0.234743 0.123987 0
    endloop
  endfacet
  facet normal 0 0 -1
    outer loop
      vertex 0.234743 0.123987 0
      vertex 0.234743 5.87601 0
      vertex 0.299999 0.0803843 0
    endloop
  endfacet
  facet normal 0 0 -1
    outer loop
      vertex 0.0803843 0.299999 0
      vertex 0.234743 5.87601 0
      vertex 0.123987 0.234743 0
    endloop
  endfacet
  facet normal 0 0 -1
    outer loop
      vertex 0.0456715 0.37039 0
      vertex 0.234743 5.87601 0
      vertex 0.0803843 0.299999 0
    endloop
  endfacet
  facet normal -0 0 -1
    outer loop
      vertex 11.7 5.91961 0
      vertex 0.234743 5.87601 0
      vertex 11.6296 5.95433 0
    endloop
  endfacet
  facet normal -0 0 -1
    outer loop
      vertex 11.5553 5.97956 0
      vertex 0.234743 5.87601 0
      vertex 11.4783 5.99487 0
    endloop
  endfacet
  facet normal 0 0 -1
    outer loop
      vertex 0 5.4 0
      vertex 0.234743 5.87601 0
      vertex 0 0.599999 0
    endloop
  endfacet
  facet normal 0 -0 -1
    outer loop
      vertex 0.00513268 5.47832 0
      vertex 0.234743 5.87601 0
      vertex 0 5.4 0
    endloop
  endfacet
  facet normal 0 0 1
    outer loop
      vertex 0.0204439 5.55529 1
      vertex 0.234743 5.87601 1
      vertex 0.0456715 5.62961 1
    endloop
  endfacet
  facet normal 0 0 1
    outer loop
      vertex 0 5.4 1
      vertex 0.234743 5.87601 1
      vertex 0.00513268 5.47832 1
    endloop
  endfacet
  facet normal 0 0 1
    outer loop
      vertex 0.521684 0.00513268 1
      vertex 0.234743 5.87601 1
      vertex 0.444708 0.0204439 1
    endloop
  endfacet
  facet normal 0 0 1
    outer loop
      vertex 0.599999 0 1
      vertex 0.234743 5.87601 1
      vertex 0.521684 0.00513268 1
    endloop
  endfacet
endsolid OpenSCAD_Model
